<svg id="visual" viewBox="0 0 900 600" width="900" height="600" xmlns="http://www.w3.org/2000/svg" xmlns:xlink="http://www.w3.org/1999/xlink" version="1.1"><rect x="0" y="0" width="900" height="600" fill="#FFFFFF"></rect><defs><linearGradient id="grad1_0" x1="33.3%" y1="0%" x2="100%" y2="100%"><stop offset="20%" stop-color="#758a5b" stop-opacity="1"></stop><stop offset="80%" stop-color="#758a5b" stop-opacity="1"></stop></linearGradient></defs><defs><linearGradient id="grad1_1" x1="33.3%" y1="0%" x2="100%" y2="100%"><stop offset="20%" stop-color="#758a5b" stop-opacity="1"></stop><stop offset="80%" stop-color="#ffffff" stop-opacity="1"></stop></linearGradient></defs><defs><linearGradient id="grad2_0" x1="0%" y1="0%" x2="66.7%" y2="100%"><stop offset="20%" stop-color="#758a5b" stop-opacity="1"></stop><stop offset="80%" stop-color="#758a5b" stop-opacity="1"></stop></linearGradient></defs><defs><linearGradient id="grad2_1" x1="0%" y1="0%" x2="66.7%" y2="100%"><stop offset="20%" stop-color="#ffffff" stop-opacity="1"></stop><stop offset="80%" stop-color="#758a5b" stop-opacity="1"></stop></linearGradient></defs><g transform="translate(900, 0)"><path d="M0 378.6C-37 366.9 -74 355.3 -112.2 345.2C-150.3 335.2 -189.6 326.7 -222.5 306.3C-255.4 285.9 -281.9 253.7 -302.6 219.8C-323.3 186 -338.3 150.6 -350 113.7C-361.7 76.8 -370.1 38.4 -378.6 0L0 0Z" fill="#b8c3aa"></path><path d="M0 189.3C-18.5 183.5 -37 177.7 -56.1 172.6C-75.2 167.6 -94.8 163.3 -111.3 153.1C-127.7 143 -140.9 126.8 -151.3 109.9C-161.6 93 -169.1 75.3 -175 56.9C-180.9 38.4 -185.1 19.2 -189.3 0L0 0Z" fill="#758a5b"></path></g><g transform="translate(0, 600)"><path d="M0 -378.6C40.2 -374.5 80.3 -370.5 115.9 -356.6C151.4 -342.8 182.4 -319.3 215.7 -296.9C249 -274.6 284.7 -253.4 306.3 -222.5C327.9 -191.6 335.5 -150.9 345.2 -112.2C354.9 -73.5 366.8 -36.7 378.6 0L0 0Z" fill="#b8c3aa"></path><path d="M0 -189.3C20.1 -187.3 40.2 -185.2 57.9 -178.3C75.7 -171.4 91.2 -159.6 107.9 -148.5C124.5 -137.3 142.3 -126.7 153.1 -111.3C164 -95.8 167.8 -75.4 172.6 -56.1C177.5 -36.7 183.4 -18.4 189.3 0L0 0Z" fill="#758a5b"></path></g></svg>