<?xml version="1.0" standalone="no"?>
<svg xmlns="http://www.w3.org/2000/svg" xmlns:xlink="http://www.w3.org/1999/xlink" width="900" height="600" stroke-linecap="round"><rect fill="white" height="600" width="900"/><g><path d="M0 0 C0 0, 0 0, 0 0 M0 0 C0 0, 0 0, 0 0 M0.489 6.711 C0.792 3.54, 3.041 0.693, 5.227 -0.864 M-0.034 6.166 C1.055 4.134, 2.134 2.479, 4.39 -0.709 M-1.4 12.249 C4.684 7.236, 6.58 5.278, 8.042 0.386 M-0.495 12.48 C4.673 7.482, 8.09 2.452, 8.139 0.537 M1.285 16.879 C4.55 9.016, 10.242 6.45, 12.906 -0.012 M0.407 18.268 C4.109 9.415, 7.945 2.959, 13.085 -0.521 M-0.195 24.279 C7.335 18.127, 12.955 9.23, 17.27 0.128 M1.17 24.56 C1.198 18.749, 5.664 13.26, 16.707 0.949 M-0.343 28.273 C7.68 20.248, 14.172 8.313, 22.019 0.759 M0.047 29.183 C4.96 21.831, 10.328 15.195, 20.892 0.366 M-0.291 36.445 C14.205 25.683, 21.618 9.413, 24.392 1.623 M0.772 36.25 C7.384 20.134, 16.408 7.172, 25.995 -0.374 M0.699 42.764 C15.046 31.848, 23.969 18.113, 32.3 -0.119 M0.591 41.023 C2.884 25.986, 12.371 14.507, 29.96 0.359 M-1.015 46.925 C9.557 33.748, 17.403 21.476, 32.984 1.319 M0.829 48.471 C7.516 32.693, 20.635 12.933, 34.588 1.086 M-1.442 55.921 C3.107 41.488, 11.152 29.751, 40.694 0.755 M0.36 54.323 C15.081 44.463, 24.137 33.963, 39.146 0.653 M-1.731 59.964 C9.46 46.376, 21.565 31.457, 43.986 -1.453 M-0.927 59.621 C11.072 41.704, 29.127 18.785, 43.903 0.988 M0.392 65.721 C10.565 46.104, 24.207 27.676, 49.342 1.344 M0.372 65.587 C17.988 44.271, 36.002 18.318, 46.629 0.067 M1.558 70.353 C15.519 55.883, 31.536 38.152, 52.824 -0.762 M-0.401 71.008 C13.569 51.658, 26.627 37.39, 51.149 -0.014 M-1.576 79.349 C19.361 48.227, 36.674 25.166, 55.595 -0.436 M0.003 78.498 C19.768 60.436, 36.101 37.4, 56.442 -0.737 M0.188 85.281 C8.604 62.093, 24.716 42.67, 59.1 0.172 M0.757 83.014 C20.008 58.116, 44.808 25.503, 59.76 -0.102 M-1.193 90.856 C27.105 65.507, 48.718 37.446, 63.321 1.381 M-0.78 90.227 C15.394 50.028, 39.812 15.586, 64.886 -0.783 M0.133 96.441 C15.165 79.682, 33.554 57.169, 67.193 1.923 M-0.882 95.525 C6.744 75.168, 26.285 50.371, 69.538 -0.094 M0.119 100.569 C29.846 62.353, 58.75 24.825, 74.935 -1.456 M0.605 101.591 C13.221 75.419, 34.516 46.178, 74.081 -0.94 M-0.418 107.234 C27.838 75.686, 49.158 47.939, 78.86 1.159 M-0.404 107.751 C34.697 70.367, 59.903 35.378, 76.437 0.623 M-1.2 114.636 C25.349 74.461, 50.794 37.856, 82.906 -0.503 M0.649 114.196 C43.233 70.972, 71.84 28.517, 82.867 -0.593 M0.131 120.338 C18.798 101.956, 39.991 73.762, 87.186 -1.249 M0.36 119.862 C24.74 73.268, 52.998 36.15, 87.007 -0.335 M1.17 127.035 C23.135 91.207, 50.59 55.102, 91.518 0.149 M-0.838 125.189 C50.924 83.381, 86.353 36.243, 90.017 -0.397 M-1.624 130.169 C14.781 99.655, 44.046 57.155, 95.055 -0.103 M-0.273 132.612 C18.513 102.952, 46.678 64.566, 95.109 0.908 M-0.509 139.832 C47.277 89.97, 84.601 38.392, 99.697 -2.007 M-0.529 137.644 C17.421 111.652, 40.913 77.444, 98.535 0.09 M-0.252 143.385 C29.217 101.708, 62.671 52.127, 104.092 -1.082 M0.488 143.411 C41.006 86.532, 80.314 31.857, 103.134 -0.527 M1.612 150.545 C33.584 112.809, 64.732 70.301, 107.942 -1.403 M-0.138 149.703 C33.737 123.607, 57.458 93.304, 107.705 -0.314 M0.921 154.505 C39.522 132.832, 64.091 94.942, 114.115 -2.224 M0.087 154.5 C23.567 89.053, 61.564 35.637, 112.811 -0.647 M-0.113 160.662 C23.366 120.097, 55.241 82.106, 118.423 1.516 M-0.485 161.842 C32.785 83.973, 79.433 22.317, 115.462 0.486 M-1.237 166.985 C12.581 142.624, 39.445 105.133, 120.268 0.356 M0.542 168.498 C48.378 117.508, 85.761 67.312, 120.773 -0.907 M0.335 175.05 C46.142 116.727, 97.017 47.94, 126.545 1.713 M0.197 173.519 C36.454 136.466, 65.803 95.334, 125.206 -0.099 M0.319 180.2 C29.045 116.335, 66.074 64.94, 129.573 0.959 M-0.704 180.077 C40.022 130.598, 71.03 87.84, 130.312 0.062 M1.433 185.529 C41.697 127.175, 74.19 80.638, 132.987 -0.489 M-0.611 185.917 C24.513 121.128, 59.854 72.456, 133.404 0.919 M-0.838 190.402 C26.896 148.585, 61.858 100.451, 137.09 -1.757 M-1.074 192.657 C47.286 111.644, 97.256 42.358, 138.162 -0.862 M0.331 198.753 C70.801 134.734, 121.064 66.831, 142.404 1.71 M-0.029 196.566 C15.014 155.341, 46.941 111.375, 142.395 0.023 M1.753 204.209 C14.552 159.343, 47.748 113.577, 145.563 0.809 M0.287 203.485 C52.125 157.594, 85.272 113.037, 147.196 -0.603 M-1.035 210.668 C41.448 151.361, 73.503 104.729, 150.899 1.226 M-0.567 209.785 C22.763 177.313, 57.206 128.424, 151.459 0.246 M-1.501 215.732 C52.124 155.991, 87.264 107.301, 154.64 0.891 M0.566 215.2 C33.842 137.16, 83.876 67.037, 155.792 -0.879 M-0.484 220.456 C51.223 149.331, 92.972 90.857, 160.789 -0.71 M-0.832 221.643 C73.947 126.854, 135.558 40.231, 159.202 -0.458 M-0.361 227.623 C45.497 190.711, 81.796 141.759, 165.042 -1.5 M0.548 227.498 C38.706 161.258, 81.567 103.317, 163.959 0.057 M-0.884 233.135 C27.362 175.927, 76.644 109.194, 168.165 -0.034 M-0.818 234.618 C54.916 167.72, 107.236 96.105, 168.499 0.357 M0.463 239.217 C70.631 158.384, 126.254 77.369, 173.152 -1.611 M0.296 239.361 C34.769 177.472, 83.105 111.328, 172.42 -0.787 M0.271 245.938 C84.066 147.522, 148.407 54.374, 175.293 -0.642 M-0.019 245.794 C67.109 146.458, 129.807 60.411, 176.769 0.618 M0.657 251.115 C30.992 205.616, 71.922 152.811, 181.811 -0.002 M-0.405 251.233 C77.411 144.492, 147.532 45.892, 181.838 -0.355 M0.226 258.017 C41.486 173.376, 94.266 101.387, 186.304 -0.722 M0.029 257.794 C59.331 181.278, 106.97 113.829, 184.663 0.773 M0.675 262.564 C61.562 196.018, 104.934 136.03, 188.938 -1.408 M-0.262 264.356 C37.582 195.731, 75.72 142.92, 189.766 -0.529 M-0.74 268.923 C47.478 179.451, 120.873 78.781, 193.211 1.324 M-0.299 269.191 C100.525 168.702, 177.706 60.333, 194.007 0.866 M-0.941 276.455 C53.729 180.993, 113.61 98.113, 198.476 0.914 M0.344 275.536 C92.266 173.475, 162.526 77.257, 198.323 0.296 M-0.921 280.897 C78.23 183.588, 143.051 92.99, 201.86 0.032 M-0.422 281.355 C102.507 176.992, 183.486 66.179, 202.466 0.495 M-1.025 287.123 C74.445 174.829, 152.287 69.34, 207.552 0.819 M0.463 287.422 C70.431 172.487, 145.336 68.39, 207.594 -0.266 M0.825 293.175 C67.04 219.19, 114.67 153.895, 212.795 0.244 M-0.245 293.66 C31.241 212.883, 83.987 139.718, 211.076 -0.855 M-0.006 298.599 C34.345 222.417, 82.066 158.33, 215.392 0.464 M0.124 298.976 C105.186 183.18, 189.343 66.247, 216.223 -0.351 M0.487 306.142 C38.619 233.574, 85.274 169.08, 220.944 -1.02 M-0.539 305.297 C79.886 202.049, 163.747 86.208, 220.567 0.062 M1.001 311.499 C62.501 210.293, 135.038 110.263, 224.477 -0.836 M-0.487 311.505 C62.241 217.407, 139.07 111.332, 224.598 0.356 M0.414 317.171 C73.464 195.384, 159.894 76.15, 229.206 -0.618 M-0.342 317.229 C33.994 238.203, 87.778 163.574, 229.075 -0.576 M-1.126 323.422 C100.04 206.714, 185.083 87.849, 233.6 1.206 M-0.143 324.225 C77.513 220.917, 147.811 123.974, 232.539 0.229 M1.176 328.077 C78.808 246.747, 134.709 170.369, 236.853 -0.77 M0.3 329.413 C103.735 214.886, 195.041 87.279, 237.362 -0.139 M0.867 336.22 C73.289 188.67, 168.968 56.794, 241.131 -0.609 M-0.035 335.612 C91.905 246.222, 164.154 144.905, 241.089 -0.097 M0.91 342.066 C62.261 250.888, 120.585 170.734, 246.642 -0.277 M0.412 341.701 C89.206 209.639, 174.659 91.127, 245.554 -0.262 M-0.071 347.481 C57.418 269.034, 124.261 175.882, 249.093 0.428 M-0.429 347.101 C68.953 256.526, 137.985 160.897, 249.851 -0.213 M0.308 354.348 C80.914 262.084, 154.134 159.176, 255.655 0.278 M-0.316 353.98 C72.847 250.059, 157.318 131.913, 254.899 -0.509 M-0.462 360.672 C76.201 252.873, 141.955 160.521, 259.159 -0.222 M-0.583 359.418 C108.264 233.496, 198.224 108.574, 258.48 -0.198 M0.279 366.758 C72.364 278.632, 129.877 197.894, 263.442 -1.014 M0.01 365.532 C61.907 275.065, 119.54 195.406, 263.587 -0.606 M0.79 370.831 C77.406 243.026, 174.082 106.334, 266.506 -0.229 M0.477 371.473 C90.529 240.399, 191.202 100.488, 267.353 -0.198 M-0.143 377.564 C109.394 219.664, 215.056 71.661, 271.456 -0.82 M0.128 377.492 C56.231 276.305, 129.694 174.57, 271.446 0.237 M-0.284 383.934 C113.682 255.4, 202.79 128.436, 275.074 -0.514 M0.218 383.216 C107.344 247.048, 208.248 107.719, 275.968 0.083 M0.844 389.888 C124.623 226.295, 235.639 72.909, 281.264 -0.843 M-0.338 389.019 C77.44 257.253, 170.499 127.59, 280.374 -0.265 M-0.79 395.107 C95.835 240.655, 203.553 90.297, 284.7 0.741 M0.102 395.321 C47.19 317.296, 110.855 229.55, 284.155 0.543 M-0.47 401.886 C78.932 265.361, 171.841 134.704, 289.545 0.204 M-0.223 401.678 C102.193 257.112, 200.152 122.19, 289.468 -0.361 M-0.054 408.074 C104.6 244.31, 217.458 87.576, 292.704 -0.252 M0.138 407.918 C105.113 266.958, 201.037 133.888, 293.203 0.51 M0.124 413.784 C63.842 314.39, 137.223 214.162, 297.261 -0.168 M0.244 412.801 C71.378 297.618, 148.671 190.857, 297.874 0.071 M-0.21 419.25 C88.747 306.911, 176.506 183.59, 301.869 -0.348 M0.201 419.49 C124.148 264.828, 226.361 122.165, 301.366 0.153 M0.874 425.149 C89.864 266.439, 197.634 115.557, 305.891 -0.245 M-0.101 425.147 C114.945 287.369, 219.631 141.938, 306.469 -0.04 M0.44 431.981 C129.599 277.257, 246.525 115.415, 310.644 -1.189 M-0.332 431.548 C84.44 308.897, 177.869 179.777, 310.905 -0.118 M-0.706 437.735 C121.69 293.209, 232.473 140.514, 315.189 0.155 M0.052 437.07 C102.826 274.734, 228.513 100.116, 314.974 0.385 M0.52 443.507 C68.198 313.953, 156.915 191.197, 319.006 0.354 M0.084 443.736 C89.246 279.248, 196.633 130.192, 319.56 -0.024 M0.038 449.571 C104.417 325.464, 190.581 206.1, 324.068 -0.292 M-0.531 449.676 C100.412 323.534, 195.114 191.939, 323.169 0.368 M-0.482 455.029 C123.306 325.488, 222.761 188.008, 327.538 0.115 M-0.421 455.35 C96.966 302.71, 200.323 159.445, 328.05 -0.268 M-0.299 461.29 C115.046 304.753, 219.437 161.836, 332.607 -0.465 M-0.099 460.727 C85.411 336.236, 168.471 221.587, 331.768 0.018 M0.521 466.549 C133.639 301.533, 257.562 129.923, 335.938 0.223 M0.118 467.225 C126.858 271.418, 257.61 89.861, 337.092 -0.071 M-0.63 472.968 C103.295 323.344, 210.172 174.853, 341.316 0.88 M0.21 473.524 C73.287 367.864, 161.866 244.51, 340.635 0.183 M-0.194 478.892 C95.314 335.264, 190.276 202.684, 344.676 -0.562 M0.191 479.218 C111.93 332.866, 222.963 177.87, 345.384 -0.261 M0.49 484.92 C117.631 356.257, 218.225 216.247, 348.605 0.162 M0.26 485.393 C64.264 375.119, 143.447 266.415, 349.575 0.113 M-0.281 491.397 C137.791 332.177, 264.611 157.16, 353.83 -0.922 M-0.556 491.467 C59.176 396.529, 131.946 296.016, 353.949 0.148 M-0.009 497.978 C58.379 385.463, 135.79 277.33, 357.737 0.791 M0.004 497.644 C114.073 307.179, 251.744 115.768, 357.886 0.516 M0.305 502.403 C104.437 363.544, 197.082 235.124, 362.335 0.112 M0.429 502.614 C91.436 384.38, 174.37 269.26, 362.226 -0.358 M0.305 509.196 C159.046 294.6, 305.564 92.351, 366.018 -0.545 M0.4 508.946 C106.533 392.794, 201.912 260.087, 366.898 -0.018 M-0.533 515.564 C120.317 380.454, 220.408 241.969, 370.862 0.146 M0.134 515.029 C123.428 358.864, 232.725 207.135, 371.495 -0.215 M-0.568 520.868 C120.619 365.64, 221.566 225.332, 375.448 0.546 M0.157 520.981 C101.978 385.881, 205.847 241.834, 374.912 0.331 M0.133 527.787 C122.815 404.051, 225.278 262.525, 379.604 0.02 M-0.071 527.259 C111.911 337.201, 244.533 152.114, 379.762 0.256 M-0.788 532.693 C142.714 340.142, 275.032 155.805, 383.158 1.02 M0.036 533.455 C55.64 411.944, 133.527 304.178, 383.69 0.298 M-0.296 539.411 C104.638 360.051, 223.705 195.181, 389.02 -0.023 M-0.463 539.556 C90.945 399.882, 196.83 253.22, 388.202 -0.075 M0.375 544.77 C140.746 366.229, 256.988 205.758, 392.459 0.904 M0.144 544.506 C98.352 434.776, 189.007 308.827, 392.361 0.359 M0.422 551.725 C126.735 389.981, 247.733 219.694, 396.252 0.639 M0.409 551.019 C111.382 409.509, 213.488 266.915, 396.613 0.315 M0.678 557.264 C142.577 393.705, 269.922 218.479, 401.136 1.058 M0.389 557.258 C156.928 323.305, 314.394 104.605, 400.658 0.412 M0.649 562.691 C155.069 361.191, 311.433 145.267, 405.04 -0.04 M-0.017 563.531 C165.216 330.249, 318.951 117.122, 405.535 0.35 M0.139 569.803 C98.763 428.188, 205.053 279.24, 408.901 0.703 M-0.166 569.444 C90.186 438.278, 189.412 299.518, 409.232 0.061 M-0.914 575.074 C112.978 469.157, 199.783 347.664, 413.434 -0.68 M-0.26 575.364 C118.785 359.898, 259.928 163.405, 414.295 -0.374 M0.436 580.784 C151.538 354.449, 309.211 135.566, 418.111 -0.948 M-0.286 581.606 C143.356 411.909, 267.936 239.572, 418.571 -0.412 M0.461 586.193 C186.211 361.636, 348.805 136.28, 422.793 0.627 M0.304 586.45 C81.715 440.488, 191.423 288.069, 423.058 0.348 M0.571 592.638 C108.537 465.399, 194.911 345.032, 428.092 0.443 M0.542 592.885 C130.057 446.635, 243.526 289.887, 427.128 -0.608 M0.492 598.361 C137.912 388.182, 280.531 192.073, 430.953 0.293 M0.476 598.985 C122.767 422.775, 263.558 226.989, 430.984 0.058 M1.963 601.941 C151.663 412.421, 291.595 218.701, 436.062 0.073 M2.46 601.483 C135.002 364.798, 293.848 143.991, 436.172 -0.397 M6.497 602.05 C93.011 474.647, 186.684 341.858, 440.387 0.603 M6.633 601.304 C178.779 391.055, 333.474 176.085, 440.249 0.476 M11.089 602.555 C129.099 471.233, 226.354 335.012, 445.193 -0.62 M11.259 601.632 C187.692 395.852, 349.235 171.716, 444.657 -0.088 M14.988 601.462 C133.315 414.49, 276.87 214.491, 449.011 0.464 M15.444 601.863 C144.839 364.531, 304.704 142.297, 448.306 0.44 M19.924 602.523 C151.816 388.802, 297.764 187.372, 453.388 -0.054 M19.697 601.832 C133.774 440.992, 244.861 287.031, 453.099 0.014 M23.816 602.161 C161.113 370.82, 323.245 144.343, 456.737 0.002 M23.892 601.654 C120.476 494.516, 207.725 372.155, 456.783 -0.05 M28.68 601.436 C199.287 358.479, 371.568 117.752, 461.082 0.091 M28.359 602.151 C131.243 453.953, 249.924 290.176, 461.388 0.082 M32.87 601.129 C154.316 443.159, 257.033 299.825, 465.524 -0.544 M32.442 601.793 C175.061 381.742, 321.197 177.461, 465.699 0.219 M36.518 602.477 C207.764 378.078, 381.408 137.29, 470.133 0.204 M36.813 602.19 C120.973 468.43, 208.103 348.431, 470.679 -0.392 M41.276 602.218 C162.707 448.923, 260.265 314.876, 474.372 -0.316 M41.428 601.488 C143.575 403.319, 272.902 223.118, 473.995 0.387 M44.787 602.649 C221.355 391.185, 378.78 173.126, 478.242 -0.027 M45.244 601.993 C147.548 397.867, 280.192 213.991, 478.587 -0.056 M49.537 601.031 C189.918 410.304, 311.595 241.092, 483.008 0.146 M50.36 601.564 C207.056 363.379, 373.616 132.789, 483.033 0.545 M53.907 601.733 C211.231 393.356, 353.424 196.793, 487.75 -0.71 M53.801 602.008 C191.822 446.175, 312.819 278.495, 487.634 -0.369 M59.253 602.357 C229.636 394.613, 373.667 194.202, 492.377 0.947 M58.504 601.962 C179.899 460.543, 286.77 311.076, 491.326 0.01 M63 601.616 C197.019 425.947, 315.68 260.659, 495.504 0.18 M62.385 602.308 C174.169 442.72, 272.536 305.988, 496.03 0.056 M67.108 601.31 C188.69 453.25, 302.074 298.575, 499.92 1.038 M66.931 601.976 C162.107 433.392, 268.806 284.582, 500.064 0.139 M70.871 601.515 C196.231 424.22, 325.634 244.672, 505.468 0.131 M71.059 601.874 C198.165 403.158, 326.525 225.073, 504.839 0.154 M75.513 601.295 C192.066 464.09, 283.771 335.291, 508.567 1.064 M75.718 601.537 C199.033 450.027, 318.93 283.611, 508.688 0.337 M80.092 601.368 C185.467 419.177, 322.179 229.808, 513.975 0.405 M79.871 602.183 C200.345 436.935, 333.363 251.912, 513.767 0.139 M84.718 601.349 C176.112 438.957, 292.707 275.664, 517.914 0.234 M84.124 601.42 C229.859 409.818, 351.996 239.965, 518.372 -0.117 M89.398 601.969 C202.198 399.441, 334.653 216.181, 521.86 -0.441 M89.176 601.096 C154.876 500.832, 243.45 378.108, 521.593 0.301 M93.321 601.783 C204.068 477.304, 291.951 355.347, 526.442 0.347 M92.864 601.444 C266.924 390.138, 412.245 189.598, 526.95 -0.635 M98.18 601.601 C226.595 394.869, 385.308 175.599, 530.44 0.032 M97.987 601 C228.307 449.76, 331.667 306.071, 530.612 -0.205 M101.702 601.196 C203.34 463.867, 295.24 336.689, 535.337 0.456 M101.803 601.545 C238.986 383.297, 383.05 184.128, 535.559 -0.325 M106.616 601.235 C271.654 382.916, 414.573 184.761, 539.533 0.167 M105.832 601.227 C257.883 417.419, 393.649 228.798, 538.937 0.262 M110.576 601.103 C292.628 402.01, 451.75 182.004, 543.848 -0.329 M110.305 601.664 C287.677 386.37, 452.943 157.114, 543.927 -0.333 M114.301 601.433 C258.553 416.137, 377.316 251.385, 547.441 0.268 M114.61 601.684 C225.33 500.115, 314.192 376.833, 547.65 0.48 M119.051 602.666 C261.825 379.038, 416.906 162.8, 552.935 -0.06 M118.434 602.266 C217.41 468.916, 308.334 342.819, 552.238 -0.281 M122.957 601.297 C203.623 453.289, 303.373 314.754, 556.962 -0.241 M123.513 601.805 C240.528 480.858, 335.655 348.219, 556.624 0.007 M127.787 601.388 C253.873 423.631, 387.913 237.316, 560.259 -0.217 M127.037 602.145 C256.716 399.694, 391.565 212.591, 560.89 -0.507 M132.077 602.224 C234.247 447.121, 350.831 286.528, 565.61 0.549 M132.383 601.475 C299.249 403.606, 437.133 211.506, 565.387 -0.14 M135.844 601.511 C295.027 372.475, 465.292 136.273, 570.239 0.062 M135.849 601.865 C246 451.428, 361.856 291.1, 569.358 0.015 M141.08 601.382 C285.935 391.314, 431.43 190.923, 573.83 0.274 M140.668 601.18 C321.164 376.829, 483.88 150.095, 573.272 0.476 M144.676 601.533 C319.426 342.25, 491.199 104.168, 577.535 0.391 M144.997 602.134 C291.709 429.689, 417.42 254.598, 578.317 0.055 M149.661 601.922 C288.242 371.79, 452.919 141.901, 581.987 -0.52 M149.278 601.679 C255.329 463.181, 367.708 307.764, 582.415 0.363 M153.995 602.339 C275.669 448.823, 383.113 298.899, 586.791 0.252 M153.596 602.142 C242.014 463.493, 347.424 317.146, 586.963 -0.118 M158.344 601.775 C313.017 402.897, 454.442 206.518, 590.546 -0.212 M157.583 601.901 C266.167 461.282, 375.737 309.622, 590.61 0.517 M161.242 601.88 C267.437 407.844, 402.213 221.461, 595.477 0.407 M161.598 601.727 C284.667 419.902, 413.97 240.517, 595.693 -0.495 M166.868 601.034 C325.301 378.341, 472.25 176.442, 599.171 1.031 M166.349 601.311 C274.238 435.235, 392.148 271.895, 599.072 -0.029 M170.163 601.598 C306.986 462.614, 415.293 311.411, 604.623 -0.726 M170.345 602.03 C294.594 465.102, 397.643 322.533, 603.669 0.069 M175.048 601.223 C275.335 478.325, 379.423 334.166, 608.217 0.571 M174.74 601.961 C292.615 390.891, 430.395 199.749, 607.75 0.534 M178.345 602.41 C258.478 470.34, 368.985 317.461, 613.346 0.379 M178.751 602.405 C341.788 350.469, 508.515 119.669, 612.431 0.355 M182.856 601.008 C340.413 406.011, 478.684 212.199, 616.356 0.843 M183.996 601.48 C296.864 478.481, 400.736 334.206, 616.738 0.172 M187.909 602.901 C361.179 371.199, 528.244 140.912, 621.59 -0.389 M187.353 601.875 C317.423 399.796, 449.05 216.369, 620.934 0.327 M192.179 601.845 C327.743 434.242, 456.376 255.579, 626.149 0.102 M192.462 601.925 C321.819 475.759, 423.321 334.693, 625.634 -0.035 M196.193 601.219 C292.725 479.301, 383.245 355.55, 630.442 0.34 M196.651 601.202 C311.58 447.559, 435.764 275.605, 629.813 0.216 M200.878 601.268 C340.632 395.673, 487.337 193.72, 634.518 -0.429 M201.101 601.858 C293.799 468.285, 384.877 341.843, 634.435 -0.592 M205.119 601.305 C291.404 458.681, 406.099 297.776, 637.741 0.749 M205.638 601.464 C322.625 463.897, 426.864 320.547, 638.069 -0.223 M210.146 601.956 C326.736 449.838, 435.801 297.183, 643.633 -0.08 M209.79 601.961 C364.617 378.473, 532.481 143.968, 643.149 -0.174 M214.683 600.825 C304.164 457.291, 422.063 291.976, 647.148 0.387 M214.325 601.22 C359.494 394.02, 504.79 191.961, 647.018 0.022 M218.81 602.019 C362.982 398.897, 524.654 172.592, 650.88 -0.907 M217.761 601.546 C313.69 484.911, 412.083 348.905, 651.933 -0.06 M223.043 600.948 C405.853 361.229, 572.919 128.927, 656.063 -0.039 M222.284 601.659 C349.095 440.99, 454.264 294.277, 655.275 0.061 M226.1 601.354 C402.828 404.83, 551.886 198.523, 660.051 -0.049 M226.554 601.822 C343.95 411.483, 490.689 207.14, 660.268 -0.329 M231.875 601.853 C393.291 401.784, 530.389 211.348, 664.253 0.209 M231.147 601.345 C380.351 436.48, 503.861 264.907, 664.095 0.258 M234.465 601.443 C384.566 396.984, 532.569 191.576, 668.522 -0.959 M235.633 601.793 C395.361 395.005, 553.489 175.139, 669.029 -0.197 M240.358 601.268 C313.499 476.826, 404.509 347.909, 673.527 0.787 M239.718 601.935 C356.617 462.776, 469.181 307.096, 673.166 0.366 M243.249 602.627 C384.731 374.34, 553.011 140.214, 676.897 -0.172 M244.101 602.26 C363.508 432.691, 492.526 253.603, 677.591 -0.515 M247.754 601.536 C399.633 400.526, 538.945 207.136, 682.189 -0.147 M248.251 601.286 C331.009 434.849, 439.205 284.98, 681.62 0.37 M253.232 601.647 C416.528 376.587, 585.01 141.374, 685.707 0.404 M252.772 602.327 C400.285 419.404, 533.123 234.314, 686.322 -0.211 M257.3 601.627 C374.553 427.04, 498.552 254.535, 689.441 -0.522 M257.437 601.785 C389.221 406.502, 545.317 189.639, 690.162 0.102 M261.776 602.517 C335.264 475.191, 426.889 347.765, 694.813 0.6 M261.306 602.245 C349.702 499.846, 439.092 375.485, 694.588 -0.307 M265.012 602.229 C442.328 400.712, 597.036 186.805, 698.113 -0.184 M265.399 601.27 C407.996 365.209, 580.342 125.856, 698.769 0.522 M269.258 602.029 C421.466 416.867, 568.705 213.694, 702.706 -0.353 M270.006 601.771 C394.782 400.462, 534.641 207.204, 703.172 0.247 M274.317 601.073 C397.4 422.436, 512.37 264.193, 706.858 -0.365 M274.475 601.89 C422.464 368.861, 580.897 148.762, 707.248 0.682 M277.979 601.535 C421.232 359.935, 579.312 141.609, 712.526 -0.249 M277.904 602.062 C456.283 365.219, 625.214 130.499, 711.614 0.32 M283.326 601.3 C403.55 419.689, 526.296 250.698, 716.475 1.095 M282.799 601.522 C419.533 443.994, 531.13 289.345, 715.733 0.082 M286.6 602.093 C442.897 434.373, 580.157 243.788, 720.569 -0.169 M287.007 601.926 C426.489 428.997, 548.93 258.67, 720.348 0.031 M290.843 601.838 C461.371 392.891, 617.5 175.841, 724.923 0.059 M291.095 601.406 C385.491 446.509, 482.075 312.916, 725.438 -0.286 M296.228 600.982 C430.13 383.933, 573.242 184.623, 729.4 0.664 M295.874 601.515 C394.011 440.073, 514.815 272.856, 728.741 -0.015 M300.275 601.254 C389.819 459.07, 496.612 311.59, 733.286 -0.498 M299.688 602.174 C432.286 456.129, 534.074 315.641, 733.468 -0.214 M304.219 600.817 C427.541 383.804, 572.443 181.843, 737.572 -0.251 M304.471 601.196 C420.996 464.679, 533.067 309.379, 737.346 -0.037 M308.756 601.722 C428.326 393.431, 565.206 204.02, 742.666 0.167 M308.614 601.709 C435.922 414.45, 584.73 207.644, 742.175 -0.717 M313.029 600.691 C475.601 385.788, 627.354 174.416, 745.619 0.691 M313.325 601.787 C495.286 378.335, 653.698 157.003, 745.94 0 M317.107 601.785 C494.033 350.057, 664.828 112.649, 751.627 -0.232 M317.568 601.848 C488.766 392.814, 634.036 190.263, 750.966 0.084 M321.786 600.915 C457.833 436.609, 566.973 285.536, 754.797 -0.391 M321.544 601.49 C506.643 369.72, 664.071 151.163, 755.083 0.013 M326.474 601.193 C445.589 442.302, 559.238 284.042, 758.766 -1.002 M325.585 602.203 C441.2 435.964, 561.042 269.053, 759.468 -0.028 M329.858 600.854 C421.356 489.18, 514.898 358.792, 762.916 -0.205 M330.572 601.114 C434.693 474.848, 531.972 340.167, 763.56 0.203 M334.582 602.141 C417.095 448.754, 514.255 313.204, 768.856 -0.663 M334.808 602.229 C407.151 454.941, 500.402 325.549, 767.934 0.083 M338.558 601.054 C451.315 456.445, 562.122 300.924, 771.473 0.337 M338.838 601.701 C468.699 383.949, 626.564 164.922, 771.882 0.567 M343.881 602.514 C503.142 421.566, 633.426 240.634, 776.102 -0.548 M343.4 602.046 C448.473 459.747, 544.343 326.799, 776.781 -0.503 M348.434 601.285 C466.932 468.591, 566.009 332.049, 780.882 0.73 M347.771 601.163 C509.287 382.795, 654.504 180.166, 780.361 0.102 M351.707 602.48 C498.681 410.05, 624.324 234.778, 784.9 -0.886 M351.814 601.932 C489.814 365.457, 647.979 145.917, 785.559 -0.387 M355.795 602.177 C477.031 453.417, 573.059 319.029, 788.766 0.326 M356.624 601.237 C457.299 481.285, 557.774 342.395, 789.136 0.513 M360.371 601.64 C475.137 439.412, 596.353 271.371, 793.777 0.255 M360.476 601.906 C476.986 443.678, 597.071 276.225, 793.525 -0.058 M364.143 601.788 C537.897 376.013, 701.611 149.645, 797.333 0.569 M365.17 601.884 C519.427 407.608, 662.095 209.627, 797.582 0.617 M369.102 601.889 C461.508 450.509, 578.632 287.911, 802.93 0.314 M369.174 601.708 C545.765 358.86, 713.797 125.642, 802.812 -0.477 M373.888 601.54 C533.679 376.052, 706.362 136.109, 806.565 0.606 M373.337 601.901 C561.285 358.314, 730.473 124.449, 806.672 0.481 M377.165 602.784 C519.356 348.185, 687.787 113.937, 811.265 -0.612 M377.343 601.756 C514.911 424.352, 653.812 232.292, 811.113 -0.032 M382.739 601.235 C551.498 384.692, 696.229 183.724, 815.406 0.154 M382.169 601.727 C525.806 435.962, 643.307 272.249, 815.063 0.589 M385.366 601.475 C485.202 467.242, 596.815 312.283, 819.75 0.083 M386.101 602.15 C515.321 456.868, 616.076 316.857, 819.714 0.315 M391.446 601.076 C555.697 404.495, 690.78 217.918, 823.734 1.068 M390.609 601.526 C481.014 442.139, 594.121 285.117, 823.592 0.726 M395.278 601.633 C532.729 414.865, 665.494 230.757, 828.149 0.264 M394.619 602.402 C528.427 458.396, 630.29 315.731, 828.529 0.025 M399.995 601.935 C515.977 440.185, 627.221 286.93, 833.392 -0.925 M399.64 601.668 C537.075 394.02, 686.368 186.025, 833.287 -0.295 M404.459 602.094 C512.353 430.924, 645.448 244.438, 836.272 -0.372 M404.264 601.653 C546.565 445.727, 661.994 285.451, 836.915 0.244 M408.637 601.965 C516.066 490.769, 603.071 369.304, 842.292 -1.059 M407.654 601.963 C528.754 413.472, 650.779 244.153, 841.164 -0.187 M412.373 601.06 C600.816 378.419, 765.091 151.105, 845.812 0.405 M412.56 601.424 C522.801 462.899, 611.86 340.433, 845.854 -0.235 M416.388 601.597 C490.315 467.611, 584.05 339.109, 849.518 0.393 M416.522 602.226 C593.711 398.303, 744.364 189, 850.222 -0.434 M420.355 601.991 C557.753 402.562, 692.209 216.621, 853.491 -0.479 M421.023 601.627 C594.544 365.3, 755.69 141.282, 854.261 0.201 M425.787 602.001 C523.887 406.681, 655.22 225.224, 857.991 -0.619 M425.339 601.62 C538.701 400.18, 672.426 214.333, 858.76 -0.611 M429.052 601.339 C566.887 430.022, 698.543 248.842, 862.842 0.833 M429.957 601.508 C571.248 359.546, 743.123 122.04, 862.332 0.126 M433.632 602.115 C607.45 384.951, 771.751 156.602, 867.8 -0.603 M434.085 601.526 C505.675 495.373, 595.261 370.028, 866.99 0.135 M439.112 601.092 C512.993 451.545, 612.379 314.707, 870.788 0.591 M438.352 601.614 C577.588 452.882, 687.228 300.162, 871.46 0.368 M441.732 601.695 C617.127 368.684, 771.3 156.539, 875.906 0.112 M442.586 601.979 C610.636 394.457, 754.182 195.271, 875.906 -0.416 M446.808 601.863 C539.948 471.457, 645.772 326.262, 879.869 0.475 M447.271 601.79 C572.428 436.647, 689.443 273.767, 879.846 0.149 M450.533 602.711 C574.413 485.461, 668.779 355.945, 884.942 -0.131 M451.019 601.703 C587.747 391.47, 725.649 198.879, 884.126 -0.086 M454.847 601.451 C551.763 488.301, 649.368 354.05, 888.947 0.224 M455.717 601.417 C551.297 438.622, 662.824 284.172, 888.287 0.109 M459.273 601.562 C563.556 472.217, 672.179 322.146, 892.367 0.24 M459.317 602.102 C610.938 407.44, 742.347 225.246, 893.419 -0.348 M463.458 602.285 C581.516 438.203, 711.201 257.02, 897.344 -0.288 M464.377 601.497 C582.148 417.026, 719.491 225.917, 897.066 0.015 M467.433 602.646 C596.689 411.121, 747.885 199.564, 901.534 1.303 M468.501 602.348 C618.895 397.831, 779.288 175.737, 901.276 0.602 M472.619 602.093 C612.352 415.722, 759.812 210.944, 901.794 7.056 M472.914 602.013 C592.131 406.896, 725.039 223.093, 901.118 6.914 M477.243 601.31 C601.593 404.133, 730.906 224.421, 900.817 12.464 M477.016 602.154 C607.037 442.811, 711.387 298.068, 901.301 12.599 M481.307 601.468 C593.081 464.741, 695.297 322.404, 900.12 18.661 M481.668 601.984 C561.255 480.838, 647.014 361.65, 900.885 19.107 M486.136 602.313 C618.496 447.823, 723.128 302.896, 900.637 25.143 M485.053 602.443 C601.746 455.081, 698.157 321.274, 900.606 25.182 M490.298 601.931 C620.686 442.315, 739.324 278.694, 901.01 29.876 M489.877 601.462 C653.116 395.057, 803.67 186.715, 901.148 30.563 M494.231 602.364 C625.185 434.663, 741.949 272.121, 901.286 36.537 M493.668 602.054 C649.404 383.94, 807.47 163.434, 901.599 36.199 M498.825 601.016 C589.768 450.553, 686.051 318.044, 901.81 42.181 M498.632 601.864 C648.098 435.033, 769.331 265.868, 901.558 42.275 M502.781 601.61 C616.911 420.609, 738.223 251.979, 900.844 49.052 M503.17 601.154 C587.548 465.316, 672.88 346.597, 901.241 48.96 M507.144 601.971 C641.549 400.418, 781.626 205.084, 901.102 54.666 M507.192 601.862 C615.488 415.095, 751.993 225.784, 901.002 54.55 M512.154 601.25 C642.286 452.738, 765.314 283.51, 901.55 60.455 M511.617 601.259 C637.734 408.428, 774.417 218.495, 900.617 60.903 M515.661 601.422 C655.282 434.765, 787.389 249.693, 900.338 67.305 M515.972 601.753 C623.295 463.709, 733.186 311.257, 900.919 67.282 M520.289 600.772 C615.783 455.549, 715.589 315.322, 901.35 71.54 M520.336 601.436 C632.166 451.303, 743.304 297.185, 900.996 72.673 M524.157 601.512 C627.902 403.364, 756.753 223.705, 901.177 78.944 M524.467 602.164 C645.204 453.427, 758.051 297.267, 901.262 78.391 M528.661 601.337 C619.471 432.474, 732.187 276.181, 901.031 84.347 M529.251 601.367 C668.644 393.773, 809.028 198.792, 901.463 84.189 M532.929 601.378 C665.124 417.451, 795.278 236.644, 900.318 89.939 M533.065 601.791 C693.955 408.722, 828.897 221.423, 901.465 90.631 M536.863 601.86 C602.269 476.183, 681.934 365.013, 901.603 96.334 M537.304 601.41 C630.714 443.384, 745.881 282.766, 901.364 96.862 M541.151 601.287 C620.082 477.372, 708.952 353.236, 901.192 102.153 M541.481 602.134 C671.346 420.852, 794.266 248.973, 900.963 103.191 M546.849 601.655 C686.276 429.847, 820.001 245.562, 901.101 108.657 M545.889 601.5 C669.525 455.259, 774.971 309.099, 900.987 109.295 M550.923 601.408 C656.305 444.024, 758.856 303.082, 900.925 114.67 M550.311 602.152 C633.044 519.036, 705.012 418.689, 901.417 113.88 M554.313 601.712 C646.909 459.187, 747.669 318.748, 900.743 120.024 M554.903 601.321 C643.874 443.908, 753.691 291.553, 901.633 119.968 M559.138 601.325 C675.59 428.666, 810.688 240.559, 901.476 126.557 M558.684 601.712 C640.985 492.484, 720.958 381.717, 901.078 126.358 M563.635 602.171 C699.873 415.794, 824.911 241.235, 901.597 133.206 M563.457 601.952 C632.875 513.79, 707.636 410.006, 901.415 132.611 M567.976 602.355 C658.998 499.095, 744.074 382.179, 901.352 138.962 M567.305 601.718 C709.602 439.844, 831.314 271.24, 901.016 138.623 M571.396 601.161 C664.508 457.191, 760.788 324.646, 900.941 143.974 M572.289 601.695 C702.776 437.885, 817.715 277.807, 900.703 145.049 M575.396 602.731 C688.485 447.981, 802.74 289.298, 900.794 150.927 M575.947 601.663 C683.966 473.202, 785.996 331.145, 900.633 150.715 M580.079 601.872 C663.346 520.938, 730.946 427.487, 900.187 156.5 M580.673 601.827 C687.147 449.861, 795.933 298.839, 900.934 157.082 M584.756 602.211 C661.348 459.884, 754.27 329.738, 901.36 161.927 M584.32 601.699 C661.719 526.122, 727.045 436.053, 901.086 162.351 M589.231 601.695 C701.678 460.216, 793.622 333.043, 901.479 167.716 M588.828 602.016 C690.972 466.56, 780.804 341.418, 901.07 168.404 M592.416 602.511 C697.517 456.177, 808.979 301.311, 901.93 173.964 M593.296 602.494 C686.316 456.178, 789.22 313.306, 900.973 174.643 M598.093 601.92 C641.034 522.849, 705.603 432.44, 900.978 180.232 M597.585 601.786 C717.559 437.107, 828.467 283.73, 900.783 180.66 M601.792 601.934 C698.747 454.976, 796.893 320.7, 900.248 187.363 M602.066 602.47 C719.618 435.497, 837.856 271.132, 900.918 187.041 M606.676 602.519 C676.137 475.597, 761.042 357.88, 901.417 193.034 M606.488 601.725 C695.498 490.96, 778.349 376.218, 900.523 192.778 M611.293 600.825 C724.111 446.376, 839.212 287.795, 901.575 199.562 M611.065 601.352 C710.49 497.829, 794.706 381.647, 900.541 199.202 M615.054 601.859 C727.668 483.079, 821.452 353.081, 901.142 204.607 M614.709 601.543 C740.675 455.708, 848.11 306.733, 901.425 204.026 M619.021 601.595 C683.265 498.624, 763.488 386.273, 901.927 209.747 M619.808 601.803 C711.21 485.582, 794.502 370.243, 901.487 210.662 M622.76 602.363 C686.521 530.727, 744.187 450.643, 901.93 216.482 M623.75 601.905 C699.635 466.466, 786.44 346.394, 900.917 216.797 M628.439 601.93 C703.195 476.544, 784.628 364.696, 900.472 223.215 M628.542 601.826 C679.32 515.077, 737.458 434.08, 900.932 222.852 M633.08 602.667 C713.396 476.031, 796.855 360.108, 901.703 228.022 M632.368 601.603 C703.908 485.534, 794.121 360.457, 901.042 228.3 M635.925 601.967 C723.349 458.72, 816.01 329.002, 901.45 234.236 M637.024 601.215 C751.838 454.201, 855.252 310.423, 900.652 234.317 M640.995 601.356 C707.659 501.935, 780.797 401.628, 899.859 239.854 M640.682 601.957 C745.362 468.569, 845.125 329.189, 900.774 241.027 M645.844 600.847 C687.754 529.385, 752.267 440.538, 900.563 246.014 M645.467 601.111 C697.711 516.037, 753.098 438.518, 901.779 245.767 M648.821 602.529 C763.426 478.03, 858.542 344.725, 900.971 251.917 M649.884 602.391 C737.208 486.085, 819.049 372.806, 901.564 252.363 M653.654 601.531 C710.994 532.554, 769.326 449.839, 901.813 258.451 M654.204 601.025 C685.785 534.305, 736.988 462.959, 901.129 257.937 M657.994 601.937 C706.769 539.63, 758.893 467.716, 901.322 263.716 M657.832 602.294 C733.189 520.178, 802.417 423.779, 900.659 264.427 M662.008 602.331 C711.569 518.34, 777.462 428.179, 901.702 269.94 M663.146 601.649 C725.25 521.891, 784.757 440.055, 901.247 270.221 M667.35 602.735 C704.72 531.075, 753.427 465.44, 901.771 276.893 M666.783 601.58 C752.438 494.345, 822.749 396.385, 901.16 276.338 M671.865 602.67 C774.343 474.568, 858.929 355.462, 900.82 283.384 M671.215 602.133 C745.904 476.854, 836.399 352.799, 900.501 282.363 M674.449 601.621 C727.534 524.761, 781.613 447.46, 900.636 288.416 M675.097 601.737 C715.558 524.786, 771.567 448.662, 901.47 287.405 M680.296 600.825 C722.027 503.094, 779.637 421.006, 900.156 293.764 M679.323 601.192 C735.233 531.766, 784.219 464.814, 901.662 293.628 M684.089 602.74 C743.183 496.349, 815.022 396.592, 901.952 300.544 M683.263 601.581 C760.719 495.348, 835.359 390.673, 901.079 299.645 M687.341 601.793 C747.841 519.025, 795.44 451.835, 900.742 307.504 M688.291 602.055 C722.221 532.764, 767.283 471.905, 900.653 306.033 M692.906 602.981 C727.039 543.635, 778.779 474.295, 901.206 311.378 M692.083 602.572 C716.662 558.341, 759.564 498.554, 901.018 311.934 M696.723 600.611 C757.878 544.403, 801.839 481.731, 901.192 317.755 M696.451 601.573 C717.647 554.58, 758.728 497.467, 900.377 318.369 M701.654 603.188 C798.184 496.609, 874.198 390.793, 901.587 323.757 M701.068 602.055 C743.088 535.628, 803.993 451.146, 900.967 324.405 M704.425 600.619 C761.313 518.837, 813.665 447.102, 901.494 330.151 M706.132 601.604 C751.507 512.45, 804.793 438.317, 901.132 330.718 M710.484 600.168 C775.025 508.206, 837.515 422.707, 900.549 335.449 M710.048 601.827 C782.658 488.844, 852.274 390.857, 900.696 336.614 M714.546 602.206 C748.899 539.939, 799.427 469.556, 901.558 340.969 M714.454 601.619 C753.352 537.921, 802.598 469.333, 901.65 342.721 M717.797 600.322 C773.332 526.68, 835.194 445.238, 900.838 349.057 M718.134 601.758 C749.25 536.051, 800.14 466.659, 900.534 348.829 M723.548 603.067 C792.258 500.194, 856.977 413.493, 901.914 353.871 M723.462 602.215 C755.723 545.113, 807.767 471.272, 900.944 354.48 M727.817 600.565 C749.584 557.549, 794.09 495.951, 902.086 361.314 M727.786 601.416 C795.197 526.979, 848.018 456.779, 900.263 360.228 M731.012 602.066 C811.867 499.636, 876.072 412.632, 899.463 365.056 M730.758 601.557 C790.217 506.292, 848.626 424.544, 900.548 366.891 M737.142 600.048 C776.857 534.245, 824.669 464.702, 900.104 372.601 M736.285 601.926 C790.888 526.273, 856.489 436.01, 900.602 373.084 M740.677 600.399 C782.371 544.1, 828.7 478.85, 900.26 378.904 M740.805 602.024 C814.581 507.58, 874.707 423.377, 901.904 378.359 M743.189 602.919 C809.727 515.292, 870.317 428.602, 901.711 385.543 M744.889 601.25 C789.318 539.443, 824.461 490.528, 900.777 384.558 M750.034 602.519 C791.375 538.469, 830.578 484.465, 900.072 388.837 M748.187 602.204 C783.823 573.309, 814.964 529.334, 900.573 389.853 M754.669 600.819 C799.647 538.422, 853.013 464.467, 899.64 394.948 M753.986 601.957 C821.957 527.901, 878.854 447.897, 901.559 396.09 M757.89 603.15 C822.875 524.421, 872.993 456.207, 900.406 403.52 M757.518 601.591 C784.538 555.559, 813.164 514.492, 901.748 402.663 M760.614 602.883 C805.455 527.143, 852.834 460.048, 901.634 407.373 M762.507 601.709 C802.658 555.147, 831.785 513.594, 900.567 408.71 M764.423 603.091 C805.338 572.209, 838.53 530.113, 900.864 412.994 M766.667 602.655 C827.215 526.808, 881.341 453.079, 900.681 413.838 M770.017 602.992 C838.19 548.318, 883.498 481.042, 900.175 420.534 M771.071 602.409 C820.664 541.676, 858.581 490.076, 902.204 419.006 M773.371 602.471 C807.707 533.799, 854.03 465.872, 900.201 424.326 M774.533 601.642 C809.841 537.06, 853.396 478.157, 901.997 426.618 M777.449 603.135 C832.795 523.374, 880.339 457.863, 901.737 433.686 M779.347 602.369 C831.292 546.642, 864.471 498.473, 900.359 432.029 M782.979 601.563 C815.891 532.928, 859.618 473.634, 900.941 437.64 M782.642 602.894 C824.125 571.532, 854.979 527.687, 901.044 437.481 M785.95 601.548 C825.822 561.208, 853.751 522.169, 899.502 442.47 M788.141 600.839 C806.584 535.55, 843.071 482.93, 902.01 443.472 M792.203 602.5 C835.713 548.878, 876.776 489.407, 899.786 451.163 M792.525 601.579 C846.458 554.474, 888.554 494.942, 901.76 449.859 M795.583 603.541 C832.84 543.58, 869.853 492.57, 898.975 456.27 M795.663 601.962 C850.693 547.232, 886.795 498.057, 900.295 456.478 M800.49 603.827 C825.92 573.575, 851.479 538.351, 902.253 461.072 M800.566 602.286 C848.321 537.779, 888.094 481.795, 901.712 461.872 M806.227 599.884 C825.067 566.759, 851.81 531.76, 902.214 467.712 M805.01 602.587 C814.119 564.574, 834.464 537.829, 901.172 468.145 M808.795 601.307 C816.324 573.226, 841.307 538.39, 899.999 475.9 M809.147 601.385 C828.556 561.484, 858.238 518.636, 901.26 473.953 M811.719 600.553 C830.618 568.355, 855.977 531.753, 900.793 481.761 M813.111 600.811 C834.898 566.017, 865.502 524.627, 902.046 479.83 M819.929 599.498 C848.717 560.603, 882.296 512.75, 901.941 484.405 M818.383 601.313 C850.422 575.424, 873.455 543.381, 901.359 486.204 M822.441 601.468 C834.761 567.26, 857.679 537.868, 901.934 491.39 M822.867 601.512 C836.663 558.548, 864.964 520.96, 900.797 493.02 M828.215 601.313 C856.959 565.666, 886.888 527.098, 902.537 500.239 M826.352 601.509 C841.965 552.991, 871.389 514.697, 901.082 497.671 M832.465 603.555 C838.865 573.246, 854.426 552.314, 900.306 506.4 M830.891 601.674 C834.494 572.15, 850.538 549.961, 901.687 503.642 M836.328 600.203 C852.368 567.303, 870.08 537.675, 902.476 511.207 M834.586 601.621 C851.403 570.357, 877.54 535.011, 902.189 510.186 M841.034 602.594 C850.918 575.311, 866.193 552.218, 902.077 515.14 M838.439 601.011 C857.655 582.534, 877.073 556.873, 902.169 516.749 M845.064 601.995 C856.199 580.707, 872.892 553.396, 900.103 522.519 M844.308 601.144 C868.147 578.905, 884.848 556.746, 900.18 521.608 M849.383 600.234 C850.895 590.1, 864.069 571.007, 899.539 528.208 M848.68 601.426 C863.856 579.329, 879.453 559.23, 900.305 527.613 M851.034 602.445 C876.783 576.818, 891.756 552.63, 900.365 533.167 M853.268 600.596 C874.868 581.375, 893.345 557.931, 901.03 534.58 M856.898 601 C869.556 584.382, 881.934 564.902, 900.621 541.027 M856.536 601.716 C873.377 577.057, 890.05 554.333, 901.404 540.428 M862.348 601.798 C871.6 586.286, 880.917 575.761, 899.982 545.337 M860.548 601.38 C875.767 582.622, 889.542 563.118, 901.364 545.441 M864.871 603.953 C881.398 585.223, 890.075 575.445, 901.251 550.213 M864.183 602.527 C867.218 585.911, 875.085 574.059, 900.944 551.842 M868.393 603.098 C879.544 591.866, 887.922 582.501, 900.198 557.207 M869.744 602.449 C882.358 587.38, 889.854 574.719, 900.963 557.762 M872.568 603.867 C877.393 591.661, 884.19 584.009, 901.336 563.544 M872.704 602.918 C874.898 595.589, 880.054 587.244, 900.46 562.955 M880.088 602.464 C883.754 595.77, 888.734 587.792, 899.13 571.231 M878.874 601.461 C886.05 588.621, 892.892 579.212, 901.418 569.669 M881.972 603.616 C885.509 594.963, 888.049 588.99, 902.073 576.325 M882.041 602.257 C890.301 591.797, 894.231 584.737, 900.736 576.31 M886.51 601.099 C891.662 592.542, 897.118 588.179, 900.704 582.374 M887.335 600.93 C889.882 594.846, 895.159 589.109, 900.136 582.725 M890.941 603.286 C895.744 596.929, 896.762 592.645, 899.313 587.651 M890.296 602.262 C892.52 598.395, 894.531 596.188, 901.04 588.004 M894.668 601.127 C898.283 597.422, 899.833 594.102, 902.329 592.783 M895.005 602.123 C896.974 599.544, 898.692 597.798, 900.911 593.884" stroke="rgb(255, 255, 255)" stroke-width="1.798" fill="none"/><path d="M0.332 0.699 C267.842 -10.04, 536.59 -9.103, 900.184 -0.164 M899.482 0.224 C923.801 135.405, 924.477 270.566, 899.814 599.759 M899.35 599.434 C564.754 645.095, 228.431 645.665, -0.556 600.116 M0.004 600.664 C-22.657 379.014, -22.744 158.975, -0.715 0.627" stroke="rgb(255, 255, 255)" stroke-width="1" fill="none"/></g><g><path d="M521.403 -0.005 C521.403 -0.005, 521.403 -0.005, 521.403 -0.005 M521.403 -0.005 C521.403 -0.005, 521.403 -0.005, 521.403 -0.005 M522.783 4.355 C523.021 2.964, 523.343 2.18, 525.392 0.089 M522.783 4.355 C523.605 3.583, 524.229 2.62, 525.392 0.089 M523.642 9.568 C524.913 8.732, 526.071 5.287, 529.38 0.184 M523.642 9.568 C524.258 5.686, 527.135 2.457, 529.38 0.184 M525.022 13.929 C525.425 9.408, 528.725 8.397, 533.369 0.278 M525.022 13.929 C526.105 9.452, 528.789 4.997, 533.369 0.278 M525.881 19.142 C529.284 14.263, 533.636 8.629, 537.357 0.373 M525.881 19.142 C528.899 11.589, 533.487 4.574, 537.357 0.373 M527.261 23.502 C532.365 18.76, 536.449 11.686, 541.867 -0.386 M527.261 23.502 C529.889 16.888, 532.461 10.787, 541.867 -0.386 M528.119 28.716 C533.843 18.806, 539.782 12.037, 545.856 -0.291 M528.119 28.716 C531.995 21.16, 538.055 11.357, 545.856 -0.291 M529.499 33.076 C531.989 23.121, 538.18 13.817, 549.844 -0.197 M529.499 33.076 C539.947 20.775, 546.144 10.477, 549.844 -0.197 M530.358 38.29 C536.794 24.263, 542.839 14.175, 553.833 -0.102 M530.358 38.29 C540.525 26.995, 547.432 14.393, 553.833 -0.102 M531.738 42.65 C541.918 24.211, 551.668 7.255, 557.821 -0.008 M531.738 42.65 C539.94 32.975, 547.369 20.898, 557.821 -0.008 M532.597 47.863 C540.806 36.84, 547.588 24.273, 561.81 0.087 M532.597 47.863 C540.831 28.411, 552.042 10.294, 561.81 0.087 M533.977 52.224 C537.625 43.676, 545.956 31.388, 565.798 0.181 M533.977 52.224 C548.722 33.64, 558.342 15.718, 565.798 0.181 M534.835 57.437 C541.423 37.43, 548.88 22.311, 569.787 0.276 M534.835 57.437 C545.683 33.912, 558.775 11.589, 569.787 0.276 M536.216 61.797 C552.652 47.943, 560.868 35.232, 573.775 0.37 M536.216 61.797 C542.848 38.457, 555.686 17.461, 573.775 0.37 M537.074 67.011 C560.097 34.182, 577.258 11.482, 578.285 -0.388 M537.074 67.011 C545.395 54.753, 554.02 39.635, 578.285 -0.388 M538.454 71.371 C562.123 47.168, 577.131 19.188, 582.274 -0.294 M538.454 71.371 C558.764 49.646, 568.965 33.478, 582.274 -0.294 M539.313 76.584 C547.304 42.069, 564.801 13.885, 586.262 -0.199 M539.313 76.584 C548.371 49.999, 562.9 28.06, 586.262 -0.199 M540.693 80.945 C567.672 44.058, 583.968 16.299, 590.251 -0.105 M540.693 80.945 C553.852 57.06, 572.85 26.031, 590.251 -0.105 M541.551 86.158 C553.353 51.125, 572.175 18.158, 594.239 -0.01 M541.551 86.158 C550.269 57.643, 570.374 25.41, 594.239 -0.01 M544.497 87.959 C559.153 51.631, 578.723 20.168, 598.228 0.084 M544.497 87.959 C555.925 59.907, 572.858 32.515, 598.228 0.084 M545.877 92.319 C568.884 53.816, 591.144 16.056, 602.216 0.179 M545.877 92.319 C563.133 71.037, 575.26 52.638, 602.216 0.179 M547.257 96.679 C573.76 62.902, 589.352 33.649, 606.205 0.273 M547.257 96.679 C579.651 66.536, 601.154 31.141, 606.205 0.273 M548.637 101.04 C568.763 56.212, 593.657 14.831, 610.193 0.368 M548.637 101.04 C573.17 81.128, 590.807 53.14, 610.193 0.368 M550.539 104.547 C583.518 63.956, 607.78 21.547, 614.703 -0.391 M550.539 104.547 C557.988 83.259, 575.533 55.651, 614.703 -0.391 M551.919 108.907 C565.967 81.019, 581.293 57.566, 618.692 -0.296 M551.919 108.907 C572.603 75.563, 590.627 47.56, 618.692 -0.296 M553.299 113.267 C578.515 92.424, 596.238 58.98, 622.68 -0.202 M553.299 113.267 C570.454 92.089, 585.304 66.961, 622.68 -0.202 M554.679 117.628 C576.074 68.734, 600.662 26.419, 626.669 -0.107 M554.679 117.628 C558.483 83.59, 578.88 52.902, 626.669 -0.107 M556.06 121.988 C573.465 72.191, 603.097 25.847, 630.657 -0.013 M556.06 121.988 C561.615 92.742, 576.422 68.353, 630.657 -0.013 M557.44 126.348 C587.433 81.221, 616.019 36.719, 634.646 0.082 M557.44 126.348 C568.679 88.467, 595.028 46.721, 634.646 0.082 M558.82 130.709 C557.914 96.547, 576.063 66.7, 638.634 0.176 M558.82 130.709 C589.17 97.6, 614.957 55.373, 638.634 0.176 M560.2 135.069 C580.817 96.581, 601.801 65.102, 642.623 0.271 M560.2 135.069 C584.321 103.995, 608.384 64.528, 642.623 0.271 M560.015 141.989 C581.813 93.446, 609.89 48.096, 646.611 0.365 M560.015 141.989 C588.335 88.069, 617.912 41.592, 646.611 0.365 M561.917 145.496 C591.209 111.023, 610.087 80.918, 651.121 -0.394 M561.917 145.496 C594.605 98.268, 619.271 55.572, 651.121 -0.394 M563.297 149.856 C596.674 92.492, 634.095 35.478, 655.11 -0.299 M563.297 149.856 C587.482 108.489, 619.666 58.006, 655.11 -0.299 M565.199 153.363 C585.759 104.526, 612.531 57.311, 659.098 -0.204 M565.199 153.363 C611.994 107.704, 640.271 61.182, 659.098 -0.204 M566.579 157.723 C612.369 108.581, 642.623 56.296, 663.087 -0.11 M566.579 157.723 C611.509 112.164, 638.926 66.043, 663.087 -0.11 M568.481 161.23 C592.598 104.987, 625.471 53.657, 667.075 -0.015 M568.481 161.23 C617.112 118.104, 652.039 62.689, 667.075 -0.015 M569.861 165.591 C603.289 107.201, 640.506 48.08, 671.064 0.079 M569.861 165.591 C607.591 132.758, 634.871 88.64, 671.064 0.079 M571.763 169.098 C583.843 111.316, 614.756 60.944, 675.052 0.174 M571.763 169.098 C593.671 140.819, 616.201 104.014, 675.052 0.174 M573.665 172.605 C627.278 113.098, 659.868 58.583, 679.041 0.268 M573.665 172.605 C593.037 98.554, 633.482 32.204, 679.041 0.268 M575.567 176.112 C604.782 104.985, 643.23 39.573, 683.029 0.363 M575.567 176.112 C610.049 135.018, 633.875 96.074, 683.029 0.363 M577.469 179.619 C625.156 148.704, 650.585 103.568, 687.539 -0.396 M577.469 179.619 C624.489 127.826, 653.771 78.604, 687.539 -0.396 M579.371 183.126 C610.642 155.975, 633.853 119.506, 691.528 -0.302 M579.371 183.126 C617.719 125.79, 648.349 75.563, 691.528 -0.302 M580.751 187.487 C603.11 105.771, 646.544 39.341, 695.516 -0.207 M580.751 187.487 C606.76 133.026, 646.897 66.216, 695.516 -0.207 M582.653 190.994 C604.34 113.619, 644.594 48.06, 699.505 -0.113 M582.653 190.994 C614.816 116.017, 657.326 44.025, 699.505 -0.113 M584.554 194.501 C635.591 119.247, 680.309 48.078, 703.493 -0.018 M584.554 194.501 C626.041 119.188, 664.621 54.248, 703.493 -0.018 M586.456 198.008 C611.438 140.83, 645.245 82.27, 707.482 0.076 M586.456 198.008 C609.874 131.512, 646.964 70.62, 707.482 0.076 M588.358 201.515 C605.514 153.313, 640.318 96.465, 711.47 0.171 M588.358 201.515 C630.076 126.764, 677.797 48.966, 711.47 0.171 M590.26 205.022 C626.742 166.299, 654.806 120.196, 715.459 0.266 M590.26 205.022 C622.477 127.787, 662.15 61.731, 715.459 0.266 M592.162 208.529 C614.638 149.735, 648.372 98.224, 719.447 0.36 M592.162 208.529 C625.514 128.773, 665.731 60.776, 719.447 0.36 M594.064 212.036 C629.489 166.336, 664.254 107.142, 723.957 -0.399 M594.064 212.036 C621.189 160.846, 647.26 118.386, 723.957 -0.399 M596.487 214.69 C623.544 153.479, 654.174 102.042, 727.946 -0.304 M596.487 214.69 C644.057 132.251, 693.293 52.986, 727.946 -0.304 M598.389 218.198 C618.267 152.137, 651.417 96.5, 731.934 -0.21 M598.389 218.198 C624.553 145.305, 662.016 83.13, 731.934 -0.21 M600.291 221.705 C607.084 165.259, 633.48 116.812, 735.923 -0.115 M600.291 221.705 C650.297 136.869, 703.056 52.42, 735.923 -0.115 M602.193 225.212 C648.607 176.234, 683.414 120.009, 739.911 -0.021 M602.193 225.212 C667.187 146.893, 710.381 77.919, 739.911 -0.021 M604.094 228.719 C650.612 162.513, 696.637 88.972, 743.9 0.074 M604.094 228.719 C681.656 129.983, 736.727 38.489, 743.9 0.074 M605.996 232.226 C630.14 162.733, 666.44 107.809, 747.888 0.168 M605.996 232.226 C660.85 141.991, 716.818 49.737, 747.888 0.168 M607.898 235.733 C656.543 156.227, 708.758 66.729, 751.876 0.263 M607.898 235.733 C637.261 139.051, 687.533 56.212, 751.876 0.263 M610.322 238.387 C675.459 177.476, 719.463 107.796, 755.865 0.357 M610.322 238.387 C643.836 144.35, 694.074 62.877, 755.865 0.357 M612.223 241.894 C674.345 154.452, 732.358 57.559, 760.375 -0.401 M612.223 241.894 C651.1 181.343, 688.157 120.672, 760.375 -0.401 M614.647 244.548 C659.242 159.83, 714.847 69.821, 764.364 -0.307 M614.647 244.548 C660.795 157.7, 718.553 61.408, 764.364 -0.307 M616.549 248.055 C675.674 180.903, 720.784 106.059, 768.352 -0.212 M616.549 248.055 C669.306 195.98, 700.147 145.654, 768.352 -0.212 M618.972 250.709 C667.995 179.904, 709.817 110.678, 772.341 -0.118 M618.972 250.709 C678.739 172.438, 718.327 107.721, 772.341 -0.118 M621.396 253.363 C639.688 206.812, 672.231 153.54, 776.329 -0.023 M621.396 253.363 C664.543 184.252, 699.459 126.189, 776.329 -0.023 M623.298 256.87 C690.887 159.531, 744.173 76.388, 780.317 0.071 M623.298 256.87 C684.966 177.928, 728.176 106.069, 780.317 0.071 M625.721 259.524 C702.963 162.902, 764.696 62.114, 784.306 0.166 M625.721 259.524 C680.794 167.029, 738.117 71.51, 784.306 0.166 M628.145 262.178 C639.067 209.42, 675.788 151.329, 788.294 0.26 M628.145 262.178 C696.444 188.577, 743.774 111.856, 788.294 0.26 M630.568 264.832 C697.793 167.152, 749.105 83.348, 792.283 0.355 M630.568 264.832 C675.205 179.761, 731.626 84.733, 792.283 0.355 M632.992 267.486 C671.746 186.741, 718.934 110.442, 796.793 -0.404 M632.992 267.486 C689.432 198.853, 728.094 136.478, 796.793 -0.404 M635.415 270.14 C654.236 193.02, 695.446 124.634, 800.782 -0.309 M635.415 270.14 C715.58 159.748, 777.031 58.773, 800.782 -0.309 M637.839 272.794 C670.127 214.209, 709.78 150.607, 804.77 -0.215 M637.839 272.794 C695.508 208.655, 730.688 150.73, 804.77 -0.215 M640.262 275.448 C679.367 217.989, 718.011 155.12, 808.759 -0.12 M640.262 275.448 C694.851 200.615, 742.59 121.137, 808.759 -0.12 M642.686 278.102 C685.386 174.305, 748.85 68.451, 812.747 -0.026 M642.686 278.102 C696.078 217.191, 732.938 155.041, 812.747 -0.026 M645.631 279.903 C686.363 173.117, 746.737 71.587, 816.735 0.069 M645.631 279.903 C705.022 183.514, 763.303 88.726, 816.735 0.069 M648.054 282.557 C688.08 185.351, 745.937 90.037, 820.724 0.163 M648.054 282.557 C687.452 189.323, 745.323 92.65, 820.724 0.163 M650.478 285.211 C698.803 193.399, 748.394 116.342, 824.712 0.258 M650.478 285.211 C695.44 211.762, 731.962 152.467, 824.712 0.258 M653.423 287.012 C741.553 191.978, 807.633 84.534, 828.701 0.352 M653.423 287.012 C735.682 196.497, 797.335 96.621, 828.701 0.352 M655.846 289.666 C725.04 217.116, 769.02 143.939, 833.211 -0.406 M655.846 289.666 C710.36 205.527, 771.192 106.877, 833.211 -0.406 M658.792 291.467 C682.538 244.753, 719.765 184.697, 837.2 -0.312 M658.792 291.467 C743.421 196.775, 805.799 93.492, 837.2 -0.312 M661.215 294.121 C726.663 187.533, 791.762 79.445, 841.188 -0.217 M661.215 294.121 C712.478 187.133, 776.543 81.853, 841.188 -0.217 M664.16 295.921 C731.628 186.356, 794.914 85.919, 845.176 -0.123 M664.16 295.921 C712.484 222.94, 759.185 144.926, 845.176 -0.123 M666.584 298.575 C703.898 227.399, 748.055 157.357, 849.165 -0.028 M666.584 298.575 C746.253 181.913, 816.623 67.812, 849.165 -0.028 M669.529 300.376 C685.298 238.236, 724.925 176.357, 853.153 0.066 M669.529 300.376 C699.651 200.553, 751.909 114.723, 853.153 0.066 M671.952 303.03 C694.967 221.88, 737.683 151.465, 857.142 0.161 M671.952 303.03 C730.508 173.852, 801.248 57.596, 857.142 0.161 M674.898 304.831 C742.06 191.835, 813.401 75.131, 861.13 0.255 M674.898 304.831 C738.537 207.313, 791.76 120.512, 861.13 0.255 M677.843 306.632 C727.655 192.393, 790.168 86.97, 865.119 0.35 M677.843 306.632 C714.427 222.154, 762.504 143.703, 865.119 0.35 M680.788 308.433 C732.581 194.828, 805.975 77.644, 869.629 -0.409 M680.788 308.433 C713.788 228.014, 760.366 152.222, 869.629 -0.409 M683.733 310.233 C758.423 217.026, 812.08 130.307, 873.618 -0.314 M683.733 310.233 C737.379 216.137, 789.429 130.939, 873.618 -0.314 M686.678 312.034 C764.955 212.662, 823.249 118.732, 877.606 -0.22 M686.678 312.034 C739.991 197.578, 801.229 96.346, 877.606 -0.22 M690.145 312.982 C772.461 221.056, 830.82 123.583, 881.594 -0.125 M690.145 312.982 C760.996 192.312, 826.314 85.381, 881.594 -0.125 M693.09 314.783 C764.797 204.145, 826.257 103.134, 885.583 -0.031 M693.09 314.783 C745.584 229.891, 797.726 145.113, 885.583 -0.031 M696.035 316.584 C735.908 208.821, 793.795 112.729, 889.571 0.064 M696.035 316.584 C766.081 206.725, 826.624 106.756, 889.571 0.064 M699.502 317.531 C742.277 252.521, 787.165 183.257, 893.56 0.158 M699.502 317.531 C729.415 262.319, 773.159 191.713, 893.56 0.158 M702.447 319.332 C736.911 236.961, 785.905 156.514, 897.548 0.253 M702.447 319.332 C773.863 182.532, 849.73 60.051, 897.548 0.253 M705.914 320.28 C780.192 217.724, 849.904 103.28, 901.015 1.2 M705.914 320.28 C758.899 230.864, 818.932 131.847, 901.015 1.2 M708.859 322.08 C747.624 223.851, 802.538 135.124, 901.352 7.267 M708.859 322.08 C739.65 231.46, 791.742 145.085, 901.352 7.267 M712.326 323.028 C773.086 263.185, 818.677 190.03, 901.167 14.187 M712.326 323.028 C782.312 219.59, 846.158 114.149, 901.167 14.187 M715.271 324.829 C764.427 227.797, 831.628 116.704, 901.504 20.253 M715.271 324.829 C771.887 215.821, 835.77 109.463, 901.504 20.253 M718.738 325.777 C750.055 250.704, 801.78 167.364, 901.319 27.173 M718.738 325.777 C743.863 277.757, 780.413 216.584, 901.319 27.173 M722.205 326.724 C813.578 200.625, 881.801 85.488, 901.134 34.093 M722.205 326.724 C800.072 225.496, 854.841 136.086, 901.134 34.093 M725.672 327.672 C751.877 251.056, 802.268 170.547, 901.471 40.159 M725.672 327.672 C814.151 203.958, 883.032 91.187, 901.471 40.159 M729.139 328.62 C805.049 238.205, 866.514 135.693, 901.287 47.079 M729.139 328.62 C796.471 236.9, 848.259 152.109, 901.287 47.079 M732.084 330.42 C775.349 249.992, 830.292 160.995, 901.102 53.999 M732.084 330.42 C761.71 267.319, 807.065 192.021, 901.102 53.999 M735.551 331.368 C787.426 273.722, 826.148 209.407, 901.439 60.065 M735.551 331.368 C803.176 267.844, 848.346 193.736, 901.439 60.065 M739.017 332.316 C806.373 232.305, 861.979 141.315, 901.254 66.985 M739.017 332.316 C776.153 242.688, 832.986 148.778, 901.254 66.985 M742.484 333.263 C761.932 282.735, 795.679 224.581, 901.069 73.905 M742.484 333.263 C796.647 256.246, 845.668 178.042, 901.069 73.905 M745.951 334.211 C762.735 271.357, 798.773 212.469, 901.406 79.971 M745.951 334.211 C788.987 267.254, 834.189 193.078, 901.406 79.971 M749.418 335.159 C776.121 275.433, 818.925 208.145, 901.221 86.891 M749.418 335.159 C801.931 248.781, 855.232 161.923, 901.221 86.891 M752.885 336.106 C803.526 239.824, 857.026 155.013, 901.036 93.811 M752.885 336.106 C811.296 290.165, 845.064 234.791, 901.036 93.811 M756.351 337.054 C787.363 267.249, 821.473 212.728, 901.373 99.878 M756.351 337.054 C798.001 261.743, 850.978 174.161, 901.373 99.878 M759.818 338.002 C796.631 251.46, 855.247 158.917, 901.188 106.797 M759.818 338.002 C791.309 284.207, 824.634 229.529, 901.188 106.797 M763.285 338.949 C807.726 280.121, 844.264 217.204, 901.525 112.864 M763.285 338.949 C795.022 295.86, 822.638 250.201, 901.525 112.864 M766.752 339.897 C793.464 275.945, 829.407 215.939, 901.34 119.784 M766.752 339.897 C782.493 295.644, 811.202 251.251, 901.34 119.784 M770.219 340.845 C819.799 269.784, 871.693 185.755, 901.156 126.703 M770.219 340.845 C824.379 261.269, 867.94 189.663, 901.156 126.703 M773.686 341.792 C833.881 263.51, 879.328 187.92, 901.492 132.77 M773.686 341.792 C804.103 270.549, 847.611 201.31, 901.492 132.77 M777.152 342.74 C815.019 261.504, 856.157 192.3, 901.308 139.69 M777.152 342.74 C800.104 301.87, 830.439 252.978, 901.308 139.69 M780.097 344.541 C824.189 296.452, 854.085 251.274, 901.123 146.609 M780.097 344.541 C838.293 293.935, 876.665 231.362, 901.123 146.609 M783.564 345.489 C807.659 269.949, 851.127 200.091, 901.46 152.676 M783.564 345.489 C823.993 292.353, 856.553 238.331, 901.46 152.676 M787.031 346.436 C796.982 309.629, 820.896 271.753, 901.275 159.596 M787.031 346.436 C814.876 286.546, 850.456 228.402, 901.275 159.596 M790.498 347.384 C807.589 307.291, 832.967 268.232, 901.09 166.515 M790.498 347.384 C831.572 277.096, 869.606 214.565, 901.09 166.515 M793.965 348.332 C806.726 304.322, 836.282 262.847, 901.427 172.582 M793.965 348.332 C846.897 289.933, 883.258 229.901, 901.427 172.582 M797.432 349.279 C830.585 296.799, 865.634 238.19, 901.242 179.502 M797.432 349.279 C814.431 278.766, 853.151 217.561, 901.242 179.502 M800.898 350.227 C814.59 297.749, 842.431 250.074, 901.057 186.421 M800.898 350.227 C845.357 307.036, 875.334 259.53, 901.057 186.421 M804.365 351.175 C813.387 302.8, 841.232 254.845, 901.394 192.488 M804.365 351.175 C851.849 289.8, 887.821 229.918, 901.394 192.488 M807.832 352.122 C822.668 320.938, 842.068 285.374, 901.209 199.408 M807.832 352.122 C843.026 297.504, 878.855 239.21, 901.209 199.408 M811.299 353.07 C862.638 299.918, 894.416 248.163, 901.024 206.328 M811.299 353.07 C858.509 294.694, 889.646 245.176, 901.024 206.328 M814.766 354.018 C830.435 305.617, 854.542 261.629, 901.361 212.394 M814.766 354.018 C838.179 306.186, 862.886 267.982, 901.361 212.394 M818.232 354.965 C846.516 313.604, 875.115 267.499, 901.177 219.314 M818.232 354.965 C855.569 315.643, 877.819 277.337, 901.177 219.314 M821.699 355.913 C857.559 305.181, 889.83 258.247, 901.513 225.38 M821.699 355.913 C850.949 294.977, 883.608 243.189, 901.513 225.38 M825.166 356.861 C863.746 310.04, 892.252 258.964, 901.329 232.3 M825.166 356.861 C855.212 297.96, 885.242 249.049, 901.329 232.3 M828.633 357.808 C857.09 327.196, 882.739 290.222, 901.144 239.22 M828.633 357.808 C844.7 321.489, 869.541 283.453, 901.144 239.22 M831.578 359.609 C844.984 339.659, 858.692 319.944, 901.481 245.286 M831.578 359.609 C850.408 327.638, 867.875 301.102, 901.481 245.286 M835.045 360.557 C846.637 333.744, 861.208 308.491, 901.296 252.206 M835.045 360.557 C858.956 319.266, 881.423 282.501, 901.296 252.206 M838.512 361.504 C854.531 325.763, 879.067 286.781, 901.111 259.126 M838.512 361.504 C861.609 322.466, 885.01 285.504, 901.111 259.126 M841.979 362.452 C862.194 330.385, 881.177 296.339, 901.448 265.193 M841.979 362.452 C848.955 341.607, 862.793 318.707, 901.448 265.193 M845.445 363.4 C875.917 329.033, 894.54 298.008, 901.263 272.112 M845.445 363.4 C877.475 334.754, 896.605 301.822, 901.263 272.112 M848.912 364.347 C869.403 333.178, 882.726 308.591, 901.078 279.032 M848.912 364.347 C863.963 337.204, 878.186 314.215, 901.078 279.032 M852.379 365.295 C861.79 336.166, 882.397 303.936, 901.415 285.099 M852.379 365.295 C866.683 337.477, 881.131 314.433, 901.415 285.099 M855.846 366.243 C878.297 335.838, 895.37 311.659, 901.23 292.018 M855.846 366.243 C864.821 341.65, 878.891 318.906, 901.23 292.018 M859.313 367.19 C873.244 348.342, 888.497 325.084, 901.046 298.938 M859.313 367.19 C867.118 348.907, 877.055 333.424, 901.046 298.938 M862.779 368.138 C880.947 350.596, 893.237 333.045, 901.382 305.005 M862.779 368.138 C871.949 350.992, 880.997 336.469, 901.382 305.005 M866.246 369.086 C881.331 350.778, 893.55 332.274, 901.198 311.924 M866.246 369.086 C869.509 351.595, 879.416 337.646, 901.198 311.924 M869.713 370.033 C879.042 351.615, 889.449 334.788, 901.013 318.844 M869.713 370.033 C880.182 358.83, 887.613 349.069, 901.013 318.844 M873.18 370.981 C878.152 354.435, 885.349 343.213, 901.35 324.911 M873.18 370.981 C883.076 352.928, 893.202 335.206, 901.35 324.911 M876.647 371.929 C885.793 360.518, 889.917 350.928, 901.165 331.83 M876.647 371.929 C885.747 359.513, 894.348 343.672, 901.165 331.83 M880.114 372.876 C884.965 361.404, 892.312 350.402, 901.502 337.897 M880.114 372.876 C881.853 368.054, 886.618 360.971, 901.502 337.897 M883.059 374.677 C888.519 362.214, 894.615 355.391, 901.317 344.817 M883.059 374.677 C886.511 369.766, 889.985 361.754, 901.317 344.817 M886.526 375.625 C887.157 370.235, 890.748 366.251, 901.132 351.736 M886.526 375.625 C890.861 370.887, 893.792 364.065, 901.132 351.736 M889.992 376.572 C893.053 372.18, 896.814 364.124, 901.469 357.803 M889.992 376.572 C894.65 370.205, 898.087 364.148, 901.469 357.803 M893.459 377.52 C895.862 373.922, 899.209 368.43, 901.284 364.723 M893.459 377.52 C896.954 374.156, 898.879 371.005, 901.284 364.723 M896.926 378.468 C897.766 376.866, 899.455 374.19, 901.099 371.643 M896.926 378.468 C897.788 375.974, 899.611 373.775, 901.099 371.643" stroke="rgb(184, 195, 170)" stroke-width="2.07" fill="none"/><path d="M900 378.6 M900 378.6 C863.869 366.054, 826.438 356.462, 787.8 345.2 M787.8 345.2 C748.227 334.332, 710.472 328.184, 677.5 306.3 M677.5 306.3 C643.485 286.775, 618.584 255.465, 597.4 219.8 M597.4 219.8 C575.895 184.698, 561.062 148.953, 550 113.7 M550 113.7 C539.613 78.349, 529.658 38.457, 521.4 0 M521.4 0 C629.199 13.331, 734.803 11.792, 900 0 M900 0 C902.925 132.767, 903.315 262.883, 900 378.6" stroke="rgb(184, 195, 170)" stroke-width="1" fill="none"/></g><g><path d="M710.465 0.249 C710.465 0.249, 710.465 0.249, 710.465 0.249 M710.465 0.249 C710.465 0.249, 710.465 0.249, 710.465 0.249 M711.665 5.513 C712.424 3.582, 713.704 3.068, 717.162 -0.3 M711.665 5.513 C713.634 3.841, 714.791 2.141, 717.162 -0.3 M712.864 10.777 C716.953 6.836, 719.53 3.195, 723.171 -0.121 M712.864 10.777 C714.403 9.641, 717.026 8.211, 723.171 -0.121 M714.751 15.314 C717.27 12.421, 723.952 6.33, 729.181 0.057 M714.751 15.314 C720.68 11.565, 724.967 8.231, 729.181 0.057 M715.951 20.578 C722.699 15.12, 729.408 6.579, 735.191 0.235 M715.951 20.578 C717.088 13.909, 723.243 9.441, 735.191 0.235 M717.151 25.842 C727.154 18.164, 735.826 8.651, 741.888 -0.313 M717.151 25.842 C728.406 13.185, 737.946 4.405, 741.888 -0.313 M718.351 31.106 C725.131 25.281, 735.158 17.035, 747.898 -0.135 M718.351 31.106 C729.181 22.046, 739.895 12.266, 747.898 -0.135 M719.551 36.37 C732.235 32.995, 736.731 23.791, 753.907 0.043 M719.551 36.37 C732.378 19.095, 745.552 4.56, 753.907 0.043 M720.751 41.634 C731.915 33.75, 743.107 22.951, 759.917 0.222 M720.751 41.634 C738.363 27.476, 751.172 12.149, 759.917 0.222 M723.325 45.445 C736.452 28.937, 754.293 11.638, 766.614 -0.327 M723.325 45.445 C740.77 35.584, 753.13 23.016, 766.614 -0.327 M725.212 49.982 C736.645 34.366, 745.084 21.852, 772.624 -0.149 M725.212 49.982 C743.117 31.468, 757.822 15.979, 772.624 -0.149 M727.099 54.52 C739.119 31.791, 755.686 15.493, 778.634 0.03 M727.099 54.52 C736.85 44.312, 750.049 30.72, 778.634 0.03 M728.299 59.784 C739.401 40.615, 758.031 21.425, 784.643 0.208 M728.299 59.784 C744.598 50.621, 757.627 37.989, 784.643 0.208 M730.186 64.321 C752.33 43.206, 769.422 24.31, 791.34 -0.34 M730.186 64.321 C744.515 42.052, 764.669 20.355, 791.34 -0.34 M732.073 68.859 C761.158 49.227, 786.359 20.8, 797.35 -0.162 M732.073 68.859 C759.447 49.753, 783.567 25.602, 797.35 -0.162 M733.273 74.123 C749.395 49.014, 764.575 33.94, 803.36 0.016 M733.273 74.123 C760.246 56.146, 777.293 37.393, 803.36 0.016 M735.16 78.66 C751.603 61.174, 771.938 42.563, 809.37 0.194 M735.16 78.66 C759.851 61.192, 780.749 39.223, 809.37 0.194 M735.673 84.651 C758.009 55.567, 787.369 25.968, 816.067 -0.354 M735.673 84.651 C759.027 66.578, 777.009 47.494, 816.067 -0.354 M738.247 88.462 C767.4 51.594, 793.547 24.027, 822.076 -0.176 M738.247 88.462 C750.671 69.112, 767.548 50.181, 822.076 -0.176 M740.134 92.999 C761.473 61.264, 783.111 38.388, 828.086 0.002 M740.134 92.999 C767.495 68.332, 801.606 30.835, 828.086 0.002 M742.708 96.81 C768.086 76.826, 788.406 53.531, 834.096 0.181 M742.708 96.81 C771.466 65.981, 791.797 45.604, 834.096 0.181 M744.595 101.347 C779.029 71.282, 813.414 34.16, 840.106 0.359 M744.595 101.347 C773.899 67.28, 798.137 41.711, 840.106 0.359 M746.482 105.885 C789.373 65.943, 822.773 25.238, 846.803 -0.189 M746.482 105.885 C761.766 74.98, 784.908 51.794, 846.803 -0.189 M749.056 109.696 C786.316 71.341, 826.305 30.357, 852.812 -0.011 M749.056 109.696 C767.709 74.597, 798.332 40.42, 852.812 -0.011 M751.63 113.507 C784.874 88.804, 813.248 60.589, 858.822 0.167 M751.63 113.507 C793.415 81.208, 829.893 43.077, 858.822 0.167 M754.204 117.318 C781.999 77.024, 817.744 35.937, 864.832 0.345 M754.204 117.318 C777.002 73.839, 811.671 37.21, 864.832 0.345 M756.778 121.128 C797.093 88.548, 828.15 59.245, 871.529 -0.203 M756.778 121.128 C785.25 95.755, 822.006 54.865, 871.529 -0.203 M759.352 124.939 C785.623 87.52, 816.243 57.465, 877.539 -0.025 M759.352 124.939 C819.827 61.167, 866.587 12.461, 877.539 -0.025 M762.614 128.024 C810.926 69.174, 856.628 19.973, 883.548 0.154 M762.614 128.024 C777.063 108.131, 807.175 77.642, 883.548 0.154 M765.188 131.835 C827.159 97.107, 876.532 47.598, 889.558 0.332 M765.188 131.835 C798.762 96.92, 834.785 60.46, 889.558 0.332 M767.762 135.646 C792.145 103.252, 824.674 68.002, 896.255 -0.217 M767.762 135.646 C793.733 91.219, 835.786 44.929, 896.255 -0.217 M771.023 138.73 C805.826 90.211, 850.573 44.495, 900.891 1.415 M771.023 138.73 C820.648 78.098, 862.751 34.446, 900.891 1.415 M774.285 141.814 C796.77 116.832, 822.151 87.412, 901.403 7.405 M774.285 141.814 C794.103 106.551, 820.483 76.816, 901.403 7.405 M777.546 144.899 C793.093 109.54, 821.885 80.503, 901.229 14.122 M777.546 144.899 C806.169 107.346, 848.182 61.979, 901.229 14.122 M780.807 147.983 C812.34 97.436, 844.795 63.13, 901.055 20.839 M780.807 147.983 C817.994 106.951, 853.399 71.03, 901.055 20.839 M784.755 150.341 C821.16 105.69, 865.936 57.21, 900.88 27.556 M784.755 150.341 C804.915 120.971, 836.244 87.31, 900.88 27.556 M788.704 152.699 C806.875 135.094, 835.301 100.564, 901.393 33.547 M788.704 152.699 C827.453 118.618, 852.321 89.842, 901.393 33.547 M792.652 155.057 C824.149 124.404, 853.763 87.859, 901.219 40.264 M792.652 155.057 C810.86 127.811, 839.668 98.978, 901.219 40.264 M796.601 157.414 C833.976 134.738, 862.644 106.271, 901.044 46.981 M796.601 157.414 C819.894 120.76, 849.823 89.22, 901.044 46.981 M800.549 159.772 C823.626 151.878, 842.188 125.987, 900.87 53.698 M800.549 159.772 C835.551 143.058, 861.158 116.346, 900.87 53.698 M804.497 162.13 C828.56 146.775, 850.413 126.382, 901.383 59.689 M804.497 162.13 C832.948 144.853, 857.843 117.644, 901.383 59.689 M809.133 163.761 C831.673 134.68, 864.234 102.462, 901.208 66.406 M809.133 163.761 C835.957 127.301, 864.184 97.492, 901.208 66.406 M813.768 165.393 C844.292 125.109, 878.571 91.818, 901.034 73.123 M813.768 165.393 C843.962 140.524, 866.912 115.549, 901.034 73.123 M819.091 166.298 C856.034 141.427, 886.42 108.173, 900.859 79.84 M819.091 166.298 C836.292 132.278, 857.448 110.258, 900.859 79.84 M823.727 167.929 C842.87 141.68, 872.796 111.606, 901.372 85.83 M823.727 167.929 C837.463 151.484, 853.199 134.056, 901.372 85.83 M828.362 169.56 C862.541 136.746, 889.556 106.397, 901.198 92.547 M828.362 169.56 C849.685 144.616, 877.728 114.979, 901.198 92.547 M832.998 171.191 C851.991 146.512, 875.25 122.948, 901.023 99.264 M832.998 171.191 C859.926 138.966, 884.383 114.075, 901.023 99.264 M838.32 172.096 C865.876 149.83, 885.864 127.904, 900.849 105.981 M838.32 172.096 C855.369 153.765, 871.086 138.32, 900.849 105.981 M842.956 173.727 C859.691 157.078, 875.843 137.548, 901.362 111.972 M842.956 173.727 C861.722 151.747, 877.49 134.838, 901.362 111.972 M847.591 175.359 C872.066 153.79, 891.128 135.217, 901.187 118.689 M847.591 175.359 C865.679 153.901, 882.965 134.515, 901.187 118.689 M852.227 176.99 C867.85 160.299, 884.305 144.138, 901.013 125.406 M852.227 176.99 C872.853 155.523, 888.048 138.553, 901.013 125.406 M857.55 177.895 C867.02 171.115, 877.584 158.449, 900.839 132.123 M857.55 177.895 C871.654 165.91, 886.204 149.865, 900.839 132.123 M862.185 179.526 C871.985 167.957, 885.19 154.531, 901.351 138.114 M862.185 179.526 C872.803 170.055, 880.708 160.654, 901.351 138.114 M866.821 181.157 C877.209 172.726, 890.009 162.558, 901.177 144.831 M866.821 181.157 C882.059 170.586, 892.139 159.337, 901.177 144.831 M871.456 182.789 C880.912 178.151, 887.877 169.823, 901.003 151.548 M871.456 182.789 C882.012 174.228, 891.227 165.018, 901.003 151.548 M876.779 183.694 C888.308 172.912, 896.686 165.438, 901.515 157.538 M876.779 183.694 C887.176 171.654, 896.579 161.197, 901.515 157.538 M881.414 185.325 C884.102 182.311, 888.233 178.237, 901.341 164.255 M881.414 185.325 C886.358 181.239, 891.909 173.274, 901.341 164.255 M886.05 186.956 C889.755 179.214, 894.142 173.978, 901.167 170.972 M886.05 186.956 C890.711 179.225, 895.317 174.406, 901.167 170.972 M890.685 188.587 C894.517 184.181, 898.786 180.622, 900.992 177.689 M890.685 188.587 C893.36 184.687, 896.931 180.006, 900.992 177.689 M896.008 189.492 C897.585 187.243, 900.094 186.167, 901.505 183.68 M896.008 189.492 C898.633 187.789, 900.711 185.817, 901.505 183.68" stroke="rgb(117, 138, 91)" stroke-width="2.482" fill="none"/><path d="M900 189.3 M900 189.3 C882.366 182.109, 861.071 177.138, 843.9 172.6 M900 189.3 C880.984 182.675, 864.091 178.904, 843.9 172.6 M843.9 172.6 C825.09 165.976, 807.04 164.411, 788.7 153.1 M843.9 172.6 C825.212 168.819, 804.255 162.51, 788.7 153.1 M788.7 153.1 C773.593 143.965, 760.487 127.955, 748.7 109.9 M788.7 153.1 C772.432 140.916, 758.937 124.859, 748.7 109.9 M748.7 109.9 C739.412 91.506, 731.477 76.073, 725 56.9 M748.7 109.9 C736.201 92.16, 732.837 74.139, 725 56.9 M725 56.9 C718.622 38.322, 713.392 20.322, 710.7 0 M725 56.9 C721.298 40.28, 712.741 18.774, 710.7 0 M710.7 0 C766.828 8.213, 819.219 5.955, 900 0 M710.7 0 C754.592 -23.235, 797.628 -23.072, 900 0 M900 0 C905.197 74.796, 907.564 150.402, 900 189.3 M900 0 C880.554 73.694, 880.059 147.574, 900 189.3" stroke="rgb(117, 138, 91)" stroke-width="1" fill="none"/></g><g><path d="M-0.165 221.63 C-0.165 221.63, -0.165 221.63, -0.165 221.63 M-0.165 221.63 C-0.165 221.63, -0.165 221.63, -0.165 221.63 M-0.068 229.091 C1.598 227.855, 2.322 225.591, 5.188 221.786 M-0.068 229.091 C2.125 227.443, 3.001 225.432, 5.188 221.786 M0.029 236.553 C3.265 231.994, 8.909 225.311, 9.957 222.753 M0.029 236.553 C2.932 233.458, 6.45 229.897, 9.957 222.753 M0.126 244.014 C6.046 236.806, 7.818 232.638, 14.727 223.721 M0.126 244.014 C4.841 236.537, 9.911 229.612, 14.727 223.721 M0.223 251.475 C10.634 246.416, 13.223 240.815, 20.08 223.877 M0.223 251.475 C2.939 243.917, 8.028 235.695, 20.08 223.877 M-0.264 259.749 C5.286 251.004, 11.225 243.504, 24.85 224.844 M-0.264 259.749 C12.634 242.78, 22.723 230.093, 24.85 224.844 M-0.167 267.21 C5.881 253.561, 13.967 239.692, 29.619 225.812 M-0.167 267.21 C5.909 255.089, 12.91 244.318, 29.619 225.812 M-0.07 274.672 C19.423 257.219, 29.947 237.844, 34.972 225.968 M-0.07 274.672 C11.923 260.165, 23.929 243.509, 34.972 225.968 M0.027 282.133 C4.264 265.433, 19.236 250.108, 39.742 226.935 M0.027 282.133 C3.317 265.146, 14.141 250.553, 39.742 226.935 M0.124 289.595 C7.77 268.348, 21.465 254.769, 45.095 227.091 M0.124 289.595 C13.306 273.136, 27.241 252.672, 45.095 227.091 M0.221 297.056 C24.47 277.419, 44.621 255.595, 49.864 228.059 M0.221 297.056 C5.875 284.121, 18.114 266.271, 49.864 228.059 M-0.265 305.329 C14.432 278.896, 33.071 256.058, 54.634 229.027 M-0.265 305.329 C10.599 282.628, 23.928 263.446, 54.634 229.027 M-0.168 312.791 C9.941 302.943, 20.048 284.513, 59.987 229.182 M-0.168 312.791 C25.827 283.878, 49.272 253.445, 59.987 229.182 M-0.071 320.252 C12.339 293.4, 25.932 276.007, 64.756 230.15 M-0.071 320.252 C28.405 283.27, 51.015 253.237, 64.756 230.15 M0.026 327.714 C4.362 305.388, 21.873 283.187, 69.526 231.118 M0.026 327.714 C7.112 306.912, 21.802 285.933, 69.526 231.118 M0.123 335.175 C33.785 287.633, 64.923 245.715, 74.295 232.085 M0.123 335.175 C6.348 317.116, 20.506 296.963, 74.295 232.085 M0.22 342.636 C35.699 300.404, 61.611 261.774, 79.064 233.053 M0.22 342.636 C15.056 307.704, 35.766 278.756, 79.064 233.053 M-0.267 350.91 C8.222 315.729, 30.791 289.142, 83.834 234.02 M-0.267 350.91 C33.437 303.385, 61.456 262.586, 83.834 234.02 M-0.17 358.371 C31.461 306.485, 65.517 259.293, 88.603 234.988 M-0.17 358.371 C42.201 312.923, 71.984 269.997, 88.603 234.988 M-0.073 365.833 C17.588 325.317, 49.421 280.261, 92.788 236.767 M-0.073 365.833 C30.316 331.741, 56.506 292.895, 92.788 236.767 M0.024 373.294 C27.087 344.655, 53.601 311.742, 97.558 237.735 M0.024 373.294 C25.487 341.153, 46.098 314.239, 97.558 237.735 M0.121 380.756 C16.551 361.373, 39.589 330.542, 102.327 238.703 M0.121 380.756 C46.056 337.726, 78.558 293.208, 102.327 238.703 M0.218 388.217 C14.008 336.229, 38.879 299.566, 106.512 240.482 M0.218 388.217 C37.813 359.362, 60.441 326.343, 106.512 240.482 M-0.269 396.49 C25.723 350.12, 59.589 304.644, 110.697 242.261 M-0.269 396.49 C43.162 376.966, 66.825 342.095, 110.697 242.261 M-0.172 403.952 C18.204 336.942, 58.429 280.563, 115.467 243.229 M-0.172 403.952 C27.628 356.294, 57.583 313.933, 115.467 243.229 M-0.075 411.413 C21.46 356.306, 61.665 304.115, 119.652 245.008 M-0.075 411.413 C42.126 364.825, 67.716 327.668, 119.652 245.008 M0.023 418.875 C37.55 350.348, 79.392 288.139, 123.837 246.788 M0.023 418.875 C46.52 376.442, 84.719 324.001, 123.837 246.788 M0.12 426.336 C40.912 380.238, 80.109 327.746, 128.023 248.567 M0.12 426.336 C48.119 372.854, 93.855 307.937, 128.023 248.567 M0.217 433.797 C31.636 369.628, 80.922 302.504, 131.624 251.158 M0.217 433.797 C36.072 395.976, 69.747 348.389, 131.624 251.158 M-0.27 442.071 C47.826 410.571, 75.74 370.47, 135.809 252.937 M-0.27 442.071 C32.933 407.62, 62.924 365.853, 135.809 252.937 M-0.173 449.532 C61.282 363.246, 117.261 285.775, 139.411 255.529 M-0.173 449.532 C52.237 383.204, 97.689 320.057, 139.411 255.529 M-0.076 456.994 C41.059 405.7, 90.69 336.678, 143.596 257.308 M-0.076 456.994 C49.003 408.761, 92.957 345.703, 143.596 257.308 M0.021 464.455 C50.473 384.566, 106.589 310.94, 147.197 259.899 M0.021 464.455 C35.055 397.349, 76.212 339.348, 147.197 259.899 M0.118 471.916 C57.889 407.727, 105.015 347.279, 151.382 261.678 M0.118 471.916 C58.28 411.033, 109.243 338.743, 151.382 261.678 M0.215 479.378 C47.596 425.706, 92.628 363.197, 154.984 264.269 M0.215 479.378 C24.612 434.404, 59.48 387.811, 154.984 264.269 M-0.272 487.651 C37.083 447.05, 71.009 397.656, 159.169 266.049 M-0.272 487.651 C71.511 421.277, 127.831 342.429, 159.169 266.049 M-0.175 495.113 C28.497 436.259, 75.809 368.099, 162.77 268.64 M-0.175 495.113 C27.662 445.263, 67.12 389.965, 162.77 268.64 M-0.078 502.574 C59.27 436.745, 105.723 375.907, 166.956 270.419 M-0.078 502.574 C24.584 438.808, 59.5 387.884, 166.956 270.419 M0.019 510.036 C56.327 405.099, 126.21 310.822, 170.557 273.01 M0.019 510.036 C76.165 447.187, 129.218 371.952, 170.557 273.01 M0.116 517.497 C39.42 448.082, 100.875 363.097, 174.158 275.601 M0.116 517.497 C31.891 473.391, 71.141 419.796, 174.158 275.601 M0.214 524.958 C82.153 433.094, 151.823 340.289, 178.343 277.381 M0.214 524.958 C56.531 480.13, 97.831 423.856, 178.343 277.381 M-0.273 533.232 C74.299 444.914, 146.926 342.749, 181.945 279.972 M-0.273 533.232 C72.842 445.286, 143.325 347.111, 181.945 279.972 M-0.176 540.693 C74.027 466.274, 128.255 388.68, 185.546 282.563 M-0.176 540.693 C91.14 435.149, 165.339 332.669, 185.546 282.563 M-0.079 548.155 C42.498 502.816, 86.752 442.386, 189.147 285.154 M-0.079 548.155 C38.66 450.892, 96.463 370.675, 189.147 285.154 M0.018 555.616 C53.44 482.112, 96.982 421.61, 192.748 287.745 M0.018 555.616 C69.214 471.463, 135.695 380.343, 192.748 287.745 M0.115 563.077 C43.675 474.234, 96.398 400.019, 196.35 290.336 M0.115 563.077 C86.854 463.571, 160.766 360.535, 196.35 290.336 M0.212 570.539 C77.992 467.719, 150.567 368.237, 199.951 292.927 M0.212 570.539 C73.582 488.435, 135.399 404.803, 199.951 292.927 M-0.275 578.812 C54.521 510.3, 101.001 442.723, 204.136 294.707 M-0.275 578.812 C52.946 482.069, 122.863 385.837, 204.136 294.707 M-0.178 586.274 C39.239 513.275, 101.191 424.678, 207.738 297.298 M-0.178 586.274 C51.848 505.839, 112.803 421.591, 207.738 297.298 M-0.081 593.735 C84.859 491.494, 157.122 390.565, 211.339 299.889 M-0.081 593.735 C49.541 496.534, 121.465 396.123, 211.339 299.889 M0.6 600.385 C62.485 514.331, 132.913 416.903, 214.94 302.48 M0.6 600.385 C20.161 522.415, 64.809 461.45, 214.94 302.48 M5.954 600.541 C106.185 490.396, 183.642 382.353, 218.541 305.071 M5.954 600.541 C90.866 503.136, 156.094 412.262, 218.541 305.071 M11.307 600.697 C66.698 528.504, 125.689 448.333, 222.143 307.662 M11.307 600.697 C88.633 522.063, 147.146 442.485, 222.143 307.662 M17.244 600.041 C80.383 526.252, 124.037 469.079, 225.744 310.253 M17.244 600.041 C76.796 501.429, 140.007 413.936, 225.744 310.253 M22.598 600.197 C113.373 498.819, 189.054 391.89, 229.929 312.032 M22.598 600.197 C85.465 483.649, 164.859 374.143, 229.929 312.032 M27.951 600.352 C65.931 531.178, 109.461 469.28, 233.53 314.623 M27.951 600.352 C123.978 485.614, 204.95 372.404, 233.53 314.623 M33.304 600.508 C54.401 543.756, 98.528 481.153, 237.132 317.214 M33.304 600.508 C86.568 507.549, 163.135 401.989, 237.132 317.214 M38.658 600.664 C105.783 510.408, 164.317 428.107, 240.733 319.806 M38.658 600.664 C79.661 528.75, 134.673 451.639, 240.733 319.806 M44.011 600.82 C69.518 527.406, 111.206 469.133, 244.334 322.397 M44.011 600.82 C71.899 547.878, 121.6 478.701, 244.334 322.397 M49.949 600.164 C105.124 497.359, 177.462 397.873, 247.936 324.988 M49.949 600.164 C108.024 530.616, 147.622 475.528, 247.936 324.988 M55.302 600.32 C133.255 486.869, 208.109 385.834, 251.537 327.579 M55.302 600.32 C116.999 479.661, 192.456 374.545, 251.537 327.579 M60.655 600.476 C100.388 507.836, 162.503 420.494, 255.138 330.17 M60.655 600.476 C145.412 511.432, 212.571 417.766, 255.138 330.17 M66.009 600.632 C135.8 506.774, 197.158 419.623, 258.739 332.761 M66.009 600.632 C109.94 541.129, 150.038 484.557, 258.739 332.761 M71.362 600.788 C122.633 511.992, 189.333 417.965, 262.341 335.352 M71.362 600.788 C127.726 504.226, 185.722 423.683, 262.341 335.352 M77.299 600.132 C114.761 528.702, 162.286 457.565, 265.942 337.943 M77.299 600.132 C160.302 520.043, 220.005 436.362, 265.942 337.943 M82.653 600.288 C138.818 526.099, 194.098 450.435, 269.543 340.534 M82.653 600.288 C116.048 519.856, 162.076 455.519, 269.543 340.534 M88.006 600.444 C124.057 544.792, 162.029 489.762, 273.144 343.125 M88.006 600.444 C125.228 540.921, 173.737 472.793, 273.144 343.125 M93.36 600.6 C179.006 500.936, 245.128 410.677, 276.162 346.528 M93.36 600.6 C141.507 512.451, 200.786 430.808, 276.162 346.528 M98.713 600.756 C169.624 517.508, 229.798 433.128, 279.763 349.119 M98.713 600.756 C152.905 499.06, 220.237 404.123, 279.763 349.119 M104.65 600.1 C177.571 491.694, 250.411 391.703, 283.364 351.71 M104.65 600.1 C161.511 501.106, 221.238 419.22, 283.364 351.71 M110.004 600.256 C176.804 535.983, 224.63 472.278, 286.381 355.113 M110.004 600.256 C161.923 498.877, 223.655 413.6, 286.381 355.113 M115.357 600.411 C169.695 554.719, 216.434 491.576, 289.983 357.704 M115.357 600.411 C153.027 533.803, 206.007 458.955, 289.983 357.704 M120.71 600.567 C177.33 507.228, 246.203 412.172, 293 361.107 M120.71 600.567 C184.226 542.4, 225.355 484.902, 293 361.107 M126.064 600.723 C186.041 556.753, 228.127 498.021, 296.017 364.51 M126.064 600.723 C175.776 538.448, 228.597 463.977, 296.017 364.51 M132.001 600.067 C173.9 531.527, 220.805 466.546, 299.034 367.913 M132.001 600.067 C169.766 565.608, 202.729 518.462, 299.034 367.913 M137.355 600.223 C212.824 523.257, 274.638 438.946, 302.052 371.315 M137.355 600.223 C156.091 551.855, 193.847 500.396, 302.052 371.315 M142.708 600.379 C202.752 531.272, 265.585 445.355, 305.069 374.718 M142.708 600.379 C188.305 548.356, 235.726 482.935, 305.069 374.718 M148.061 600.535 C226.282 515.404, 286.341 430.773, 307.502 378.933 M148.061 600.535 C169.246 544.474, 202.176 498.646, 307.502 378.933 M153.415 600.691 C197.374 506.93, 252.558 429.467, 310.519 382.336 M153.415 600.691 C222.509 521.821, 280.186 440.489, 310.519 382.336 M159.352 600.035 C219.9 549.307, 264.835 485.466, 312.953 386.55 M159.352 600.035 C227.868 529.182, 279.087 458.979, 312.953 386.55 M164.705 600.191 C224.247 525.661, 284.008 444.248, 315.386 390.765 M164.705 600.191 C203.547 541.878, 235.497 498.165, 315.386 390.765 M170.059 600.347 C238.495 536.272, 292.117 460.996, 317.235 395.791 M170.059 600.347 C210.742 547.487, 253.326 488.028, 317.235 395.791 M175.412 600.503 C217.493 510.576, 272.84 434.899, 319.668 400.005 M175.412 600.503 C214.367 523.681, 268.973 447.424, 319.668 400.005 M180.765 600.659 C216.563 508.878, 271.301 435.409, 321.517 405.032 M180.765 600.659 C248.581 545.321, 296.014 478.739, 321.517 405.032 M186.119 600.815 C243.359 517.312, 292.293 446.935, 323.95 409.246 M186.119 600.815 C204.131 562.273, 241.957 508.224, 323.95 409.246 M192.056 600.159 C228.007 566.783, 258.81 521.294, 325.8 414.272 M192.056 600.159 C234.274 551.611, 269.961 501.271, 325.8 414.272 M197.41 600.315 C247.175 548.768, 289.122 490.513, 328.817 417.675 M197.41 600.315 C225.135 541.664, 266.458 485.127, 328.817 417.675 M202.763 600.47 C229.972 534.583, 269.878 477.066, 330.082 423.513 M202.763 600.47 C254.307 522.897, 302.235 457.2, 330.082 423.513 M208.116 600.626 C238.807 562.857, 273.078 511.524, 331.931 428.54 M208.116 600.626 C236.895 542.598, 281.897 481.322, 331.931 428.54 M213.47 600.782 C273.023 538.103, 317.162 477.003, 333.78 433.566 M213.47 600.782 C263.012 558.074, 303.178 502.92, 333.78 433.566 M219.407 600.126 C272.211 545.907, 311.018 491.459, 335.045 439.404 M219.407 600.126 C245.139 535.554, 282.088 484.152, 335.045 439.404 M224.76 600.282 C240.678 566.43, 272.963 527.995, 336.311 445.242 M224.76 600.282 C265.475 548.338, 300.037 500.327, 336.311 445.242 M230.114 600.438 C247.411 557.851, 282.455 507.273, 337.576 451.08 M230.114 600.438 C258.126 553.839, 286.25 515.343, 337.576 451.08 M235.467 600.594 C270.003 545.896, 302.345 501.577, 338.841 456.918 M235.467 600.594 C264.881 571.62, 290.222 536.148, 338.841 456.918 M240.821 600.75 C247.635 574.342, 265.637 544.917, 340.69 461.944 M240.821 600.75 C268.584 537.606, 306.245 483.248, 340.69 461.944 M246.758 600.094 C280.878 582.151, 302.408 556.26, 341.955 467.782 M246.758 600.094 C281.294 575.956, 302.176 546.183, 341.955 467.782 M252.111 600.25 C268.75 546.1, 298.339 507.624, 343.22 473.62 M252.111 600.25 C276.388 569.825, 301.112 534.616, 343.22 473.62 M257.465 600.406 C286.528 556.803, 321.086 514.292, 345.07 478.646 M257.465 600.406 C272.767 559.999, 301.476 521.378, 345.07 478.646 M262.818 600.562 C299.857 551.82, 333.438 505.603, 346.335 484.484 M262.818 600.562 C287.205 576.005, 307.256 550.034, 346.335 484.484 M268.171 600.718 C289.93 551.905, 322.716 512.242, 347.6 490.322 M268.171 600.718 C276.894 567.739, 297.729 537.333, 347.6 490.322 M274.109 600.062 C297.203 566.502, 325.962 524.333, 348.865 496.16 M274.109 600.062 C290.935 567.542, 310.691 541.397, 348.865 496.16 M279.462 600.218 C304.881 579.824, 317.508 558.165, 350.714 501.187 M279.462 600.218 C290.403 560.516, 313.399 528.256, 350.714 501.187 M284.816 600.374 C301.883 578.401, 318.209 556.355, 351.979 507.025 M284.816 600.374 C306.884 562.77, 330.555 530.762, 351.979 507.025 M290.169 600.53 C297.483 579.666, 310.136 564.599, 353.244 512.863 M290.169 600.53 C300.925 572.356, 317.829 552.508, 353.244 512.863 M295.522 600.685 C322.414 567.725, 341.562 542.358, 355.094 517.889 M295.522 600.685 C314.572 579.622, 330.108 557.749, 355.094 517.889 M301.46 600.03 C319.703 570.057, 336.872 545.067, 356.359 523.727 M301.46 600.03 C319.149 582.911, 335.125 560.417, 356.359 523.727 M306.813 600.185 C317.731 581.221, 328.915 565.418, 358.208 528.753 M306.813 600.185 C319.859 582.164, 331.617 566.991, 358.208 528.753 M312.166 600.341 C321.449 575.53, 337.536 552.33, 360.057 533.779 M312.166 600.341 C335.225 576.65, 351.763 553.305, 360.057 533.779 M317.52 600.497 C331.772 575.219, 346.946 553.06, 361.322 539.617 M317.52 600.497 C333.996 574.136, 347.522 555.058, 361.322 539.617 M322.873 600.653 C337.198 590.877, 347.266 579.428, 363.171 544.644 M322.873 600.653 C330.149 590.938, 337.325 579.301, 363.171 544.644 M328.226 600.809 C337.339 582.859, 349.525 564.194, 365.021 549.67 M328.226 600.809 C338.789 585.856, 351.691 571.408, 365.021 549.67 M334.164 600.153 C350.059 581.316, 359.91 562.286, 366.286 555.508 M334.164 600.153 C346.101 584.574, 355.404 572.193, 366.286 555.508 M339.517 600.309 C343.094 586.452, 350.776 579.838, 368.135 560.534 M339.517 600.309 C348.804 591.152, 355.176 583.972, 368.135 560.534 M344.871 600.465 C357.884 591.525, 366.542 575.382, 369.984 565.561 M344.871 600.465 C355.865 587.586, 366.268 573.662, 369.984 565.561 M350.224 600.621 C358.205 591.364, 367.54 580.367, 371.249 571.399 M350.224 600.621 C353.468 591.227, 361.728 583.193, 371.249 571.399 M355.577 600.777 C359.607 591.809, 364.791 584.611, 373.098 576.425 M355.577 600.777 C362.198 589.395, 369.014 581.303, 373.098 576.425 M361.515 600.121 C365.374 594.378, 371.981 591.18, 374.947 581.451 M361.515 600.121 C366.806 592.821, 371.333 585.779, 374.947 581.451 M366.868 600.277 C370.694 595.466, 373.409 591.783, 376.213 587.289 M366.868 600.277 C371.684 596.134, 373.547 592.743, 376.213 587.289 M372.221 600.433 C373 598.186, 374.444 595.861, 378.062 592.315 M372.221 600.433 C373.763 598.267, 374.959 597.096, 378.062 592.315 M377.575 600.589 C378.208 600.014, 378.818 599.074, 379.327 598.153 M377.575 600.589 C378.536 599.604, 379.105 598.638, 379.327 598.153" stroke="rgb(184, 195, 170)" stroke-width="1.813" fill="none"/><path d="M0 221.4 M0 221.4 C38.273 224.577, 81.851 231.039, 115.9 243.4 M115.9 243.4 C152.322 259.08, 180.909 282.212, 215.7 303.1 M215.7 303.1 C247.946 325.14, 285.755 348.142, 306.3 377.5 M306.3 377.5 C327.002 409.522, 336.485 447.696, 345.2 487.8 M345.2 487.8 C355.012 525.849, 365.158 562.867, 378.6 600 M378.6 600 C275.641 602.186, 170.467 600.836, 0 600 M0 600 C2.112 498.941, 2.856 397.863, 0 221.4" stroke="rgb(184, 195, 170)" stroke-width="1" fill="none"/></g><g><path d="M0.296 410.441 C0.296 410.441, 0.296 410.441, 0.296 410.441 M0.296 410.441 C0.296 410.441, 0.296 410.441, 0.296 410.441 M-0.178 415.975 C0.424 414.082, 1.642 413.627, 5.091 411.367 M-0.178 415.975 C1.445 414.266, 3.533 412.574, 5.091 411.367 M0.101 420.851 C2.445 418.678, 4.946 417.347, 9.886 412.292 M0.101 420.851 C1.516 420.212, 4.032 418.513, 9.886 412.292 M-0.373 426.385 C3.926 421.707, 4.088 417.425, 14.681 413.217 M-0.373 426.385 C5.703 423.643, 9.472 419.544, 14.681 413.217 M-0.094 431.26 C9.057 425.289, 17.811 416.627, 20.229 413.484 M-0.094 431.26 C8.635 427.889, 14.583 421.875, 20.229 413.484 M0.185 436.136 C12.401 426.341, 21.086 420.446, 25.024 414.41 M0.185 436.136 C6.2 428.607, 15.044 422.644, 25.024 414.41 M-0.288 441.67 C7.377 436.452, 17.923 430.14, 29.819 415.335 M-0.288 441.67 C3.858 434.191, 11.247 427.185, 29.819 415.335 M-0.01 446.546 C9.117 433.675, 13.746 426.437, 34.614 416.26 M-0.01 446.546 C4.918 437.454, 11.517 431.083, 34.614 416.26 M0.269 451.421 C7.52 439.977, 19.687 435.544, 40.162 416.527 M0.269 451.421 C10.225 442.133, 20.429 432.268, 40.162 416.527 M-0.204 456.955 C11.36 443.453, 19.485 431.891, 44.957 417.453 M-0.204 456.955 C14.025 441.381, 30.528 426.164, 44.957 417.453 M0.075 461.831 C13.113 442.64, 25.119 431.62, 49 419.037 M0.075 461.831 C20.67 447.531, 41.103 431.236, 49 419.037 M0.354 466.706 C16.522 462.472, 29.063 449.892, 53.042 420.62 M0.354 466.706 C23.959 447.793, 43.48 430.525, 53.042 420.62 M-0.12 472.24 C21.633 460.417, 40.888 442.865, 57.085 422.204 M-0.12 472.24 C20.851 450.352, 40.095 433.399, 57.085 422.204 M0.159 477.116 C25.149 464.168, 42.097 450.279, 61.127 423.788 M0.159 477.116 C15.448 460.512, 31.994 445.917, 61.127 423.788 M-0.315 482.65 C16.986 464.994, 41.646 446.065, 65.169 425.372 M-0.315 482.65 C25.042 459.326, 43.432 441.454, 65.169 425.372 M-0.036 487.525 C26.815 458.697, 54.246 437.149, 69.212 426.955 M-0.036 487.525 C26.896 468.154, 54.026 443.445, 69.212 426.955 M0.243 492.401 C25.335 482.463, 40.884 465.046, 72.501 429.197 M0.243 492.401 C17.363 477.928, 43.074 455.393, 72.501 429.197 M-0.231 497.935 C27.852 475.529, 52.006 456.567, 75.791 431.44 M-0.231 497.935 C30.647 475.071, 54.521 454.717, 75.791 431.44 M0.048 502.811 C22.474 478.402, 45.747 462.919, 79.081 433.682 M0.048 502.811 C21.466 487.963, 40.307 472.157, 79.081 433.682 M0.327 507.686 C25.521 479.162, 52.991 457.307, 82.371 435.924 M0.327 507.686 C27.74 478.899, 46.962 462.708, 82.371 435.924 M-0.147 513.22 C20.674 499.781, 50.169 476.574, 85.66 438.166 M-0.147 513.22 C37.509 489.745, 68.809 462.779, 85.66 438.166 M0.132 518.096 C24.169 496.396, 49.439 474.428, 88.95 440.408 M0.132 518.096 C29.235 482.933, 60.449 456.386, 88.95 440.408 M-0.341 523.63 C12.981 498.812, 36.946 481.989, 92.24 442.65 M-0.341 523.63 C18.295 497.894, 38.851 478.303, 92.24 442.65 M-0.063 528.505 C31.128 523.735, 49.015 508.332, 95.529 444.892 M-0.063 528.505 C34.042 496.464, 69.809 466.042, 95.529 444.892 M0.216 533.381 C32.092 509.548, 58.842 484.597, 99.572 446.476 M0.216 533.381 C11.795 502.307, 33.498 484.414, 99.572 446.476 M-0.257 538.915 C28.182 511.195, 69.519 473.819, 102.862 448.718 M-0.257 538.915 C49.647 518.56, 87.235 485.598, 102.862 448.718 M0.022 543.791 C23.216 514.655, 57.347 485.327, 106.151 450.96 M0.022 543.791 C23.564 516.004, 52.119 491.731, 106.151 450.96 M0.301 548.666 C43.466 502.335, 83.731 466.472, 109.441 453.202 M0.301 548.666 C39.038 523.517, 76.574 490.911, 109.441 453.202 M-0.173 554.2 C42.084 506.705, 81.645 470.52, 112.731 455.445 M-0.173 554.2 C52.205 519.113, 93.791 484.876, 112.731 455.445 M0.106 559.076 C40.619 523.083, 84.662 484.524, 116.021 457.687 M0.106 559.076 C51.68 512.473, 95.766 471.095, 116.021 457.687 M-0.368 564.61 C40.4 528.789, 73.839 495.986, 119.31 459.929 M-0.368 564.61 C51.437 517.948, 92.077 482.642, 119.31 459.929 M-0.089 569.485 C35.176 534.905, 83.846 496.019, 122.6 462.171 M-0.089 569.485 C34.326 543.403, 70.587 511.369, 122.6 462.171 M0.19 574.361 C29.282 532.478, 61.183 504.643, 125.89 464.413 M0.19 574.361 C59.505 552.027, 103.955 511.574, 125.89 464.413 M-0.284 579.895 C39.295 541.554, 87.567 498.077, 128.427 467.313 M-0.284 579.895 C46.233 540.968, 93.575 497.243, 128.427 467.313 M-0.005 584.771 C43.741 544.457, 90.067 504.666, 131.716 469.556 M-0.005 584.771 C38.915 528.287, 86.953 485.893, 131.716 469.556 M0.274 589.646 C27.985 546.381, 66.045 516.491, 135.006 471.798 M0.274 589.646 C33.459 549.035, 62.641 522.997, 135.006 471.798 M-0.2 595.18 C49.388 547.08, 80.937 514.707, 138.296 474.04 M-0.2 595.18 C53.543 562.593, 101.122 522.583, 138.296 474.04 M0.079 600.056 C41.69 546.021, 86.619 503.717, 140.833 476.94 M0.079 600.056 C33.428 582.624, 67.673 551.939, 140.833 476.94 M5.627 600.323 C32.234 574.848, 60.933 547.626, 144.875 478.524 M5.627 600.323 C38.604 544.47, 85.737 502.628, 144.875 478.524 M11.928 599.931 C58.082 547.404, 107.027 501.999, 147.412 481.425 M11.928 599.931 C59.103 551.142, 104.762 510.177, 147.412 481.425 M17.475 600.198 C69.476 562.841, 116.712 520.587, 149.949 484.325 M17.475 600.198 C63.863 568.141, 97.787 538.075, 149.949 484.325 M23.776 599.807 C68.921 547.917, 116.169 506.13, 152.486 487.226 M23.776 599.807 C54.897 572.042, 98.371 531.413, 152.486 487.226 M29.324 600.074 C50.403 565.539, 83.004 535.1, 154.271 490.784 M29.324 600.074 C80.088 554.841, 122.731 517.378, 154.271 490.784 M34.871 600.341 C74.056 584.459, 108.885 556.613, 156.808 493.685 M34.871 600.341 C74.66 573.585, 110.607 541.714, 156.808 493.685 M41.172 599.95 C70.606 569.42, 107.385 537.846, 158.592 497.244 M41.172 599.95 C59.607 583.482, 83.558 561.647, 158.592 497.244 M46.72 600.217 C69.483 560.233, 104.993 532.225, 160.376 500.803 M46.72 600.217 C92.202 564.871, 132.464 529.89, 160.376 500.803 M53.02 599.825 C80.505 573.866, 103.794 550.846, 162.913 503.703 M53.02 599.825 C86.907 568.684, 119.957 540.864, 162.913 503.703 M58.568 600.092 C98.061 577.986, 137.656 545.491, 163.945 507.92 M58.568 600.092 C76.811 590.176, 98.436 569.1, 163.945 507.92 M64.116 600.359 C113.195 557.818, 148.497 526.16, 164.977 512.138 M64.116 600.359 C93.079 566.089, 120.19 542.99, 164.977 512.138 M70.416 599.968 C88.88 574.395, 107.504 556.627, 166.008 516.355 M70.416 599.968 C91.383 583.058, 113.362 563.388, 166.008 516.355 M75.964 600.235 C110.14 571.341, 133.611 547.938, 167.04 520.572 M75.964 600.235 C107.424 560.455, 143.01 529.947, 167.04 520.572 M82.265 599.844 C114.966 560.144, 148.182 529.03, 168.824 524.131 M82.265 599.844 C111.915 577.55, 142.864 550.018, 168.824 524.131 M87.812 600.111 C114.371 574.365, 140.858 550.577, 169.856 528.348 M87.812 600.111 C112.703 578.88, 139.731 555.618, 169.856 528.348 M93.36 600.378 C119.257 577.397, 136.428 563.06, 170.888 532.565 M93.36 600.378 C107.521 572.738, 129.555 552.102, 170.888 532.565 M99.661 599.986 C123.82 576.303, 145.297 556.315, 171.919 536.783 M99.661 599.986 C130.704 583.103, 159.527 559.697, 171.919 536.783 M105.208 600.253 C119.241 595.288, 131.898 580.153, 173.704 540.342 M105.208 600.253 C126.821 579.379, 148.737 563.228, 173.704 540.342 M111.509 599.862 C136.93 586.809, 159.868 565.461, 174.735 544.559 M111.509 599.862 C125.185 586.388, 146.793 569.009, 174.735 544.559 M117.057 600.129 C139.403 586.568, 156.412 571.815, 175.767 548.776 M117.057 600.129 C130.162 581.812, 144.059 572.653, 175.767 548.776 M122.605 600.396 C144.021 589.748, 157.419 577.045, 176.798 552.993 M122.605 600.396 C148.821 576.268, 170.057 557.548, 176.798 552.993 M128.905 600.005 C144.181 583.62, 165.048 566.921, 177.83 557.21 M128.905 600.005 C142.932 594.571, 153.295 583.8, 177.83 557.21 M134.453 600.272 C143.292 594.608, 153.749 586.834, 179.614 560.769 M134.453 600.272 C149.939 583.742, 164.923 571.759, 179.614 560.769 M140.753 599.88 C157.321 589.129, 171.931 576.595, 180.646 564.987 M140.753 599.88 C152.646 588.334, 169.597 575.578, 180.646 564.987 M146.301 600.147 C154.367 587.548, 161.658 581.703, 181.678 569.204 M146.301 600.147 C152.078 595.193, 160.35 586.952, 181.678 569.204 M152.602 599.756 C163.487 592.835, 175.296 585.209, 182.709 573.421 M152.602 599.756 C158.947 592.094, 165.446 588.032, 182.709 573.421 M158.149 600.023 C166.116 592.443, 175.507 582.116, 184.494 576.98 M158.149 600.023 C165.905 598.27, 171.192 591.911, 184.494 576.98 M163.697 600.29 C168.805 594.795, 175.125 591.995, 185.525 581.197 M163.697 600.29 C169.253 598.064, 174.791 593.082, 185.525 581.197 M169.998 599.899 C173.05 593.84, 177.578 591.622, 186.557 585.414 M169.998 599.899 C174.57 596.168, 178.504 592.251, 186.557 585.414 M175.546 600.166 C177.454 598.695, 182.87 595.369, 187.589 589.632 M175.546 600.166 C177.209 596.974, 179.995 593.909, 187.589 589.632 M181.846 599.774 C183.057 598.706, 184.506 598.092, 189.373 593.19 M181.846 599.774 C183.988 598.664, 186.095 597.524, 189.373 593.19 M187.394 600.041 C188.016 599.877, 188.562 599.199, 190.405 597.408 M187.394 600.041 C188.421 599.515, 188.945 599.061, 190.405 597.408" stroke="rgb(117, 138, 91)" stroke-width="2.027" fill="none"/><path d="M0 410.7 M0 410.7 C18.686 413.696, 41.233 412.933, 57.9 421.7 M57.9 421.7 C73.869 428.023, 93.116 441.426, 107.9 451.5 M107.9 451.5 C124.45 462.752, 142.728 473.859, 153.1 488.7 M153.1 488.7 C164.833 505.289, 167.187 523.371, 172.6 543.9 M172.6 543.9 C177.943 563.08, 182.454 581.363, 189.3 600 M189.3 600 C113.741 610.112, 36.753 609.861, 0 600 M0 600 C14.198 548.222, 12.993 496.859, 0 410.7" stroke="rgb(117, 138, 91)" stroke-width="1" fill="none"/></g></svg>