<?xml version="1.0" encoding="utf-8"?>
<!-- Generator: Adobe Illustrator 16.0.4, SVG Export Plug-In . SVG Version: 6.00 Build 0)  -->
<!DOCTYPE svg PUBLIC "-//W3C//DTD SVG 1.1//EN" "http://www.w3.org/Graphics/SVG/1.1/DTD/svg11.dtd">
<svg version="1.1" id="Layer_1" xmlns="http://www.w3.org/2000/svg" xmlns:xlink="http://www.w3.org/1999/xlink" x="0px" y="0px"
	 width="422.184px" height="393.381px" viewBox="0 0 422.184 393.381" enable-background="new 0 0 422.184 393.381"
	 xml:space="preserve">
<g id="BACKGROUND">
</g>
<g id="OBJECTS">
	<g>
		<path fill="#2D846D" d="M112.719,117.142c4.117,1.14,8.833-0.3,11.612-3.542c1.434-1.672,2.347-3.724,3.63-5.514
			c1.283-1.791,3.138-3.4,5.337-3.492c1.641-0.069,3.307,0.714,4.886,0.261c1.693-0.487,2.734-2.375,2.609-4.134
			s-1.212-3.335-2.58-4.447s-3.007-1.828-4.623-2.53c-2.212-0.962-4.374-2.063-6.575-3.023c-2.49-1.085-4.568,0.364-6.549,1.806
			c-1.21,0.879-2.437,1.772-3.37,2.941c-0.935,1.169-1.557,2.665-1.365,4.148c0.132,1.024,0.642,1.989,0.645,3.022
			c0.004,1.411-0.948,2.667-2.075,3.519c-1.126,0.854-2.444,1.413-3.623,2.189c-1.18,0.776-2.269,1.862-2.542,3.249
			c-0.255,1.296,0.271,2.667,1.172,3.631C110.21,116.192,111.447,116.789,112.719,117.142z"/>
		<path fill="#2D846D" d="M169.176,121.006c-0.154,1.375,0.554,2.734,1.556,3.688c1.002,0.953,2.273,1.567,3.529,2.144
			c1.495,0.688,3.087,1.357,4.725,1.198c2.264-0.22,4.166-2.105,4.755-4.303s0.003-4.597-1.219-6.517
			c-0.645-1.012-1.492-2.005-1.521-3.204c-0.035-1.415,1.095-2.643,1.143-4.058c0.053-1.568-1.293-2.909-2.791-3.382
			c-1.497-0.473-3.112-0.279-4.671-0.08l-1.997,0.661c-0.871-0.164-1.817,0.168-2.396,0.84s-0.765,1.658-0.472,2.495
			c0.429,1.223,1.729,1.985,2.139,3.213c0.425,1.272-0.227,2.645-0.978,3.754C170.228,118.57,169.326,119.673,169.176,121.006z"/>
		<path fill="#2D846D" d="M211.455,111.998c0.492,1.641,1.558,3.044,2.222,4.622s0.85,3.578-0.29,4.856
			c-0.924,1.037-2.539,1.289-3.836,0.796c-1.299-0.493-2.292-1.632-2.797-2.926s-0.562-2.73-0.371-4.106
			c0.218-1.579,0.748-3.095,1.274-4.599c0.455-1.302,2.498-4.852,1.468-6.082c-0.819-0.979-3.151-0.734-4.185-0.06
			c-0.117,0.077-0.218,0.159-0.298,0.246c-1.467,1.6-2.488,4.622-3.181,6.65c-0.794,2.322-1.188,4.808-0.696,7.239
			c0.347,1.715,1.123,3.412,0.854,5.141c-0.188,1.211-0.886,2.332-0.871,3.557c0.019,1.496,1.129,2.805,2.455,3.496
			s2.848,0.883,4.333,1.064c3.494,0.425,6.989,0.851,10.484,1.276c1.604,0.195,3.428,0.325,4.624-0.757
			c0.869-0.783,1.169-2.012,1.864-2.952c1.312-1.776,3.882-2.232,6.014-1.652c2.133,0.581,3.93,1.99,5.633,3.398
			c1.704,1.409,3.432,2.878,5.515,3.618c2.931,1.04,6.247,0.518,9.164,1.599c2.527,0.938,4.565,3.107,5.344,5.689
			c0.777,2.583,0.275,5.516-1.316,7.694c-1.177,1.61-0.014,5.074,1.167,6.684c0.359,0.487,0.831,0.907,1.059,1.469
			c0.343,0.847,0.037,1.845-0.534,2.557c-0.572,0.712-1.371,1.196-2.154,1.667c-2.688,1.614-5.856,0.546-8.434,2.334
			c-1.728,1.197-2.362,3.656-1.62,5.623c0.742,1.966,2.695,3.355,4.777,3.635c2.083,0.276,4.232-0.479,5.845-1.828
			c1.395-1.167,2.505-2.804,4.235-3.363c1.831-0.594,3.831,0.215,5.408,1.317c1.577,1.104,2.949,2.518,4.672,3.377
			c1.722,0.86,4.01,1.023,5.411-0.294c3.455-3.248,9.631-0.532,13.853,1.627c1.199,0.613,2.34,1.352,3.597,1.838
			c1.256,0.486,2.681,0.706,3.947,0.247c1.266-0.459,2.294-1.732,2.148-3.072c-0.11-1.019-0.854-1.881-1.739-2.397
			c-0.885-0.519-1.903-0.745-2.904-0.968c-3.018-0.667-6.036-1.334-9.055-2.002c-0.807-0.178-1.645-0.371-2.284-0.894
			c-0.639-0.523-1.002-1.482-0.593-2.198c0.438-0.769,1.473-0.896,2.357-0.939c3.182-0.151,6.363-0.304,9.544-0.455
			c0.85-0.04,1.794-0.125,2.354-0.764c0.472-0.534,0.528-1.324,0.398-2.025c-0.354-1.904-1.896-3.417-3.646-4.246
			s-3.708-1.087-5.629-1.338s-3.879-0.518-5.624-1.358c-1.744-0.842-3.271-2.372-3.599-4.282c-0.326-1.908,0.894-4.102,2.807-4.402
			c1.44-0.229,2.814,0.575,4.148,1.167c1.333,0.592,3.042,0.938,4.138-0.026c0.963-0.849,0.999-2.312,0.959-3.597
			c-0.059-1.887-0.114-3.774-0.172-5.661c-0.045-1.423-0.096-2.886-0.658-4.193c-0.642-1.484-1.946-2.668-3.486-3.16
			c-1.541-0.49-3.291-0.282-4.672,0.559c-2.621,1.594-6.346,1.688-9.409,1.509c-3.062-0.18-6.253-2.079-6.896-5.08
			c-0.304-1.416-0.022-2.922-0.428-4.312c-0.855-2.935-4.282-4.181-7.29-4.73c-5.447-0.998-12.607-1.454-15.529-7.029
			c-0.781-1.49-0.934-3.771-2.443-4.761c-2.391-1.563-5.896,0.34-8.532-0.167c-0.681-0.131-1.459-0.55-1.451-1.243
			c0.003-0.303,0.161-0.578,0.275-0.857c0.525-1.298,0.077-3.131-1.392-3.334c-1.701-0.235-3.827,0.287-5.473,0.688
			C217.192,102.37,209.361,105.035,211.455,111.998z"/>
		<path fill="#2D846D" d="M187.472,80.711c-0.579,0.585-0.517,1.583-0.097,2.29c0.421,0.707,1.115,1.197,1.772,1.691
			c0.658,0.495,1.323,1.046,1.633,1.808c0.48,1.174-0.002,2.512-0.6,3.63c-0.596,1.119-1.331,2.24-1.373,3.509
			c-0.048,1.461,0.868,2.817,2.047,3.682c1.18,0.864,2.6,1.321,3.991,1.765c1.909,0.608,3.949,1.222,5.882,0.694
			c1.179-0.322,2.207-1.043,3.349-1.481c2.016-0.772,4.245-0.619,6.403-0.684c2.158-0.063,4.481-0.437,6.001-1.969
			c1.823-1.835,2.442-5.778,1.257-8.124c-1.255-2.485-5.377-2.743-7.726-2.375c-2.899,0.455-5.584,1.775-8.417,2.539
			c-1.027,0.276-2.149,0.474-3.13,0.063c-1.162-0.484-1.826-1.679-2.562-2.7c-1.423-1.973-3.408-3.533-5.661-4.449
			C189.333,80.23,188.163,80.013,187.472,80.711z"/>
		<path fill="#2D846D" d="M172.297,83.275c-0.813,0.222-1.587,0.753-1.881,1.543c-0.446,1.201,0.317,2.583-0.065,3.805
			c-0.265,0.849-1.021,1.433-1.531,2.159c-0.604,0.86-0.855,2.012-0.472,2.99c0.324,0.825,1.042,1.429,1.792,1.903
			c1.104,0.699,2.335,1.196,3.615,1.461c0.771,0.158,1.602,0.227,2.317-0.1c1.163-0.528,1.657-1.896,1.937-3.143
			c0.278-1.247,0.513-2.613,1.458-3.474c0.454-0.413,1.036-0.668,1.477-1.096c0.766-0.744,0.983-1.925,0.77-2.971
			c0-1.007-0.996-2.64-2.014-2.913c-1.506-0.406-3.34-0.226-4.89-0.304C173.968,83.095,173.11,83.054,172.297,83.275z"/>
		<path fill="#2D846D" d="M181.372,93.12c-0.679,0.937-0.85,2.217-0.44,3.297c0.352,0.93,1.086,1.672,1.92,2.211
			c0.604,0.391,1.308,0.694,2.023,0.629c1.037-0.095,1.889-0.983,2.145-1.991c0.256-1.01-0.002-2.094-0.493-3.012
			c-0.42-0.789-1.309-2.352-2.268-2.562C183.225,91.463,181.942,92.332,181.372,93.12z"/>
		<path fill="#2D846D" d="M167.984,70.536c0.589-0.095,1.181-0.298,1.771-0.209c0.714,0.108,1.298,0.627,1.748,1.193
			c0.45,0.565,0.814,1.203,1.337,1.702c1.051,1.005,2.715,1.309,4.054,0.739c0.367-0.155,0.721-0.383,0.928-0.723
			c0.412-0.673,0.137-1.553-0.247-2.243c-0.385-0.689-0.882-1.372-0.902-2.161c-0.023-0.846,0.517-1.649,0.409-2.489
			c-0.119-0.922-0.977-1.567-1.836-1.917s-1.806-0.522-2.573-1.042c-0.536-0.363-0.953-0.874-1.361-1.377
			c-0.407-0.504-0.822-1.016-1.354-1.383c-0.534-0.366-1.215-0.573-1.838-0.399c-0.827,0.229-1.203,0.934-0.707,1.592
			c0.535,0.709,1.022,1.42,1.395,2.233c0.272,0.597,0.473,1.347,0.076,1.869c-0.224,0.294-0.585,0.439-0.908,0.619
			c-0.744,0.415-1.346,1.076-1.688,1.855c-0.244,0.552-0.337,1.25,0.043,1.718C166.706,70.577,167.394,70.63,167.984,70.536z"/>
		<path fill="#2D846D" d="M187.516,60.244c0.611,0.03,2.722-0.211,1.97,0.869c-0.619,0.892-2.206,1.258-3.021,1.988
			c-0.815,0.728-1.421,1.768-1.367,2.857c0.064,1.313,1.029,2.383,1.938,3.332c1.299,1.355,2.879,2.386,4.586,1.12
			c0.991-0.706,2.484-1.639,2.857-2.872c0.379-1.257,0.536-2.62,0.91-3.899c0.187-0.635,0.4-1.312,0.925-1.712
			c0.447-0.341,1.036-0.414,1.558-0.622c2.638-1.054,2.065-4.145,0.677-5.967c-0.862-1.132-2.164-1.885-3.542-2.238
			c-1.08-0.278-2.207-0.325-3.295-0.571c-1.089-0.246-2.188-0.737-2.812-1.663c-0.524-0.781-0.641-1.756-0.933-2.65
			c-0.504-1.542-1.58-2.888-2.973-3.719c-0.936-0.558-2.299-0.81-2.99,0.03c-0.599,0.727-0.317,1.82,0.105,2.66
			c0.424,0.84,0.979,1.71,0.841,2.641c-0.202,1.373-1.792,2.136-2.229,3.452c-0.417,1.255,0.332,2.592,1.19,3.599
			C183.345,58.56,185.176,60.129,187.516,60.244z"/>
		<path fill="#2D846D" d="M191.208,45.779c0.781,1.084,1.483,2.12,2.674,2.812c1.328,0.772,3.102,0.927,4.363,0.051
			c0-0.134,1.084-1.062,1.234-1.236c0.365-0.425,0.74-0.928,1.246-1.194c1.163-0.612,2.125-1.529,3.145-2.386
			c0.687-0.577,1.526-1.192,2.395-0.969c0.574,0.147,1.008,0.656,1.19,1.219c0.183,0.564,0.146,1.177,0.037,1.759
			c-0.195,1.03-0.744,2.13-1.754,2.412c-0.971,0.271-2.008-0.312-2.998-0.127c-0.596,0.112-1.128,0.517-1.396,1.06
			c-0.268,0.542-0.265,1.211,0.007,1.751c0.151,0.301,0.39,0.622,0.274,0.938c-0.118,0.327-0.558,0.42-0.888,0.313
			c-0.33-0.107-0.598-0.351-0.899-0.52c-0.303-0.169-0.705-0.256-0.983-0.049c-0.351,0.26-0.285,0.833-0.003,1.167
			c0.281,0.333,0.702,0.505,1.078,0.727c1.069,0.631,1.535,1.755,2.405,2.566c0.926,0.864,1.711,2.027,1.905,3.296
			c0.162,1.07-0.198,2.273-1.099,2.874c-0.586,0.391-1.468,0.575-2.168,0.507c-0.651-0.063-1.177-0.339-1.871-0.191
			c-0.891,0.188-1.604,0.917-1.942,1.762c-0.34,0.845-0.344,1.792-0.196,2.689c0.227,1.385,0.828,2.74,1.865,3.685
			c1.038,0.944,2.543,1.421,3.894,1.044c0.585,0.322,0.865,1.104,0.619,1.725c-0.247,0.62-0.989,0.996-1.635,0.827
			c-0.521-0.135-0.891-0.546-1.243-0.926c-0.395-0.424-0.954-0.696-1.531-0.792c-0.45-0.075-0.952,0.017-1.267,0.348
			c-0.415,0.437-0.382,1.113-0.461,1.71c-0.11,0.833-0.557,1.834-1.168,2.429c-0.301,0.29-0.816,0.402-1.188,0.574
			c-0.438,0.201-0.869,0.438-1.178,0.816c-0.71,0.87-0.506,2.251,0.252,3.08c0.759,0.829,1.93,1.171,3.052,1.194
			c1.124,0.021,2.23-0.236,3.337-0.43c1.106-0.192,2.256-0.32,3.345-0.042c1.03,0.265,2.075,0.89,3.089,0.559
			c1.616-0.529,1.726-2.971,3.184-3.849c0.769-0.462,1.746-0.379,2.61-0.139c0.863,0.24,1.693,0.624,2.584,0.725
			c0.891,0.103,1.902-0.155,2.375-0.918c0.615-0.997,0.027-2.32-0.79-3.158c-1.012-1.036-2.334-1.702-3.63-2.35
			c0.812-0.812,0.527-2.958,0.37-4.098c-0.05-0.355-0.151-0.709-0.12-1.067c0.079-0.933,0.99-1.555,1.854-1.918
			s1.834-0.656,2.375-1.42c0.557-0.787,0.482-1.883,0.078-2.757c-0.543-1.175-0.362-2.455-1.27-3.54
			c-0.684-0.815-1.696-1.346-2.757-1.443c-0.471-0.043-0.974-0.011-1.383-0.248c-0.673-0.391-0.778-1.373-0.45-2.076
			c0.33-0.705,0.971-1.204,1.569-1.7c1.007-0.834,1.957-1.737,2.841-2.7c0.602-0.652,2.174-2.003,2.156-2.925
			c-0.021-1.192-0.791-2.237-1.043-3.402c-0.324-1.5,0.236-3.053,0.987-4.391c0.751-1.337,1.705-2.569,2.277-3.992
			c0.51-1.263,0.635-2.637,0.126-3.917c-0.153-0.391-0.302-0.708-0.617-0.99c-0.372-0.332-0.877-0.545-0.889-1.124
			c-0.01-0.526,0.45-0.923,0.748-1.358c0.675-0.986,0.537-2.319,0.16-3.453c-0.56-1.688-1.921-3.249-2.876-4.755
			c-0.465-0.733-1.083-1.554-1.951-1.541c-0.646,0.009-1.188,0.502-1.555,1.036c-0.365,0.535-0.628,1.146-1.079,1.612
			c-1.492,1.542-3.83,0.667-5.688,0.877c-1.065,0.12-2.075,0.499-3.054,0.923c-0.794,0.346-1.416,0.427-2,1.123
			c-0.728,0.869-0.731,2.114-1.086,3.191c-0.631,1.923-2.399,3.144-4.341,3.448c-1.036,0.162-2.089,0.372-2.993,0.901
			c-0.904,0.53-1.645,1.441-1.713,2.487c-0.036,0.543,0.104,1.124-0.133,1.614c-0.21,0.434-0.673,0.691-1.139,0.82
			c-0.465,0.128-0.952,0.156-1.419,0.278c-1.51,0.396-2.66,1.884-2.665,3.446c-0.003,1.284,0.693,2.489,1.619,3.379
			C188.94,44.328,190.494,44.791,191.208,45.779z"/>
		<path fill="#2D846D" d="M187.315,72.818c-0.512-0.148-1.046-0.266-1.492-0.561c-0.563-0.372-0.604-0.801-0.707-1.398
			c-0.094-0.54-0.525-1.075-1.013-1.312c-0.519-0.252-1.194-0.196-1.62,0.195c-0.479,0.443-0.551,1.179-0.457,1.825
			c0.095,0.646,0.32,1.277,0.314,1.93c-0.004,0.466-0.125,0.922-0.182,1.384c-0.111,0.931,0.053,1.892,0.468,2.731
			c0.161,0.326,0.387,0.657,0.733,0.766c0.29,0.092,0.602,0.009,0.894-0.074c0.318-0.092,0.638-0.182,0.958-0.271
			c0.732-0.208,1.475-0.419,2.146-0.784c0.67-0.363,1.274-0.9,1.576-1.602c0.292-0.676,0.257-1.526-0.227-2.081
			C188.355,73.164,187.828,72.966,187.315,72.818z"/>
		<path fill="#2D846D" d="M193.388,77.02c0.471,0.014,0.926-0.273,1.16-0.684c0.234-0.408,0.258-0.92,0.112-1.368
			c-0.33-1.005-1.446-1.594-2.503-1.591c-0.589,0.001-1.439,0.193-1.265,0.937c0.168,0.714,0.695,1.438,1.186,1.967
			C192.428,76.658,192.873,77.004,193.388,77.02z"/>
		<path fill="#2D846D" d="M219.594,182.454c1.025,0.802,2.612,0.215,3.761,0.826c1.537,0.817,1.685,3.412,3.381,3.797
			c1.271,0.288,2.377-0.977,2.782-2.215s0.477-2.633,1.262-3.672c1.162-1.536,3.436-1.692,5.311-1.249
			c1.874,0.441,3.658,1.342,5.582,1.429c0.773,0.036,1.711-0.182,1.958-0.917c0.218-0.649-0.242-1.333-0.76-1.783
			c-1.444-1.256-3.411-1.666-5.205-2.335c-1.793-0.669-3.648-1.858-4.026-3.735c-0.135-0.665-0.077-1.396-0.431-1.976
			c-0.336-0.55-0.969-0.834-1.563-1.087c-2.128-0.903-4.256-1.808-6.385-2.711c-1.055-0.448-3.418-1.358-4.015,0.22
			c-0.451,1.192,0.657,3.38,0.761,4.649c0.14,1.729-0.108,3.535-0.997,5.026c-0.56,0.938-1.356,1.73-1.813,2.724
			C218.738,180.437,218.734,181.781,219.594,182.454z"/>
		<path fill="#00C195" d="M69.365,195.737c0.005-0.023,0-0.043,0.007-0.066c1.155-3.61,0.53-7.583-1.624-10.702
			c-1.069-1.548-2.515-2.509-3.946-3.673c-1.358-1.104-2.185-2.552-1.953-4.341c0.221-1.694,1.241-3.118,1.738-4.727
			c0.571-1.853,0.002-3.76-0.205-5.624c-0.203-1.833,0.084-3.448,0.952-5.077c0.729-1.37,2.185-3.184,1.519-4.854
			c-0.515-1.293-2.431-1.248-3.566-1.549c-1.122-0.298-2.194-0.89-2.59-2.054c-0.534-1.579,0.436-2.94,1.295-4.176
			c1.016-1.461,1.286-2.92,1.27-4.679c-0.029-3.08-0.53-6.25,1.589-8.803c0.494-0.596,1.503-1.379,0.946-2.191
			c-0.354-0.516-1.151-0.795-1.652-1.145c-1.199-0.833-1.91-1.962-1.908-3.454c0.005-1.607,0.734-3.147,1.435-4.558
			c0.804-1.622,1.761-3.166,2.849-4.614c1.714-2.281,3.729-4.278,5.98-6.005c-0.084-0.085-0.175-0.162-0.256-0.253
			c-1.398-1.581-1.826-3.794-2.866-5.621c-1.041-1.856-3.315-3.407-5.162-2.396c-12.619,14.647-25.247,29.266-37.866,43.914
			c-2.122,2.448-4.253,4.968-5.313,8.1c-0.971,2.877-0.735,5.65-3.07,7.978c-0.747,0.746-1.679,1.457-2.024,2.412
			c9.837,7.911,20.772,14.381,32.247,19.623C54.415,190.504,61.828,193.306,69.365,195.737z"/>
		<path fill="#2D846D" d="M65.661,122.789c-0.983,1.603-2.223,3.572-2.408,5.485c-0.193,1.99,1.69,2.302,2.854,3.436
			c0.992,0.968,1.128,2.352,0.428,3.536c-0.816,1.377-1.977,2.21-2.264,3.888c-0.524,3.074,0.601,6.271-0.674,9.247
			c-0.429,1.002-2.665,3.155-1.889,4.255c0.613,0.87,2.568,0.794,3.494,1.104c2.958,0.993,3.271,4.052,2.071,6.592
			c-0.833,1.765-2.022,3.192-1.969,5.248c0.047,1.794,0.619,3.549,0.524,5.354c-0.096,1.794-0.944,3.247-1.596,4.877
			c-0.34,0.851-0.655,1.838-0.239,2.723c0.324,0.69,0.999,1.187,1.594,1.628c2.518,1.872,4.426,4.027,5.518,7.019
			c1.055,2.889,1.131,6.098,0.194,9.024c-0.016,0.051-0.049,0.08-0.07,0.125c16.663,5.226,33.904,8.67,51.099,11.567
			c13.052,2.199,26.15,4.386,39.313,5.826c0.069-5.005,0.14-10.009,0.209-15.013c0.038-2.722,0.076-5.443,0.113-8.167
			c0.02-1.401,0.044-2.805,0.058-4.207c0.014-1.197,0.07-2.509-0.495-3.606c-0.834-1.623-2.772-2.246-4.422-2.665
			c-2.144-0.545-4.331-0.947-6.493-1.409c-2.399-0.514-4.802-1.018-7.199-1.54c-1.596-0.347-3.217-0.758-4.647-1.566
			c-1.361-0.768-2.423-1.895-2.954-3.377c-0.33-0.92-0.366-1.995-0.863-2.848c-0.534-0.915-1.551-1.166-2.517-1.385
			c-1.739-0.395-3.338-0.812-4.821-1.854c-1.425-1.002-2.601-2.271-3.648-3.652c-2.271-2.997-3.784-6.592-6.528-9.219
			c-1.453-1.391-3.168-2.084-4.999-2.828c-1.508-0.613-2.982-1.336-4.001-2.65c-1.779-2.297-1.357-5.282-0.778-7.926
			c0.593-2.7,1.795-5.95,0.031-8.447c-0.45-0.638,0.156-1.502,0.863-1.505c2.504-0.01,5.01-0.021,7.514-0.029
			c-1.121-2.352-2.026-5.049-4.436-5.828c-2.254-0.745-5.009,0.632-6.947-0.724c-1.896-1.347-1.53-4.325-2.866-6.223
			c-1.062-1.562-3.091-2.163-4.968-2.143c-1.887,0.041-3.693,0.603-5.549,0.949c-3.856,0.714-7.824,0.449-11.752,0.153
			c-0.244-0.021-0.469-0.021-0.725-0.071c-1.693-0.112-3.438-0.336-4.958-0.959c-0.236-0.094-0.466-0.2-0.689-0.314
			C70.176,116.862,67.607,119.614,65.661,122.789z"/>
		<path fill="#2D846D" d="M311.774,192.258c1.445,0.562,3.07,0.266,4.461,1.055c1.175,0.666,1.893,1.819,2.469,3.001
			c0.7,1.436,1.345,2.771,2.497,3.917c1.19,1.184,2.61,2.096,4.032,2.974c4.191,2.587,9.478,6.009,8.448,11.751
			c-0.429,2.396-2.216,4.222-4.601,4.726c-2.718,0.572-5.097-0.406-7.627-1.227c-1.285-0.415-3.21-0.816-4.146,0.497
			c-0.836,1.176-0.097,2.847,0.573,3.895c0.888,1.389,2.03,2.568,2.74,4.074c0.606,1.291,0.998,2.653,1.359,4.029
			c0.69,2.619,1.396,5.808,3.928,7.286c1.34,0.782,2.94,0.979,4.307,1.724c1.013,0.554,1.892,1.322,2.796,2.031
			c1.058,0.83,2.258,1.721,3.667,1.706c1.521-0.015,2.885-1.013,3.332-2.466c0.906-2.954-2.538-4.578-2.461-7.414
			c0.053-1.943,1.81-3.782,3.804-2.758c0.981,0.505,1.496,1.487,2.206,2.28c1.132,1.264,2.591,0.825,3.937,0.112
			c2.975-1.577,5.741-3.701,8.555-5.549l8.579-5.637c2.339-1.538,4.687-3.238,7.617-2.321c0.973,0.305,2.693,1.413,4.247,1.835
			c0.051-0.074,0.103-0.148,0.15-0.223c0.082-0.122,0.164-0.245,0.245-0.367c1.326-2.051,2.295-4.192,1.836-6.835
			c-0.479-2.632-2.325-5.212-5.121-5.59c-3.366-0.449-6.772-1.356-10.2-1.266c-0.561-1.51-1.152-3.02-2.082-4.305
			c-0.938-1.316-2.273-2.397-3.835-2.714c-1.938-0.356-3.876,0.479-5.682,1.307c-2.531,1.203-5.1,2.396-7.855,2.754
			c-2.773,0.389-5.813-0.245-7.73-2.255c-2.082-2.162-2.603-5.568-4.917-7.446c-1.836-1.469-4.295-1.643-6.59-1.959
			c-2.57-0.336-4.765-1.02-6.049-3.346c-0.652-1.192-1.51-2.142-2.396-3.172c-0.714-0.837-2.204-3.458-3.172-3.795
			c-0.685-0.225-1.398-0.275-2.103-0.184c-1.255,0.167-2.449,0.804-3.338,1.719c0.455,0.819,0.782,1.731,1.055,2.637
			C309.277,188.637,309.669,191.44,311.774,192.258z"/>
		<path fill="#2D846D" d="M83.938,269.974c-2.289-1.691-4.355-3.094-4.856-6.103c-0.25-1.494-0.146-3.281-1.059-4.568
			c-0.733-1.037-1.914-1.67-2.688-2.682c-1.972-2.575-0.329-6.043,0.486-8.758c4.461-14.844,8.921-29.688,13.381-44.531
			c-4.055-0.974-8.094-2.015-12.104-3.158c-21.496-6.129-42.438-15.112-60.315-28.634c0.365,0.385,0.717,0.779,0.987,1.205
			c0.368,0.571,0.572,1.203,0.686,1.866c0.224,1.337,0.029,2.785-0.134,4.152c-0.255,2.04-0.326,4.364,1.072,5.875
			c1.448,1.562,3.846,1.622,5.967,1.652c2.122,0.04,4.57,0.348,5.733,2.121c0.827,1.285,0.714,2.948,0.409,4.438
			c-0.308,1.488-0.786,2.999-0.582,4.509c0.286,2.07,1.805,3.805,2.173,5.865c0.602,3.305-1.836,6.56-1.408,9.885
			c0.367,2.795,4.345,6.763,1.847,9.323c-0.837,0.866-1.979,1.255-2.693,2.285c-1.347,1.938-0.531,3.876,0.49,5.753
			c1.355,2.459,0.274,5.498-0.949,8.049c-1.193,2.55-2.54,5.396-1.622,8.059c0.653,1.897,2.326,3.203,3.663,4.692
			c1.346,1.489,2.458,3.56,1.713,5.437c-0.479,1.133-1.54,1.897-2.213,2.907c-1.021,1.489-1.123,3.387-0.704,5.091
			c0.458,1.847,1.082,3.102,3.121,3.192c0.888,0.041,1.846,0.03,2.53,0.592c0.551,0.459,0.785,1.184,0.888,1.887
			c0.265,1.673,0.551,2.744,1.682,4.04c1.031,1.173,2.092,2.326,2.725,3.774c0.633,1.438,0.929,2.999,1.488,4.438
			c0.593,1.47,1.582,2.866,3.052,3.387c11.547,3.887,22.492,12.415,34.581,13.812c4.735,0.552,9.53,0.524,14.3,0.691
			c-2.044-7.654-4.501-15.189-6.997-22.708C87.586,274.807,86.576,271.922,83.938,269.974z"/>
		<path fill="#F9B812" d="M217.338,162.648c1.122-0.296,2.294-0.226,3.468-0.226c2.917-0.051,5.825-0.684,8.508-1.855
			c1.132-0.51,2.234-1.122,3.02-2.071c0.815-0.928,1.265-2.254,0.908-3.427c-0.521-1.745-2.529-2.685-3.07-4.428
			c-0.612-1.958,0.948-3.947,1.061-6.02c0.091-1.896-1.123-3.703-2.704-4.784c-1.581-1.061-3.499-1.541-5.375-1.855
			c-2.387-0.377-5.386-0.267-6.478,1.877c-0.622,1.285-0.306,2.846,0.276,4.131c0.611,1.306,1.447,2.479,1.896,3.835
			c0.54,1.644,0.377,3.632-0.815,4.917c-1.174,1.285-3.5,1.469-4.621,0.112c-1.511-1.826-0.112-5.009-1.713-6.794
			c-2.193-2.407-6.928,0.745-9.304-1.511c-1.733-1.672-0.51-4.65-1.305-6.926c-0.878-2.57-3.948-3.499-6.57-4.224
			c-2.591-0.744-5.61-2.143-5.926-4.825c-0.388-3.479,3.968-5.621,4.875-8.977c0.51-1.938-0.163-4.132,0.735-5.917
			c0.683-1.377,2.192-2.213,2.846-3.581c1.02-2.122-0.562-4.835-2.795-5.488c-2.234-0.633-4.713,0.5-6.181,2.326
			c-1.448,1.826-2.011,4.191-2.122,6.539c-0.112,2.326,0.151,4.651,0.204,6.978c0.02,2.347-0.204,4.733-1.286,6.814
			c-1.112,2.122-3.07,3.896-3.347,6.294c-0.286,2.499,1.47,4.784,3.388,6.447c1.896,1.673,4.13,3.069,5.417,5.264
			c1.284,2.183,1.132,5.498-1.103,6.702c-1.336,0.692-2.917,0.428-4.427,0.406c-1.489-0.05-3.245,0.308-3.896,1.644
			c-0.407,0.856-0.296,1.896-0.837,2.662c-1.02,1.47-3.273,0.766-4.835-0.071c-1.551-0.826-5.386-2.183-6.018-0.54
			c-0.388,0.948-1.898,0.796-2.571,0.021c-0.704-0.745-0.969-1.826-1.631-2.612c-1.061-1.285-2.908-1.58-4.581-1.784
			c-2.03-0.225-4.04-0.47-6.07-0.694c-1.305-0.162-2.835-0.255-3.723,0.715c-1.286,1.407-0.245,3.61-0.377,5.509
			c-0.092,1.244-0.796,2.438-1.826,3.162c-0.143,0.062-0.255,0.152-0.387,0.225c-1.265,0.653-2.846,0.633-4.062-0.071
			c-3.019-1.714-2.979-6.427-5.772-8.507c-1.45-1.062-3.316-1.193-5.102-1.419c-1.784-0.224-3.703-0.673-4.783-2.101
			c-1.245-1.644-0.929-3.948-0.612-5.979c0.337-2.05,0.571-4.151-0.836-5.662c-3.162,0-6.273-1.387-8.487-3.642
			c-0.432-0.438-0.815-0.918-1.171-1.418c-2.346,0.009-4.692,0.019-7.038,0.027c0.88,2.497,0.121,5.342-0.46,7.882
			c-0.357,1.566-0.782,3.253-0.517,4.869c0.337,2.056,1.963,3.109,3.763,3.854c1.627,0.674,3.251,1.241,4.67,2.319
			c1.473,1.117,2.657,2.524,3.716,4.031c2.173,3.086,3.763,6.71,6.74,9.149c1.584,1.299,3.301,1.649,5.229,2.137
			c1.686,0.427,3.06,1.277,3.695,2.965c0.678,1.8,0.684,3.469,2.472,4.595c1.546,0.974,3.418,1.312,5.177,1.688
			c4.479,0.958,9.089,1.686,13.496,2.935c1.596,0.452,3.233,1.133,4.357,2.398c1.242,1.4,1.504,3.223,1.511,5.028
			c0.028,9.409-0.243,18.829-0.386,28.238c10.075,1.038,20.253,1.52,30.359,0.831c-0.213-1.909-0.247-3.8,0.679-5.556
			c1.041-2.01,2.684-3.724,3.907-5.62c1.846-2.866,3.631-5.754,5.458-8.619c0.877-1.367,1.754-2.744,2.927-3.877
			c2.53-2.417,6.294-3.314,8.65-5.957c0.878-0.989,0.938-2.011,1.347-3.224c0.541-1.674,1.245-3.11,1.377-4.896
			c0.337-4.243-1.286-8.641-3.56-12.21C215.103,163.688,216.206,162.944,217.338,162.648z"/>
		<path fill="#2D846D" d="M192.737,278.226c-0.063-2.414,0.127-4.836,1.055-7.089c0.861-2.095,2.185-3.921,3.57-5.693
			c6.454-8.247,13.049-16.389,19.585-24.571c-1.505-0.075-3.023-0.065-4.506-0.065c-4.63,0-9.701-0.43-12.934-3.725
			c-2.775-2.824-3.427-7.019-3.968-10.944c-0.093-0.674-0.184-1.336-0.275-2.011c-0.245-1.795-0.49-3.601-0.735-5.405
			c-0.095-0.665-0.182-1.326-0.271-1.988c-10.373,0.713-20.798,0.227-31.155-0.854c-0.014,0.009-0.026,0.019-0.042,0.024
			c-0.03,6.836-0.023,13.672,0.022,20.507c0.165,23.898,0.824,47.791,1.936,71.663c3.095-0.96,6.204-1.86,9.384-2.4
			c5.845-0.974,13.588-0.989,19.983,0.896c-0.241-4.077-0.481-8.153-0.722-12.229C193.348,288.975,192.88,283.597,192.737,278.226z"
			/>
		<path fill="#2D846D" d="M130.816,211.419c0.005-0.03,0.022-0.049,0.028-0.078c-4.526-0.742-9.048-1.505-13.561-2.293
			c-8.753-1.526-17.481-3.224-26.134-5.249c-2.461,8.192-4.923,16.386-7.385,24.577c-2.196,7.31-4.393,14.617-6.588,21.928
			c-0.483,1.607-1.378,3.654-0.224,5.166c0.739,0.968,1.858,1.571,2.597,2.554c1.769,2.354,0.655,5.729,2.562,7.956
			c0.943,1.103,2.272,1.818,3.408,2.699c1.039,0.804,1.91,1.745,2.607,2.862c1.683,2.693,2.47,5.985,3.456,8.973
			c2.193,6.65,4.312,13.328,6.099,20.103c2.453,0.125,4.896,0.323,7.315,0.722c4.643,0.764,9.172,2.214,13.664,3.812
			c0.681-5.404,1.36-10.81,2.042-16.214C123.96,263.082,127.155,237.219,130.816,211.419z"/>
		<path fill="#2D846D" d="M314.51,319.75c0.393-0.589,0.848-1.146,1.409-1.671c-0.742-0.657-1.628-1.123-2.71-1.257
			c-2.982-0.369-5.539,2.39-8.434,2.783c-5.625,0.768-8.469-5.105-10.882-9.073c-1.583-2.601-3.419-4.336-6.408-5.151
			c-2.564-0.698-5.238-1.049-7.396-2.735c-2.117-1.654-2.749-4.006-2.17-6.584c0.35-1.56,1.056-3.044,1.16-4.654
			c0.104-1.573-0.27-3.115-0.846-4.57c-1.479-3.736-4.316-7.021-5.819-10.733c-2.182,0.887-4.926,0.598-6.958-0.715
			c-2.929-1.866-4.581-5.213-5.642-8.527c-1.03-3.295-1.602-6.784-3.061-9.945c-1.448-3.143-4.039-6.05-7.446-6.702
			c-4.631-0.878-9.384,2.551-13.924,1.214c-4.039-1.193-6.109-5.683-9.588-8.1c-1.922-1.323-4.144-1.951-6.464-2.25
			c-3.733,4.684-7.467,9.364-11.2,14.047c-3.285,4.117-6.679,8.171-9.847,12.379c-1.401,1.862-2.674,3.856-3.206,6.152
			c-0.579,2.494-0.333,5.11-0.184,7.639c0.512,8.656,1.022,17.312,1.534,25.97c1.972,0.753,3.774,1.708,5.272,2.92
			c3.151,2.57,6.427,5.192,10.281,6.539c3.867,1.355,8.487,1.244,11.649-1.326c2.458-1.959,3.692-5.029,5.346-7.691
			c1.643-2.692,4.284-5.264,7.426-5.06c3.04,0.184,5.254,2.846,7.242,5.192c4.061,4.804,8.702,9.14,13.803,12.812
			c2.824,2.062,6.008,4.131,9.322,2.571c3.612-1.715,6.988-2.856,11.059-2.185c3.469,0.582,6.651,2.275,9.741,3.948
			c1.675,0.897,3.521,2.05,3.796,3.906c0.336,2.163-1.767,4.061-3.929,4.325c-1.488,0.204-2.958-0.174-4.335-0.673
			c-1.245-0.43-2.122-1.356-3.05-0.275c-1.622,1.948-1.846,5.824-1.305,8.15c0.274,1.192,0.795,2.417,0.56,3.631
			c-0.285,1.561-1.663,2.643-2.887,3.651c-3.02,2.621-5.438,5.916-7.019,9.59c-0.489,1.132-0.896,2.417-0.489,3.59
			c1.306,3.724,5.641,1.397,7.967,0.562c3.019-1.081,5.549-2.295,8.211-4.191c3.428-2.418,6.611-5.173,9.538-8.171
			c1.49-1.53,2.938-3.133,4.295-4.784c0.694-0.857,0.857-1.081,0.918-2.071c0.072-0.999-0.204-1.692,0.521-2.601
			c0.795-0.97,2.05-1.46,3.295-1.622c1.244-0.153,2.509-0.062,3.743-0.112c2.051-0.092,4.091-0.581,5.938-1.469
			c0.725-0.337,1.438-0.766,1.938-1.377c0.5-0.622,0.745-1.489,0.479-2.234c-0.592-1.51-2.754-1.602-3.866-2.774
			c-1.806-1.938,0.163-4.264,0.775-6.182C313.132,322.341,313.673,320.984,314.51,319.75z"/>
		<path fill="#2D846D" d="M161.062,215.662c-0.964-0.107-1.927-0.221-2.889-0.338c-8.5-1.032-16.983-2.304-25.445-3.677
			c0.015,0.098,0.033,0.193,0.018,0.304c-1.037,7.308-2.037,14.621-3.01,21.938c-3.185,23.966-6.149,47.96-9.164,71.946
			c9.082,3.299,18.061,6.884,27.584,6.265c5.101-0.335,9.987-1.867,14.883-3.407c-0.283-6.018-0.543-12.034-0.767-18.054
			C161.349,265.658,160.951,240.659,161.062,215.662z"/>
		<path fill="#2D846D" d="M407.61,232.12c0.396-2.032-0.467-4.076-1.308-5.969c-0.307-0.688-0.622-1.394-1.148-1.931
			c-0.526-0.539-1.315-0.888-2.042-0.687c-1.614,0.447-1.939,3.134-3.611,3.254c-1.522,0.11-2.297-2.08-3.806-2.324
			c-1.265-0.203-2.251,1.024-2.952,2.096c-0.654,0.996-1.712,2.119-2.823,1.691c-0.804-0.309-1.109-1.273-1.216-2.127
			c-0.107-0.852-0.15-1.793-0.738-2.42c-0.845-0.899-2.394-0.706-3.34-1.498c-1.164-0.976-0.831-2.63-0.285-3.825
			c0.297-0.65,0.775-1.16-0.078-1.416c-1.403-0.419-3.479,1.538-3.814,2.72c-0.509,1.789,0.402,3.727-0.44,5.468
			c-0.706,1.46-2.436,2.208-3.156,3.66c-0.846,1.704-0.051,3.714,0.509,5.533c1.287,4.179,1.249,8.756-0.106,12.912
			c-0.456,1.398-1.063,2.786-1.089,4.258c-0.025,1.471,0.73,3.09,2.144,3.497c1.153,0.333,2.397-0.233,3.277-1.05
			c0.88-0.815,1.504-1.864,2.271-2.785c0.77-0.923,1.77-1.758,2.962-1.882c0.906-0.095,1.852,0.229,2.718-0.051
			c1.526-0.493,1.907-2.443,2.911-3.696c1.679-2.09,5.259-2.333,6.247-4.823c0.259-0.653,0.326-1.444,0.874-1.886
			c0.667-0.534,1.746-0.196,2.221,0.515c0.476,0.711,0.469,1.644,0.284,2.479c-0.184,0.834-0.522,1.632-0.664,2.476
			c-0.141,0.843-0.049,1.788,0.527,2.42c1.038,1.139,3.106,0.554,3.917-0.758s0.694-2.981,0.409-4.496
			c-0.285-1.516-0.712-3.059-0.432-4.573C406.141,235.224,407.284,233.793,407.61,232.12z"/>
		<path fill="#2D846D" d="M143.253,123.826c0.139-2.031,0.262-4.062,0.394-6.094c0.136-2.096,0.271-4.193,0.406-6.29
			c-0.382,0.104-0.775,0.172-1.171,0.149c-2.866-0.132-4.885-3.999-8.048-2.488c-2.021,0.969-2.479,3.723-4.233,5.1
			c-1.49,1.185-3.57,1.122-5.448,1.459c-1.876,0.336-3.978,1.591-3.885,3.489c0.071,1.346,1.275,2.396,2.539,2.836
			c1.275,0.449,2.653,0.458,3.969,0.714c1.335,0.245,2.61,0.755,3.765,1.469c0.948,0.593,1.836,1.367,2.244,2.408
			c0.407,1.04,0.203,2.376-0.693,3.04c-1.184,0.867-8.864-1.724-6.682,1.356c0.152,0.225,0.356,0.407,0.57,0.592
			c0.24,0.183,0.513,0.341,0.795,0.491c2.703-0.942,5.568,0.462,8.187,1.413c0.848,0.307,1.756,0.619,2.667,0.639
			c0.398,0.009,1.003-0.009,1.229-0.431c0.164-0.307-0.044-0.996-0.04-1.341c0.021-1.624,1.099-2.339,2.057-3.475
			C143.032,127.488,143.137,125.537,143.253,123.826z"/>
		<path fill="#F9B812" d="M159.591,107.931c-0.612-0.897-1.336-1.765-2.356-2.081c-1.642-0.5-3.428,0.724-4.08,2.314
			c-0.652,1.592-0.419,3.397,0,5.061c0.275,1.102,0.633,2.203,0.633,3.346c0,1.132-0.429,2.346-1.397,2.948
			c-2.204,1.346-3.408-1.49-3.662-3.172c-0.397-2.458,0.389-5.111-0.683-7.468c-0.062-0.01-0.113-0.021-0.174-0.021
			c-0.418-0.03-0.827,0.184-1.133,0.469c-0.222,0.203-0.406,0.437-0.591,0.669c-0.192,2.984-0.386,5.969-0.579,8.954
			c-0.134,2.071-0.208,4.157-0.422,6.221c-0.169,1.619-0.489,3.266-1.464,4.609c-0.477,0.659-1.315,1.172-1.696,1.883
			c-0.407,0.765,0.02,1.723-0.199,2.545c-0.376,1.416-1.825,1.938-3.158,1.899c-2.597-0.072-5.493-2.149-8.203-2.384
			c1.014,1.031,1.761,2.329,2.021,3.768c0.275,1.571,0.062,3.233,0.602,4.733c1.275,3.499,5.804,4.273,9.059,4.122
			c3.888-0.175,7.712-1.785,10.487-4.529c0.438-0.438,0.867-0.918,1.396-1.245c0.53-0.336,1.203-0.51,1.785-0.306
			c1.226,0.438,1.356,2.07,1.918,3.244c0.97,2.01,3.958,2.673,6.009,2.365c2.561-0.377,4.732-2.54,4.732-5.202
			c0-1.244,0.336-1.091,1.071-2.07c0.612-0.795,0.908-1.847,0.745-2.847c-0.377-2.356-2.774-3.733-4.233-5.62
			c-1.54-1.979-2.03-4.733-1.265-7.12c0.409-1.285,1.152-2.51,1.163-3.855c0.011-1.397-0.775-2.663-1.53-3.836
			c-1.5-2.305-2.988-4.61-4.478-6.906C159.806,108.257,159.703,108.094,159.591,107.931z"/>
		<path fill="#2D846D" d="M135.16,78.437c0.188,1.316-0.779,2.509-1.021,3.816c-0.395,2.136,1.34,4.251,3.427,4.848
			c2.088,0.596,4.353-0.03,6.259-1.068c1.256-0.684,2.42-1.541,3.729-2.113c0.609-3.154,1.089-6.33,1.431-9.522
			c-0.149,0.03-0.303,0.041-0.458,0.018c-0.76-0.115-1.266-0.862-1.48-1.601c-0.215-0.737-0.242-1.528-0.534-2.239
			c-0.526-1.275-1.849-2.081-3.201-2.354c-1.252-0.253-2.478,0.015-3.728-0.081c-1.125-0.086-1.985-0.067-3.112,0.243
			c-1.326,0.367-2.638,0.961-3.552,1.989c-0.914,1.029-1.349,2.564-0.801,3.828C132.817,75.82,134.909,76.689,135.16,78.437z"/>
		<path fill="#2D846D" d="M151.911,83.752c4.009,2.061,2.864,9.023,8.776,8.932c2.067-0.032,3.528-1.567,3.461-3.644
			c-0.095-2.939-3.021-3.493-4.755-5.254c-1.547-1.572-1.83-4.042-1.375-6.2c0.455-2.157,1.532-4.125,2.401-6.152
			c0.809-1.887,1.535-4.53,0.489-6.454c-0.671-1.231-1.968-2.1-3.362-2.246c-2.004-0.212-3.955,1.032-5.069,2.711
			c-0.41,0.617-0.722,1.284-0.966,1.979c-0.244,5.349-0.848,10.672-1.817,15.934C150.464,83.299,151.228,83.402,151.911,83.752z"/>
		<path fill="#FFDB36" d="M348.561,278.694c0.449-1.475-0.171-3.144,0.001-4.663c0.323-2.852,2.065-5.346,4.503-6.819
			c1.251-0.756,2.622-1.188,4.049-1.462c1.12-0.214,2.823-0.471,3.482-1.493c-0.354-0.809-0.975-1.506-1.999-1.998
			c-0.021,0-0.051,0-0.071-0.021c-2.295-1.062-5.569-0.133-7.763,0.816c-5.069,2.183-9.048,6.967-10.037,12.424
			c-0.296,1.673-0.856,3.907-2.55,3.907c-1.041,0-1.847-1.021-2.009-2.051c-0.153-1.041,0.183-2.062,0.52-3.051
			c1.714-5.05,3.458-10.181,6.52-14.524c1.785-2.53,3.999-4.744,6.497-6.55c2.265-1.603,4.743-2.887,7.313-3.896
			c2.122-0.867,4.305-1.562,6.407-2.488c1.896-0.837,3.57-2.01,5.396-2.928c3.54-1.785,4.192-4.244,3.928-8.263
			c-0.205-2.703-0.684-5.529,0.265-8.079c0.547-1.45,1.417-2.781,2.317-4.085c-0.281-0.093-0.556-0.197-0.814-0.314
			c-1.612-0.726-3.196-1.856-5.042-1.354c-1.74,0.475-3.377,1.891-4.855,2.861c-3.336,2.192-6.673,4.386-10.009,6.576
			c-1.634,1.073-3.258,2.165-4.901,3.221c-1.287,0.827-2.739,1.628-4.302,1.704c-1.292,0.062-2.407-0.459-3.261-1.411
			c-0.44-0.491-1.306-2.199-2.09-1.961c-0.671,0.206-0.537,1.373-0.368,1.845c0.25,0.696,0.763,1.287,1.176,1.89
			c0.699,1.013,1.218,2.076,1.298,3.322c0.165,2.604-1.591,5.02-4.118,5.665c-2.632,0.674-4.76-0.771-6.726-2.332
			c-1.192-0.948-2.329-1.683-3.788-2.173c-1.354-0.455-2.646-0.897-3.74-1.851c-2.117-1.84-2.943-4.655-3.628-7.268
			c-0.404-1.54-0.783-3.115-1.548-4.524c-0.752-1.39-1.894-2.513-2.684-3.878c-1.203-2.079-1.527-5.124,0.724-6.646
			c2.382-1.613,5.073-0.338,7.478,0.452c2.416,0.794,6.036,1.109,7.295-1.696c1.207-2.687-0.438-5.585-2.4-7.372
			c-2.247-2.046-5.094-3.285-7.507-5.109c-1.157-0.874-2.211-1.851-3.057-3.036c-0.753-1.055-1.185-2.261-1.802-3.389
			c-0.842-1.536-1.901-1.927-3.598-2.152c-1.191-0.158-2.323-0.387-3.285-1.146c-1.554-1.229-2.152-3.204-2.682-5.032
			c-0.208-0.72-0.406-1.496-0.681-2.229c-0.102,0.314-0.176,0.642-0.206,0.979c-0.185,2.184,1.02,4.213,1.99,6.202
			c0.877,1.733,1.601,3.814,1.08,5.642c-0.07,0.225-0.133,0.448-0.255,0.673c-1.122,2.397-4.845,2.938-7.19,2.511
			c-1.377-0.256-2.662-0.857-3.907-1.49c-2.642-1.356-5.365-2.979-6.671-5.62c-1-2.03-1.041-4.354-1.408-6.569
			c-0.355-2.233-1.234-4.601-3.223-5.66c-1.754-0.949-3.907-0.612-5.886-0.226c-1.897,0.357-3.929,0.612-5.805,1.081
			c-2.5,0.633-4.58,1.489-7.243,1.54c-2.724,0.062-5.478-0.184-8.182,0.225c-2.733,0.398-5.467,1.622-6.956,3.929
			c-1.49,2.295-1.214,5.813,1.081,7.304c1.561,1.02,3.754,0.989,5.059,2.306c1.082,1.062,1.286,2.662,1.439,4.151
			c0.316,3.203,0.663,6.406,1,9.609c0.091,0.896,0.152,1.896-0.337,2.642c-0.551,0.806-1.653,1.173-2.062,2.07
			c-0.428,0.948,0.204,2.102,1.082,2.643c0.888,0.54,1.969,0.632,3.01,0.744c3.61,0.356,5.845,2.979,8.385,5.346
			c2.265,2.143,4.314,4.876,4.386,7.987c0.113,6.926-9.251,11.129-9.323,18.055c-0.041,4.193,3.365,7.468,6.069,10.67
			c2.704,3.203,4.917,7.968,2.479,11.396c-0.111,0.163-0.233,0.315-0.387,0.459c-0.099,0.113-0.223,0.198-0.333,0.301
			c1.672,4.799,5.969,8.855,6.829,13.984c0.245,1.459,0.193,2.904-0.153,4.344c-0.335,1.392-0.968,2.744-1.088,4.182
			c-0.261,3.16,2.88,4.562,5.452,5.223c2.711,0.694,5.422,1.163,7.589,3.08c1.941,1.717,3.123,4.103,4.406,6.307
			c1.3,2.232,3.118,4.872,5.831,5.438c2.701,0.562,5.047-1.555,7.469-2.371c2.435-0.82,4.869-0.254,6.8,1.413
			c0.089,0.075,0.163,0.162,0.247,0.24c0.518-0.333,1.059-0.624,1.62-0.877c3.091-1.448,6.784-1.847,10.19-2.581
			c4.672-0.969,9.834-3.52,10.62-8.212c0.366-2.183-0.316-4.376-0.623-6.59c-0.438-3.132,0-6.354,1.122-9.312
			c0.5-1.325,1.254-3.499,2.417-4.846c0.388-0.459,0.825-0.826,1.326-1.021c0.093-0.052,0.203-0.093,0.315-0.112
			c0.139-0.035,0.28-0.049,0.421-0.062c0.207-0.337,0.431-0.667,0.683-0.981C346.503,281.099,348.111,280.171,348.561,278.694z"/>
		<path fill="#822E32" d="M376.015,281.079c2.551-3.61-4.405-1.977-9.292-0.837c-4.292,1.001-6.232-6.682-5.662-11.058
			c0.117-0.882,0.211-1.797,0.196-2.681c-1.104,0.663-2.522,0.998-3.763,1.251c-3.036,0.618-5.776,2.537-6.557,5.674
			c-0.41,1.649,0.138,3.265-0.036,4.923c-0.142,1.355-0.834,2.416-1.768,3.373c-0.672,0.688-1.329,1.326-1.896,2.054
			c0.562,0.361,1.021,0.873,1.255,1.493c0.601,1.602-0.112,3.52,0.673,5.009c0.855,1.652,2.958,2.009,4.764,2.325
			c1.805,0.337,3.927,1.102,4.263,2.907c0.226,1.203-0.428,2.347-0.704,3.52c-0.264,1.173,0.185,2.774,1.379,2.846
			c0.989,0.041,1.642-0.969,2.101-1.846c1.397-2.775,2.816-5.55,4.213-8.324c0.174-0.341,0.304-0.716,0.543-1.014
			c1.242-1.545,1.688-1.307,2.117-1.67c5.857-0.665,6.56-4.438,7.022-5.745C374.982,282.942,375.843,280.991,376.015,281.079"/>
	</g>
	<path fill="#E21A1A" d="M376.163,286.315c0.345-0.299-0.26,3.592,1.211,3.436c1.535-0.163,3.114-0.193,3.541,0.026
		c0.989,0.479,1.307,1.805,0.989,2.846c-0.337,1.04-1.132,1.877-1.969,2.591c-0.807,0.726-1.684,1.429-2.255,2.348
		c-0.877,1.447-0.877,3.294-0.357,4.927c0.521,1.733,1.979,5.549,4.336,4.58c1.826-0.745,2.856-3.162,3.428-4.896
		c1.216-3.724,1.193-8.619,4.602-11.2c2.102-1.57,4.896-1.663,7.508-2.051c2.601-0.377,5.467-1.377,6.478-3.814
		c0.929-2.274-0.152-4.029-0.837-6.131c-0.765-2.325-0.896-4.855-0.355-7.242c0.355-1.603,1.02-3.295,0.447-4.855
		c-0.651-1.713-2.773-2.591-4.601-2.203c-1.806,0.377-3.243,1.775-4.172,3.377c-0.929,1.603-1.396,3.428-1.896,5.212
		c-0.521,1.766-1.062,3.57-2.143,5.08c-2.212,3.132-7.92,3.803-11.049,3.023c-0.369-0.093-2.072,3.169-2.646,4.39
		c-0.172,0.364-0.242,0.546-0.146,0.402"/>
	<path fill="#422E82" d="M386.857,273.117c-2.551,3.611-5.14,1.091-9.088-0.897c-3.947-1.958-8.757-1.183-8.186-5.559
		c0.115-0.882-0.171-1.735-0.188-2.618c-1.104,0.663-0.51-0.26-1.751-0.007c-3.036,0.618-2.907,0.06-3.687,3.194
		c-0.41,1.649,0.109,0.653-0.062,2.312c-0.142,1.356,2.309,0.536,1.374,1.493c-0.672,0.689,10.773,0.817,2.29,3.786
		c0.562,0.361,2.502,0.451,3.149,0.596c6.765,1.515,6.776,0.448,7.562,1.938c0.855,1.651,5.693-0.948,7.499-0.632"/>
</g>
</svg>
