<?xml version="1.0" encoding="utf-8"?>
<!-- Generator: Adobe Illustrator 16.0.4, SVG Export Plug-In . SVG Version: 6.00 Build 0)  -->
<!DOCTYPE svg PUBLIC "-//W3C//DTD SVG 1.1//EN" "http://www.w3.org/Graphics/SVG/1.1/DTD/svg11.dtd">
<svg version="1.1" id="Layer_2" xmlns="http://www.w3.org/2000/svg" xmlns:xlink="http://www.w3.org/1999/xlink" x="0px" y="0px"
	 width="450px" height="100px" viewBox="0 0 450 100" enable-background="new 0 0 450 100" xml:space="preserve">
<g>
	<g>
		<g>
			<g id="XMLID_1_">
				<g>
					<path fill="#87A8AD" d="M449,14.84V16l-0.11,0.85c-6.14-0.859-40.899-5.25-77.409,0.141c-5.08,0.75-10.91,1.67-17.65,2.729
						c-29.1,4.601-71.36,11.271-109.15,12.74c0.94,0.1,1.891,0.19,2.84,0.29l-0.189,1.99c-30.5-2.95-55.14-8.33-78.96-13.54
						c-13.67-2.99-26.58-5.82-40.54-8.22C60.96,1.49,8.83,14.61,1.24,16.68L1,16v-1.32c8.73-2.35,60.77-15.08,127.17-3.67
						c14,2.41,26.93,5.24,40.63,8.23c19.1,4.18,38.72,8.47,61.47,11.52c40.891-0.01,90.44-7.83,123.24-13.01
						c6.76-1.07,12.59-1.99,17.681-2.74C407.6,9.64,442.3,13.91,449,14.84z"/>
					<path fill="#135C8E" d="M363.23,44.71c3.85,1.07,8.199,8.08,8.72,13.71c-3.46-0.25-8.29-0.439-13.54-0.54
						c0.33-0.2,0.64-0.45,0.939-0.72c0.71-0.65,1.33-1.48,1.66-2.45c0.07-0.2,0.12-0.42,0.15-0.63c0-0.01,0-0.01,0.01-0.01
						c0.37-0.471,0.64-1.03,0.8-1.62c0.11-0.41,0.15-0.82,0.17-1.23c0.021-0.439-0.02-0.83-0.08-1.25
						c-0.27-1.64-1.04-3.149-2.09-4.399c-0.529-0.63-1.14-1.19-1.81-1.66C360,44.02,361.72,44.29,363.23,44.71z"/>
					<path fill="#135C8E" d="M291.33,36c-3.67,0.42-7.34,0.35-11.01,0.32c-3.67-0.04-7.34-0.11-11-0.221
						c-3.67-0.13-7.34-0.31-11.011-0.52c-3.659-0.23-7.329-0.521-10.979-0.84l0.189-1.99v-0.01c3.65,0.39,7.28,0.71,10.931,1.02
						c3.64,0.32,7.29,0.59,10.939,0.84c3.65,0.261,7.311,0.48,10.96,0.65C284.01,35.44,287.67,35.51,291.33,36z"/>
					<path fill="#84486E" d="M451,16v85H-1V16h2l0.24,0.68C1.15,16.71,1.07,16.73,1,16.75V99h448V16.86
						c-0.04-0.011-0.07-0.011-0.11-0.011L449,16H451z"/>
					<path fill="#87A8AD" d="M451,15.15V16h-2v-1.16c0.72,0.101,1.12,0.16,1.16,0.17L451,15.15z"/>
					<path fill="#052C49" d="M449,16.86V99H1V16.75c0.07-0.02,0.15-0.04,0.24-0.07C8.83,14.61,60.96,1.49,127.83,12.98
						c13.96,2.399,26.87,5.229,40.54,8.22c23.82,5.21,48.46,10.59,78.96,13.54c3.65,0.319,7.32,0.609,10.979,0.84
						c3.671,0.21,7.341,0.39,11.011,0.52c3.66,0.11,7.33,0.181,11,0.221c3.67,0.029,7.34,0.1,11.01-0.32
						c-3.66-0.49-7.32-0.56-10.98-0.75c-3.649-0.17-7.31-0.39-10.96-0.65c-3.649-0.25-7.3-0.52-10.939-0.84
						c-3.65-0.31-7.28-0.63-10.931-1.02v0.01c-0.949-0.1-1.899-0.19-2.84-0.29c37.79-1.47,80.051-8.14,109.15-12.74
						c6.74-1.06,12.57-1.979,17.65-2.729c36.51-5.391,71.27-1,77.409-0.141C448.93,16.85,448.96,16.85,449,16.86z M402.96,65.27
						c0.55-1.979,0.07-4.34-1.34-6.649c-1.851-3.01-4.94-5.41-7.67-5.96l-0.2-0.021c-4.68,0-14.86,1.2-19.9,4.78
						c-0.899-6.31-5.609-13.39-10.08-14.63c-2.21-0.62-4.81-0.94-7.55-0.94c-0.88,0-1.77,0.03-2.66,0.11
						c-3.369,0.24-6.819,0.95-10.14,2.09l-0.18,0.07l-0.15,0.13c-6.14,5.45-12.1,11.12-11.84,15.31l0.07,1.08l1.069-0.149
						c3.061-0.44,9.591-0.69,17.9-0.69c7.66,0,15.45,0.22,20.64,0.561l0.48,0.029l1.46,0.11h0.06c0.04,0,0.09,0.01,0.141,0.01
						c0.09,0.01,0.189,0.021,0.31,0.03c3.83,0.47,22.96,3.83,28.34,5.42l0.971,0.29L402.96,65.27z M89.56,35.3l-0.63-1.66
						c-1.46-3.83-3.71-7.59-6.19-10.319c-1.4-1.551-4.06-2.48-7.12-2.48c-2.44,0-4.61,0.601-5.98,1.65l-0.9,0.689
						c-2.48,1.88-5.05,3.83-7.36,6.86l-1.15,1.51l1.89,0.101c4.34,0.22,18.99,2.13,25.7,3.34L89.56,35.3z"/>
					<path fill="#135C8E" d="M401.62,58.62c1.41,2.31,1.89,4.67,1.34,6.649l-0.27,0.98l-0.971-0.29
						c-5.38-1.59-24.51-4.95-28.34-5.42l0.62,0.05V59.5c0-0.68-0.05-1.37-0.15-2.08c5.04-3.58,15.221-4.78,19.9-4.78l0.2,0.021
						C396.68,53.21,399.77,55.61,401.62,58.62z M401.18,63.74c0.04-1.23-0.39-2.641-1.27-4.07c-1.33-2.17-3.45-4.02-5.41-4.77
						c-0.17-0.44-0.41-0.841-0.69-1.19l-1.119,0.58c0.029,0.13,0.06,0.25,0.069,0.37c-4.87,0.149-13.21,1.41-17.399,4.14
						c2.77,0.42,7.439,1.22,12.21,2.101c-0.19,0.109-0.38,0.229-0.57,0.35c0.94,0.28,1.91,0.26,2.86,0.09
						C394.29,62.18,398.55,63.05,401.18,63.74z"/>
					<path fill="#135C8E" d="M399.91,59.67c0.88,1.43,1.31,2.84,1.27,4.07c-2.63-0.69-6.89-1.561-11.319-2.4
						c0.069-0.01,0.13-0.03,0.199-0.04c1.021-0.22,1.99-0.68,2.87-1.37c0.851-0.68,1.641-1.72,1.82-2.979c0.1-0.74,0-1.44-0.25-2.05
						C396.46,55.65,398.58,57.5,399.91,59.67z"/>
					<path fill="#135C8E" d="M394.5,54.9c0.25,0.609,0.35,1.31,0.25,2.05c-0.18,1.26-0.97,2.3-1.82,2.979
						c-0.88,0.69-1.85,1.15-2.87,1.37c-0.069,0.01-0.13,0.03-0.199,0.04c-0.761-0.149-1.521-0.3-2.29-0.439
						c0.67-0.4,1.31-0.75,1.91-1.12c0.77-0.46,1.51-0.91,2.1-1.45c0.6-0.53,1.03-1.11,1.21-1.76c0.04-0.15,0.08-0.34,0.1-0.49
						l0.011-0.29c0.01-0.07,0-0.18,0-0.271c-0.021-0.27-0.061-0.56-0.141-0.859c0.311-0.01,0.61-0.021,0.891-0.021
						C393.93,54.7,394.21,54.79,394.5,54.9z"/>
					<path fill="#86A393" d="M394.5,54.9c-0.29-0.11-0.57-0.2-0.85-0.261c-0.28,0-0.58,0.011-0.891,0.021
						c-0.01-0.12-0.04-0.24-0.069-0.37l1.119-0.58C394.09,54.06,394.33,54.46,394.5,54.9z"/>
					<path fill="#3181AD" d="M392.9,55.52c0,0.091,0.01,0.2,0,0.271l-0.011,0.29c-0.02,0.15-0.06,0.34-0.1,0.49
						c-0.18,0.649-0.61,1.229-1.21,1.76c-0.59,0.54-1.33,0.99-2.1,1.45c-0.601,0.37-1.24,0.72-1.91,1.12
						c-4.771-0.881-9.44-1.681-12.21-2.101c4.189-2.729,12.529-3.99,17.399-4.14C392.84,54.96,392.88,55.25,392.9,55.52z"/>
					<path fill="#86A393" d="M387.57,60.9c0.77,0.14,1.529,0.29,2.29,0.439c-0.95,0.17-1.92,0.19-2.86-0.09
						C387.19,61.13,387.38,61.01,387.57,60.9z"/>
					<path fill="#86A393" d="M374,59.5v1.09l-0.62-0.05l-0.31-0.03c-0.051,0-0.101-0.01-0.141-0.01h-0.06
						c-0.46-0.04-0.95-0.08-1.46-0.11l-0.48-0.029l1.311-1.521c0.02-0.03,0.05-0.05,0.069-0.08c0.431-0.479,0.95-0.93,1.54-1.34
						C373.95,58.13,374,58.82,374,59.5z"/>
					<path fill="#86A393" d="M373.07,60.51l0.31,0.03C373.26,60.53,373.16,60.52,373.07,60.51z"/>
					<path fill="#86A393" d="M372.87,60.5l-1.46-0.11C371.92,60.42,372.41,60.46,372.87,60.5z"/>
					<path fill="#135C8E" d="M373.85,57.42c-0.59,0.41-1.109,0.86-1.54,1.34l-0.359-0.34c-0.521-5.63-4.87-12.64-8.72-13.71
						c-1.511-0.42-3.23-0.69-5.07-0.8c-0.68-0.47-1.42-0.851-2.21-1.101c-0.76-0.25-1.57-0.369-2.36-0.319l-0.03-0.53
						c0.891-0.08,1.78-0.11,2.66-0.11c2.74,0,5.34,0.32,7.55,0.94C368.24,44.03,372.95,51.11,373.85,57.42z"/>
					<path fill="#EE8231" d="M372.31,58.76c-0.02,0.03-0.05,0.05-0.069,0.08l-1.311,1.521C365.74,60.02,357.95,59.8,350.29,59.8
						c-8.31,0-14.84,0.25-17.9,0.69l-1.069,0.149l-0.07-1.08c-0.26-4.189,5.7-9.859,11.84-15.31l0.15-0.13l0.18-0.07
						c3.32-1.14,6.771-1.85,10.14-2.09l0.03,0.53c-0.85,0.05-1.67,0.3-2.34,0.76c1.26-0.06,2.37,0.2,3.38,0.64
						c-3.42,0.16-6.97,0.841-10.37,1.99c-3.39,3.021-9.85,8.8-10.88,12.48c3.49-0.36,9.51-0.561,16.91-0.561
						c1.729,0,3.46,0.01,5.17,0.03c-0.09,0.07-0.19,0.14-0.28,0.2c-0.14,0.12-0.26,0.18-0.5,0.239c-0.22,0.061-0.46,0.131-0.68,0.23
						l0.64,0.32c0.2,0.109,0.53,0.17,0.811,0.149c0.52-0.04,1-0.149,1.45-0.319c0.54-0.19,1.04-0.45,1.51-0.771
						c5.25,0.101,10.08,0.29,13.54,0.54L372.31,58.76z"/>
					<path fill="#135C8E" d="M362.06,49.97c0.061,0.42,0.101,0.811,0.08,1.25c-0.02,0.41-0.06,0.82-0.17,1.23
						c-0.16,0.59-0.43,1.149-0.8,1.62c0.09-0.61,0.04-1.24-0.18-1.78c-0.05-0.68-0.21-1.33-0.44-1.94
						c-0.47-1.279-1.229-2.439-2.1-3.489c-0.891-1.03-1.92-1.95-3.11-2.61c-0.229-0.13-0.47-0.25-0.71-0.36
						c0.53-0.029,1.061-0.04,1.59-0.04c0.66,0,1.311,0.021,1.94,0.061c0.67,0.47,1.28,1.03,1.81,1.66
						C361.02,46.82,361.79,48.33,362.06,49.97z"/>
					<path fill="#135C8E" d="M360.99,52.29c0.22,0.54,0.27,1.17,0.18,1.78c-0.01,0-0.01,0-0.01,0.01c-0.13,0.15-0.26,0.29-0.41,0.42
						C360.99,53.74,361.05,53,360.99,52.29z"/>
					<path fill="#135C8E" d="M361.16,54.08c-0.03,0.21-0.08,0.43-0.15,0.63c-0.33,0.97-0.95,1.8-1.66,2.45
						c-0.3,0.27-0.609,0.52-0.939,0.72c-0.97-0.02-1.96-0.04-2.95-0.05c0.23-0.18,0.46-0.37,0.69-0.55
						c0.64-0.521,1.26-1.05,1.85-1.59c0.58-0.54,1.13-1.08,1.6-1.69c0.48-0.61,0.83-1.25,1.12-2.22c0.11,0.16,0.2,0.33,0.271,0.51
						c0.06,0.71,0,1.45-0.24,2.21C360.9,54.37,361.03,54.23,361.16,54.08z"/>
					<path fill="#3181AD" d="M360.99,52.29c-0.07-0.18-0.16-0.35-0.271-0.51c-0.29,0.97-0.64,1.609-1.12,2.22
						c-0.47,0.61-1.02,1.15-1.6,1.69c-0.59,0.54-1.21,1.069-1.85,1.59c-0.23,0.18-0.46,0.37-0.69,0.55
						c-1.71-0.021-3.44-0.03-5.17-0.03c-7.4,0-13.42,0.2-16.91,0.561c1.03-3.681,7.49-9.46,10.88-12.48
						c3.4-1.149,6.95-1.83,10.37-1.99c0.24,0.11,0.48,0.23,0.71,0.36c1.19,0.66,2.22,1.58,3.11,2.61c0.87,1.05,1.63,2.21,2.1,3.489
						C360.78,50.96,360.94,51.61,360.99,52.29z"/>
					<path fill="#86A393" d="M358.41,57.88c-0.47,0.32-0.97,0.58-1.51,0.771c-0.45,0.17-0.931,0.279-1.45,0.319
						c-0.28,0.021-0.61-0.04-0.811-0.149L354,58.5c0.22-0.1,0.46-0.17,0.68-0.23c0.24-0.06,0.36-0.119,0.5-0.239
						c0.09-0.061,0.19-0.13,0.28-0.2C356.45,57.84,357.44,57.86,358.41,57.88z"/>
					<path fill="#86A393" d="M358.16,43.91c-0.63-0.04-1.28-0.061-1.94-0.061c-0.529,0-1.06,0.011-1.59,0.04
						c-1.01-0.439-2.12-0.699-3.38-0.64c0.67-0.46,1.49-0.71,2.34-0.76c0.79-0.05,1.601,0.069,2.36,0.319
						C356.74,43.06,357.48,43.44,358.16,43.91z"/>
					<path fill="#135C8E" d="M88.93,33.64l0.63,1.66l-1.74-0.31c-6.71-1.21-21.36-3.12-25.7-3.34l-1.89-0.101l1.15-1.51
						c2.31-3.03,4.88-4.98,7.36-6.86l0.9-0.689c1.37-1.05,3.54-1.65,5.98-1.65c3.06,0,5.72,0.93,7.12,2.48
						C85.22,26.05,87.47,29.81,88.93,33.64z M86.38,32.71c-1.34-3-3.19-5.92-5.12-8.05c-0.52-0.58-1.38-1.05-2.42-1.36
						c-0.38-0.54-0.9-0.97-1.5-1.14l-0.01,0.01c0.22,0.29,0.38,0.59,0.51,0.89c-0.7-0.149-1.45-0.22-2.22-0.22
						c-1.97,0-3.75,0.46-4.76,1.24l-0.91,0.689c-1.94,1.471-3.94,2.99-5.77,5.021c2.6,0.24,6.48,0.7,10.5,1.22
						c-0.24,0.25-0.46,0.521-0.68,0.82v0.01c0.97,0.01,1.86-0.17,2.72-0.56C80.21,31.75,83.68,32.26,86.38,32.71z"/>
					<path fill="#135C8E" d="M81.26,24.66c1.93,2.13,3.78,5.05,5.12,8.05c-2.7-0.45-6.17-0.96-9.66-1.43
						c0.18-0.08,0.35-0.16,0.52-0.261c1-0.56,1.9-1.63,2.24-2.84c0.35-1.21,0.31-2.34,0.03-3.479c-0.14-0.49-0.36-0.98-0.67-1.4
						C79.88,23.61,80.74,24.08,81.26,24.66z"/>
					<path fill="#135C8E" d="M79.51,24.7c0.28,1.14,0.32,2.27-0.03,3.479c-0.34,1.21-1.24,2.28-2.24,2.84
						c-0.17,0.101-0.34,0.181-0.52,0.261c-0.68-0.09-1.36-0.181-2.04-0.271c0.5-0.55,1.03-1,1.48-1.45
						c0.67-0.649,1.19-1.229,1.49-2.01c0.31-0.76,0.47-1.75,0.5-2.66c0.01-0.609-0.06-1.229-0.31-1.83c0.35,0.051,0.68,0.141,1,0.24
						C79.15,23.72,79.37,24.21,79.51,24.7z"/>
					<path fill="#135C8E" d="M78.84,23.3c-0.32-0.1-0.65-0.189-1-0.24c-0.13-0.3-0.29-0.6-0.51-0.89l0.01-0.01
						C77.94,22.33,78.46,22.76,78.84,23.3z"/>
					<path fill="#3181AD" d="M77.84,23.06c0.25,0.601,0.32,1.221,0.31,1.83c-0.03,0.91-0.19,1.9-0.5,2.66
						c-0.3,0.78-0.82,1.36-1.49,2.01c-0.45,0.45-0.98,0.9-1.48,1.45c-4.02-0.52-7.9-0.979-10.5-1.22c1.83-2.03,3.83-3.55,5.77-5.021
						l0.91-0.689c1.01-0.78,2.79-1.24,4.76-1.24C76.39,22.84,77.14,22.91,77.84,23.06z"/>
					<path fill="#86A393" d="M74.68,31.01c0.68,0.09,1.36,0.181,2.04,0.271c-0.86,0.39-1.75,0.569-2.72,0.56v-0.01
						C74.22,31.53,74.44,31.26,74.68,31.01z"/>
					<path fill="#618F8A" d="M1,14.68V16h-2v-0.74l0.71-0.22C-0.24,15.03,0.19,14.9,1,14.68z"/>
				</g>
			</g>
		</g>
		<path fill="#38647C" d="M157.573,19.647c0.13,2.543,3.41,3.289,18.362,6.3c14.954,3.011,45.154,7.525,67.887,5.88
			c22.732-1.646,27.467,2.715,80.977-7.61c8.884-2.409,75.312-5.707,83.521-5.187c2.543-1.123-4.077-5.977-7.577-7.517
			c-4.42-2.429-71.665,1.367-80.281,2c-8.617,0.634-49.959,0-63.771,0c-13.813,0-77,0.487-85.091,0.93
			C164.968,14.677,157.443,17.106,157.573,19.647z"/>
		<path fill="#135C8E" d="M20.667,37.334c8.419-3.402,17.439-5.351,26.526-6.255c9.097-0.939,18.289-0.783,27.363,0.103
			c9.079,0.899,18.054,2.532,26.85,4.76c8.804,2.199,17.45,4.928,25.873,8.296c-8.97-1.36-17.817-3.016-26.665-4.476
			c-8.852-1.43-17.687-2.732-26.549-3.605c-8.86-0.883-17.741-1.327-26.642-1.197C38.521,35.121,29.626,35.933,20.667,37.334z"/>
		<path fill="#135C8E" d="M25.664,35.982c1.886-0.859,3.685-1.672,5.422-2.595c1.74-0.905,3.427-1.865,5.078-2.882
			c1.647-1.023,3.261-2.088,4.894-3.159c1.649-1.058,3.269-2.165,5.091-3.187l0.369,0.348c-0.934,1.904-2.297,3.509-3.806,4.939
			c-1.524,1.416-3.244,2.618-5.079,3.604c-1.831,0.992-3.774,1.788-5.79,2.319c-2.017,0.512-4.099,0.816-6.174,0.648L25.664,35.982z
			"/>
		<path fill="#135C8E" d="M38.562,32.308c0.933-0.159,1.845-0.479,2.81-0.906c0.955-0.42,1.919-0.91,2.877-1.437
			c0.965-0.519,1.921-1.081,2.896-1.632c0.983-0.532,1.873-1.246,3.204-1.282c-0.523,1.208-1.431,1.818-2.26,2.591
			c-0.836,0.755-1.699,1.487-2.595,2.202c-0.904,0.704-1.842,1.388-2.873,1.99c-1.02,0.585-2.183,1.151-3.448,1.411L38.562,32.308z"
			/>
		<path fill="#135C8E" d="M44.659,33.087c1.402-0.69,2.685-1.264,3.915-1.927c1.232-0.638,2.412-1.312,3.579-2.025l3.516-2.219
			c1.199-0.755,2.413-1.535,3.822-2.231l0.194,0.172c-0.529,1.493-1.392,2.782-2.414,3.931c-1.025,1.146-2.239,2.133-3.586,2.915
			c-1.344,0.784-2.822,1.369-4.36,1.671c-1.539,0.278-3.137,0.321-4.65-0.126L44.659,33.087z"/>
		<path fill="#135C8E" d="M0,16c11.348-2.887,22.797-4.973,34.338-6.588c11.546-1.562,23.17-2.689,34.991-2.719
			c11.591-0.01,23.281,0.292,34.936,1.491c5.825,0.614,11.645,1.439,17.401,2.651c2.875,0.617,5.738,1.303,8.555,2.159
			c2.817,0.845,5.603,1.803,8.279,3.004c-5.815-0.698-11.558-1.069-17.316-1.267c-5.752-0.205-11.498-0.271-17.25-0.272
			c-11.504-0.017-23.012,0.226-34.605,0.231c-11.373,0.021-22.899,0.586-34.452,0.973C23.316,16.041,11.707,16.414,0,16z"/>
		<path fill="#135C8E" d="M16.333,14.001c2.351-0.945,4.58-1.845,6.749-2.876c2.172-1.013,4.287-2.111,6.402-3.249l6.399-3.452
			c2.178-1.124,4.388-2.248,6.784-3.09c-1.696,1.886-3.551,3.527-5.504,5.071c-1.961,1.527-4.042,2.924-6.259,4.113
			c-2.215,1.188-4.57,2.172-7.028,2.819C21.419,13.967,18.858,14.296,16.333,14.001z"/>
		<path fill="#135C8E" d="M35.333,12.334c0.839,0.002,1.567,0.012,2.289-0.097c0.344-0.039,0.725-0.11,1.008-0.176
			c0.417-0.085,0.682-0.16,1.003-0.267c1.271-0.397,2.441-1.002,3.568-1.733c1.127-0.73,2.206-1.589,3.264-2.539
			c1.063-0.956,2.079-1.993,3.202-3.188c0.044,1.653-0.522,3.261-1.368,4.673c-0.863,1.407-2.037,2.651-3.468,3.573
			c-1.419,0.923-3.125,1.528-4.875,1.544c-0.431,0.01-0.927-0.031-1.271-0.101c-0.476-0.077-0.857-0.181-1.267-0.335
			C36.63,13.377,35.889,12.938,35.333,12.334z"/>
		<path fill="#135C8E" d="M9.333,14.334c1.056-1.505,2.327-2.761,3.678-3.903c1.36-1.133,2.827-2.135,4.383-2.989
			c1.555-0.855,3.203-1.56,4.921-2.063c1.72-0.493,3.508-0.811,5.352-0.711c-1.48,1.097-2.95,1.989-4.415,2.875
			c-1.466,0.875-2.929,1.717-4.417,2.529c-1.486,0.812-2.995,1.601-4.556,2.339C12.71,13.141,11.112,13.838,9.333,14.334z"/>
		<path fill="#135C8E" d="M65.333,15.984c3.73-1.119,7.553-1.788,11.4-2.294c3.849-0.481,7.73-0.712,11.614-0.734
			c7.77-0.031,15.548,0.82,23.17,2.432c7.621,1.604,15.112,3.957,22.204,7.21c3.544,1.625,6.989,3.475,10.244,5.609
			c3.26,2.12,6.361,4.484,9.124,7.186l-0.053,0.072c-6.808-3.605-13.779-6.462-20.917-8.779c-7.133-2.314-14.408-4.094-21.761-5.48
			c-7.358-1.37-14.785-2.348-22.268-3.152c-7.491-0.837-15.023-1.334-22.754-2.039L65.333,15.984z"/>
		<path fill="#135C8E" d="M127,12.5c7.212,0.065,14.339,1.479,21.357,2.841c7.018,1.44,13.941,3.105,20.846,4.707
			c13.796,3.256,27.522,6.321,41.354,8.73c13.827,2.422,27.74,4.237,41.774,5.41c14.037,1.212,28.166,1.708,42.509,2.155
			c-13.978,3.285-28.361,4.755-42.769,4.917c-14.412,0.135-28.863-1.115-43.069-3.62c-14.213-2.486-28.162-6.245-41.729-10.81
			c-6.786-2.285-13.481-4.754-20.134-7.268C140.482,17.03,133.879,14.528,127,12.5z"/>
		<path fill="#135C8E" d="M156.554,15.459l30.78,5.528c10.182,1.809,20.341,3.544,30.501,5.126
			c10.162,1.563,20.322,3.017,30.509,3.996c5.094,0.492,10.195,0.858,15.311,0.956c5.12,0.08,10.237-0.057,15.425-1.104
			c-2.225,1.449-4.701,2.561-7.238,3.433c-2.539,0.886-5.151,1.544-7.781,2.076c-5.267,1.047-10.607,1.527-15.929,1.714
			c-10.652,0.324-21.247-0.561-31.681-2.181c-10.435-1.635-20.728-4.026-30.794-7.166c-5.028-1.586-10.003-3.353-14.88-5.378
			C165.908,20.419,161.106,18.183,156.554,15.459z"/>
		<path fill="#135C8E" d="M75,10.5c8.575-1.241,17.251-1.488,25.906-1.115c8.654,0.398,17.293,1.474,25.8,3.238
			c8.506,1.763,16.881,4.225,24.953,7.44c8.059,3.233,15.849,7.184,22.93,12.185c-8.205-2.768-16.282-5.424-24.451-7.719
			c-8.158-2.315-16.373-4.308-24.652-6.034c-8.28-1.724-16.624-3.171-25.034-4.431C92.04,12.781,83.57,11.742,75,10.5z"/>
		<path fill="#135C8E" d="M114,4c-0.149-0.004-0.3,0.056-0.459-0.041c-0.116-0.151-0.079-0.312-0.103-0.459l-0.016-0.102
			l0.106,0.048c4.308,1.912,8.862,2.94,13.409,4.335c2.274,0.699,4.56,1.496,6.783,2.585c2.219,1.084,4.372,2.487,6.245,4.271
			l-2.932,2.723c-1.322-1.667-2.968-3.118-4.823-4.366c-1.854-1.252-3.901-2.308-6.011-3.289c-4.219-1.96-8.712-3.656-12.729-6.15
			l0.09-0.055c-0.003,0.144-0.041,0.315,0.022,0.416C113.678,3.999,113.859,3.982,114,4z"/>
		<path fill="#135C8E" d="M141,5c3.651,2.175,7.344,4.26,10.981,6.545c3.63,2.298,7.237,4.733,10.571,7.905l-4.604,3.848
			c-2.113-3.292-4.921-6.413-7.848-9.416C147.161,10.874,144.042,7.968,141,5z"/>
		<path fill="#135C8E" d="M141.5,8c1.961,1.307,3.956,2.54,5.924,3.891c1.963,1.356,3.919,2.805,5.701,4.69l-3.249,2.334
			c-0.958-1.898-2.336-3.753-3.803-5.55C144.601,11.563,143.016,9.804,141.5,8z"/>
		<path fill="#135C8E" d="M156.5,6.5c1.05,2.173,2.133,4.008,3.452,5.6c1.302,1.598,2.798,2.974,4.429,4.282
			c1.632,1.306,3.391,2.544,5.201,3.83c1.802,1.3,3.673,2.616,5.418,4.288c-2.409-0.145-4.676-0.69-6.886-1.506
			c-2.197-0.829-4.33-1.961-6.237-3.494c-1.9-1.523-3.579-3.487-4.612-5.786C156.234,11.425,155.892,8.839,156.5,6.5z"/>
		<path fill="#135C8E" d="M26.5,37c8.862-2.428,18.004-3.67,27.179-4.146c9.188-0.459,18.422-0.086,27.562,1.058
			c9.138,1.153,18.181,3.082,26.962,5.811c8.774,2.738,17.317,6.22,25.297,10.778c-9.002-1.825-17.797-3.795-26.629-5.438
			c-8.819-1.68-17.645-3.077-26.505-4.207c-8.861-1.116-17.762-1.949-26.718-2.516C44.679,37.735,35.673,37.456,26.5,37z"/>
		<path fill="#135C8E" d="M23.938,69.394c6.76-5.651,14.658-9.972,22.998-13.094c8.353-3.115,17.188-4.998,26.096-5.691
			c4.464-0.319,8.901-0.416,13.464-0.054c4.503,0.373,8.883,1.135,13.197,2.094c8.606,1.978,17.006,4.683,24.94,8.518l-0.018,0.059
			c-8.713-1.123-17.272-2.337-25.801-3.207c-4.257-0.436-8.504-0.78-12.675-0.892c-2.066-0.038-4.136-0.02-6.254,0.09
			c-2.108,0.078-4.214,0.196-6.316,0.364c-8.407,0.652-16.757,1.97-24.994,4.012c-8.258,2.003-16.347,4.782-24.514,8.015
			L23.938,69.394z"/>
		<path fill="#135C8E" d="M25,69.5c5.512-3.368,11.558-5.659,17.773-7.269c6.221-1.612,12.656-2.427,19.107-2.53
			c6.445-0.101,12.938,0.51,19.227,1.963c6.278,1.471,12.399,3.732,17.847,7.143l-0.042,0.115
			c-6.349-0.849-12.469-1.588-18.594-1.954c-6.117-0.391-12.19-0.485-18.281-0.303c-6.087,0.182-12.163,0.638-18.299,1.154
			C37.597,68.35,31.436,69.06,25,69.5z"/>
		<path fill="#135C8E" d="M97,69.5c6.44-3.963,13.534-6.775,20.865-8.739c7.34-1.94,14.954-2.979,22.59-3.058
			c7.634-0.082,15.293,0.809,22.671,2.712c7.366,1.923,14.485,4.815,20.797,8.988c-7.409-1.465-14.595-2.775-21.81-3.578
			c-7.203-0.824-14.393-1.188-21.59-1.124c-7.197,0.068-14.396,0.574-21.619,1.445C111.671,66.993,104.449,68.258,97,69.5z"/>
		<path fill="#135C8E" d="M173.5,65.5c6.237-0.07,12.348,0.454,18.397,0.912c6.046,0.481,12.027,0.959,17.967,1.146
			c5.969,0.184,11.823,0.094,17.714-0.574c5.886-0.642,11.701-1.912,17.661-3.734c-4.772,4.036-10.663,6.758-16.782,8.369
			c-6.122,1.615-12.549,2.142-18.785,1.935c-6.276-0.205-12.459-1.125-18.488-2.494C185.153,69.665,179.264,67.869,173.5,65.5z"/>
		<path fill="#135C8E" d="M214.5,75.5c4.927-0.562,9.256-2.163,13.576-4.059c4.304-1.896,8.548-4.066,12.936-6.096
			c4.38-2.034,8.905-3.944,13.632-5.374c4.718-1.411,9.66-2.382,14.616-2.208c-4.57,1.878-8.901,3.806-13.2,5.876
			c-4.3,2.05-8.556,4.21-12.947,6.241c-4.389,2.022-8.92,3.957-13.749,5.261c-2.413,0.635-4.903,1.112-7.429,1.235
			C219.409,76.483,216.854,76.277,214.5,75.5z"/>
		<path fill="#135C8E" d="M106.157,67.755c4.054-1.353,8.308-2.169,12.593-2.005c0.118,0.005,0.223,0.024,0.334,0.037
			c1.878-1.387,2.409-4.238,1.278-6.245c-0.837-0.329-1.685-0.739-2.293-0.917c-0.54-0.172-0.982-0.428-1.336-0.742
			c-0.582-0.145-1.143-0.349-1.686-0.6c-0.039-0.002-0.078-0.004-0.117-0.006c-0.668-0.389-1.467-0.638-2.431-0.639
			c-2.729-0.003-5.5,0.051-8.21-0.316c-0.746-0.101-1.44-0.062-2.073,0.085c-0.415-0.245-0.88-0.447-1.434-0.56
			c-8.767-1.772-17.583-0.569-26.365-0.237c-0.532-0.287-1.113-0.512-1.744-0.639C68.548,54.139,64.168,54.729,60,54.8
			c-5.135,0.087-6.622,8.283-1.25,9.232c9.575,1.692,19.307-0.032,28.909,0.043c0.262,0.23,0.547,0.446,0.884,0.628
			c1.11,0.597,2.199,1.188,3.304,1.737c0.561,0.581,1.336,1.029,2.358,1.253c0.683,0.106,1.349,0.272,2,0.5
			c0.743,0.21,1.432,0.253,2.059,0.167c0.964,0.109,1.928,0.168,2.894,0.2c0.537-0.341,1.165-0.55,1.841-0.561
			C104.059,67.982,105.101,67.786,106.157,67.755z"/>
		<path fill="#135C8E" d="M109.689,62.045l0.306-0.535l0.396-0.667c0.268-0.417,0.543-0.805,0.84-1.186
			c0.592-0.756,1.251-1.444,1.955-2.057c1.409-1.229,2.984-2.147,4.595-2.828c3.236-1.354,6.59-1.839,9.871-1.954
			c-3.145,0.927-6.178,2.245-8.63,4.124c-1.22,0.937-2.276,2.013-3.073,3.192c-0.399,0.59-0.734,1.203-1.003,1.833
			c-0.133,0.312-0.253,0.64-0.352,0.95l-0.284,1.037L109.689,62.045z"/>
		<path fill="#135C8E" d="M117.736,65.907c-0.076-0.068,0.044,0.016-0.332-0.265c-0.285-0.233-0.425-0.412-0.592-0.65
			c-0.324-0.473-0.48-1.06-0.489-1.508l0-0.164l0.002-0.081l0.005-0.165l0.003-0.009l0.024-0.076
			c0.018-0.104,0.07-0.396,0.107-0.489c0.073-0.218,0.153-0.391,0.232-0.542c0.321-0.598,0.661-0.994,1.015-1.38
			c0.707-0.75,1.47-1.338,2.269-1.835c1.599-0.986,3.337-1.561,5.031-1.73c-1.41,0.954-2.521,2.186-3.277,3.512
			c-0.375,0.661-0.668,1.356-0.825,2.012c-0.075,0.317-0.123,0.655-0.073,0.838c0.012,0.043,0.034,0.068,0.064,0.052
			c0.015,0.009,0.054-0.182,0.059-0.184l0.015,0.079l0.016-0.266c0.01-0.243-0.078-0.627-0.278-0.935
			c-0.104-0.157-0.175-0.258-0.376-0.431c-0.299-0.21-0.084-0.084-0.073-0.098L117.736,65.907z"/>
		<path fill="#135C8E" d="M120.278,61.685l1.36-0.706l1.32-0.74c0.873-0.508,1.732-1.042,2.561-1.628
			c0.834-0.577,1.631-1.21,2.402-1.884c0.792-0.671,1.362-1.481,2.525-1.975c0.02,1.284-0.705,2.15-1.325,3.052
			c-0.64,0.898-1.369,1.733-2.144,2.524c-0.783,0.782-1.617,1.516-2.5,2.183c-0.438,0.339-0.898,0.645-1.358,0.952l-0.713,0.455
			l-0.686,0.397L120.278,61.685z"/>
		<path fill="#135C8E" d="M128,62.5c0.501-0.751,0.928-1.377,1.318-2.022c0.395-0.635,0.76-1.263,1.12-1.9l1.083-1.955
			c0.378-0.671,0.743-1.359,1.229-2.122c0.35,0.841,0.379,1.736,0.27,2.599c-0.121,0.863-0.409,1.701-0.841,2.463
			c-0.432,0.762-1.011,1.451-1.718,1.989C129.75,62.078,128.912,62.479,128,62.5z"/>
		<path fill="#135C8E" d="M132,62c0.094-0.924,0.333-1.727,0.621-2.521c0.297-0.784,0.664-1.536,1.108-2.252
			c0.443-0.715,0.967-1.392,1.583-1.997c0.623-0.598,1.321-1.145,2.188-1.48c-0.241,0.895-0.569,1.65-0.91,2.397
			c-0.35,0.738-0.731,1.448-1.163,2.138c-0.431,0.689-0.909,1.36-1.46,1.998C133.407,60.91,132.794,61.527,132,62z"/>
		<path fill="#135C8E" d="M177.75,58.916c1.194,0.021,2.178,0.616,3.136,1.194c0.958,0.595,1.862,1.292,2.687,2.086
			c1.627,1.604,2.923,3.607,3.632,5.83l-1.911,0.588c-0.57-1.943-1.511-3.801-2.828-5.405c-0.645-0.812-1.384-1.562-2.198-2.234
			C179.455,60.285,178.54,59.794,177.75,58.916z"/>
		<path fill="#135C8E" d="M182.667,59.13c1.74,1.033,3.344,2.428,4.738,3.982c1.401,1.552,2.653,3.13,4.005,4.49l-3.296,2.268
			c-0.929-1.929-1.609-3.859-2.384-5.665C184.962,62.398,183.983,60.685,182.667,59.13z"/>
		<path fill="#135C8E" d="M189.358,67.049c0.862-1.648,1.888-3.093,2.601-4.647c0.37-0.769,0.663-1.563,0.789-2.387
			c0.141-0.862,0.002-1.595,0.093-2.605c0.8,0.646,0.956,1.74,0.968,2.674c0.011,0.979-0.178,1.94-0.447,2.853
			c-0.575,1.817-1.461,3.45-2.219,5.016L189.358,67.049z"/>
		<path fill="#135C8E" d="M190.631,67.754c1.152-1.993,2.593-3.877,4.306-5.47c0.869-0.785,1.804-1.496,2.801-2.102
			c0.996-0.587,2.03-1.188,3.262-1.183c-0.852,0.863-1.802,1.355-2.654,2.056c-0.853,0.683-1.63,1.45-2.335,2.276
			c-1.437,1.635-2.586,3.485-3.642,5.414L190.631,67.754z"/>
		<path fill="#135C8E" d="M195.532,70.252l-0.104-0.453l-0.079-0.566c-0.026-0.362-0.046-0.704-0.008-1.079
			c0.062-0.663,0.23-1.395,0.483-2.006c0.261-0.628,0.6-1.2,0.969-1.733c0.383-0.521,0.721-1.08,1.469-1.294
			c0.015,0.772-0.331,1.24-0.535,1.802c-0.212,0.549-0.38,1.104-0.467,1.658c-0.106,0.564-0.145,1.058-0.102,1.625
			c0.027,0.24,0.05,0.513,0.101,0.762l0.083,0.341l0.126,0.44L195.532,70.252z"/>
		<path fill="#135C8E" d="M169.503,24.38c0.072-0.459,0.105-0.412,0.131-0.864l0.025-0.355c0.009-0.111-0.005-0.255-0.004-0.384
			c-0.027-0.526-0.147-1.063-0.356-1.608c-0.414-1.094-1.182-2.185-2.055-3.244c-0.874-1.064-1.854-2.113-2.753-3.241
			c-0.897-1.124-1.724-2.35-2.206-3.687c0.783,1.186,1.818,2.125,2.911,2.978c1.097,0.854,2.266,1.626,3.428,2.503
			c1.155,0.878,2.337,1.864,3.298,3.236c0.477,0.682,0.884,1.465,1.151,2.314c0.061,0.218,0.128,0.417,0.179,0.655l0.129,0.693
			c0.062,0.251,0.103,1.001,0.114,1.244L169.503,24.38z"/>
		<path fill="#135C8E" d="M313.641,39.968c8.137-8.556,18.719-14.802,29.943-18.772c5.622-1.998,11.421-3.445,17.264-4.497
			c5.841-1.073,11.732-1.758,17.621-2.181c5.894-0.398,11.783-0.564,17.66-0.559c2.937,0.021,5.884,0.104,8.781,0.162l8.743,0.117
			c11.659,0.185,23.519,0.382,35.014,2.762l0,0c-11.684-0.824-23.285-0.078-34.956,0.495c-11.729,0.607-23.354,0.529-34.851,1.726
			c-5.749,0.545-11.463,1.308-17.108,2.362c-5.642,1.073-11.209,2.435-16.675,4.113c-10.951,3.334-21.4,8.114-31.384,14.336
			L313.641,39.968z"/>
		<path fill="#135C8E" d="M313.667,40.333c8.104-4.327,16.794-7.582,25.694-9.996c8.903-2.437,18.037-3.979,27.21-4.909
			c4.592-0.428,9.193-0.724,13.798-0.862c4.604-0.099,9.211-0.131,13.806,0.062c9.197,0.319,18.358,1.182,27.423,2.645
			c-9.178-0.22-18.321-0.424-27.446-0.304c-4.565,0.087-9.121,0.172-13.67,0.437c-4.549,0.223-9.092,0.537-13.616,1.007
			c-4.53,0.416-9.043,0.997-13.535,1.696c-4.499,0.666-8.963,1.54-13.411,2.494C331.03,34.561,322.275,37.143,313.667,40.333z"/>
		<path fill="#135C8E" d="M360.001,40c4.429-3.778,9.563-6.746,14.966-9.023c2.696-1.164,5.488-2.084,8.299-2.928
			c2.822-0.81,5.69-1.438,8.57-1.983c2.89-0.493,5.797-0.866,8.711-1.117c2.918-0.211,5.838-0.362,8.758-0.313
			c5.846,0.035,11.651,0.567,17.362,1.698c-5.807,0.113-11.578,0.241-17.29,0.642c-2.859,0.229-5.714,0.43-8.549,0.8
			c-2.838,0.33-5.667,0.716-8.468,1.243c-5.619,0.966-11.152,2.354-16.568,4.14C370.381,34.971,365.125,37.254,360.001,40z"/>
		<path fill="#135C8E" d="M358.667,40.667c7.107-3.221,14.774-5.25,22.551-6.327c3.889-0.57,7.817-0.826,11.743-0.954
			c3.916-0.092,7.864,0.029,11.771,0.283c3.912,0.304,7.81,0.743,11.681,1.335c3.864,0.629,7.715,1.327,11.519,2.225
			c7.617,1.74,15.104,3.962,22.418,6.662c-7.65-1.498-15.248-3.071-22.876-4.366c-3.818-0.616-7.628-1.253-11.459-1.708
			c-3.823-0.498-7.655-0.907-11.496-1.157c-7.673-0.577-15.376-0.61-23.044-0.001C373.806,37.282,366.188,38.62,358.667,40.667z"/>
		<path fill="#135C8E" d="M449.714,30.333c-0.004-0.042-0.023-0.072-0.03-0.111c-0.008-0.958,0.007-1.918,0.023-2.889
			c0.007-0.359-0.126-0.614-0.323-0.779c0.304-1.678,0.458-3.304,0.356-4.957c0.142-1.354,0.24-2.713,0.228-4.097
			c-0.007-0.771-0.597-1.137-1.19-1.084c-0.095-0.054-0.194-0.105-0.321-0.13c-0.995-0.195-1.613-0.282-2.622-0.372
			c-0.334-0.029-0.587,0.097-0.765,0.294c-0.822,0.013-1.637,0.062-2.468,0.157c-0.136-0.014-0.271-0.029-0.406-0.043
			c-0.653-0.34-1.387-0.549-2.194-0.541c-1.212,0.013-2.381,0.101-3.557,0.269c-1.507-0.011-3.016,0.01-4.527,0.029
			c-0.479-0.156-0.994-0.267-1.583-0.271c-0.532-0.003-1.062-0.007-1.593-0.01c-0.759-0.707-1.773-1.205-3.074-1.295
			c-16.456-1.14-32.912-1.813-49.253,0.952c-2.046,0.347-3.093,1.692-3.339,3.254c-2.436,0.387-4.855,0.851-7.268,1.371
			c-5.753,0.453-11.252,2.445-16.952,3.457c-0.678,0.12-0.911,0.644-0.83,1.158c-0.002,0.023,0.001,0.048,0.001,0.071
			c-1.133,0.209-2.25,0.474-3.355,0.773c-0.224-0.128-0.492-0.199-0.809-0.145c-3.76,0.645-7.232,1.854-10.612,3.605
			c-0.138,0.071-0.242,0.162-0.329,0.26c-0.362,0.143-0.726,0.285-1.088,0.429c-1.663,0.591-3.294,1.273-4.962,1.901
			c-0.468,0.176-0.697,0.556-0.744,0.953c-1.231,0.388-2.406,0.882-3.508,1.563c-1.729,0.603-3.187,1.587-4.811,2.612
			c-0.111,0.07-0.184,0.157-0.239,0.25c-0.014,0.005-0.026,0.004-0.039,0.01c-0.336,0.162-0.673,0.323-1.009,0.485
			c-0.158,0.076-0.245,0.198-0.283,0.333c-0.085,0.047-0.171,0.094-0.256,0.141c-0.39,0.57-0.879,1.066-1.482,1.504
			c-0.094,0.067-0.194,0.12-0.295,0.176l-0.002,0.002c-0.132,0.235-0.299,0.438-0.483,0.623c0.064,0.034,0.139,0.047,0.212,0.061
			c0.23-0.126,0.473-0.234,0.739-0.297c0.139-0.102,0.276-0.204,0.438-0.28c0.239-0.11,0.458-0.206,0.668-0.288
			c0.095-0.037,0.189-0.064,0.283-0.098c0.126-0.043,0.253-0.089,0.379-0.124c0.115-0.032,0.235-0.055,0.353-0.08
			c0.056-0.012,0.114-0.022,0.171-0.034c0.057-0.066,0.104-0.14,0.13-0.221c0.71-0.356,1.417-0.717,2.122-1.082
			c1.478-0.391,2.865-0.982,4.229-1.639c0.276-0.121,0.554-0.253,0.831-0.365c1.639-0.38,3.224-0.906,4.781-1.508
			c0.729-0.18,1.467-0.344,2.217-0.475c0.456-0.081,0.672-0.377,0.719-0.715c0.805-0.334,1.612-0.664,2.424-0.985
			c0.242,0.163,0.548,0.253,0.902,0.198c3.945-0.604,7.64-2.016,11.457-3.114c0.205,0.088,0.435,0.141,0.705,0.097
			c2.684-0.438,5.289-1.188,7.932-1.749c1.127-0.15,2.252-0.298,3.368-0.459c2.045,0.263,4.039-0.012,6.126-0.38
			c0.32-0.057,0.64-0.101,0.96-0.154c3.167,0.372,6.23-0.05,9.331-0.449c1.066,0.062,2.092-0.018,3.062-0.347
			c0.248-0.023,0.495-0.052,0.744-0.07c0.61-0.046,0.966-0.455,1.087-0.919c0.743,0.001,1.486-0.01,2.229-0.03
			c2.434,0.813,4.969,1.199,7.538,1.367c-0.411,0.786-0.544,1.72-0.446,2.65c-0.135,0.02-0.273,0.025-0.406,0.048
			c-0.146-0.092-0.311-0.161-0.501-0.169c-1.827-0.077-3.401,0.194-5.112,0.856c-0.403,0.156-0.62,0.514-0.683,0.886
			c-2.761,0.369-5.291,1.52-7.975,2.479c-0.41,0.146-0.615,0.452-0.677,0.777c-0.282,0.057-0.568,0.119-0.854,0.186
			c-0.167-0.098-0.368-0.143-0.582-0.101c-2.023,0.395-3.766,1.243-5.539,2.201c-0.669,0.25-1.311,0.553-1.975,0.931
			c-0.54,0.181-1.07,0.379-1.595,0.591l-0.285,0.285c-0.43,0.43-0.952,0.713-1.506,0.869c-0.31,0.296-0.641,0.573-0.993,0.818
			c0.003,0.153,0.065,0.294,0.164,0.405c0.04-0.015,0.08-0.03,0.12-0.045c0.021-0.006,0.039-0.017,0.06-0.022
			c0.009-0.003,0.019-0.004,0.028-0.006c0.21-0.07,0.427-0.13,0.653-0.172c-0.081,0.012-0.163,0.022-0.244,0.033
			c0.183-0.042,0.367-0.072,0.551-0.103c0.004-0.001,0.008-0.001,0.012-0.003v0.001c0.157-0.025,0.315-0.043,0.473-0.063
			c0.032-0.024,0.066-0.05,0.098-0.072c0.793-0.396,1.606-0.702,2.453-0.946c0.195,0.069,0.424,0.07,0.66-0.036
			c0.271-0.122,0.542-0.244,0.813-0.367c0.049-0.021,0.077-0.057,0.116-0.085c0.077-0.013,0.153-0.02,0.232-0.056
			c0.122-0.05,0.245-0.1,0.368-0.15c0.187,0.179,0.45,0.268,0.789,0.139c0.416-0.158,0.825-0.326,1.232-0.497
			c0.219,0.26,0.559,0.399,0.959,0.252c1.635-0.601,3.214-1.329,4.848-1.917c2.129-0.292,4.254-0.602,6.39-0.847
			c0.294-0.034,0.516-0.171,0.679-0.352c0.254-0.024,0.509-0.041,0.764-0.06c0.075,0.014,0.14,0.043,0.224,0.042
			c0.213-0.003,0.425-0.008,0.638-0.011c0.784,0.05,1.557,0.05,2.362-0.04c0.299-0.033,0.523-0.164,0.697-0.333
			c2.769-0.046,5.534-0.158,8.303-0.17c0.259-0.001,0.45-0.099,0.598-0.234c0.511,0.574,1.153,1.043,1.945,1.319
			c8.885,3.104,18.194,2.265,27.374,2.767c0.71,0.483,1.576,0.778,2.583,0.779c1.75,0.002,3.486,0.012,5.215,0.202
			c0.103,0.125,0.205,0.249,0.321,0.366c0.611,0.607,1.332,1.027,2.162,1.26c1.003,0.405,2.163,0.333,3.204,0.1
			c0.754,0.312,1.584,0.426,2.402,0.36c0.104,0.147,0.243,0.279,0.453,0.361c1.059,0.508,2.171,0.839,3.335,0.994
			c0.111,0.024,0.209,0.018,0.305,0.012c0.009,0.003,0.014,0.01,0.022,0.013c0.649,0.313,1.329,0.517,2.034,0.62
			c0.424,0.197,0.84,0.38,1.293,0.568c0.502,0.209,1.043-0.212,1.175-0.694c0.104-0.144,0.182-0.318,0.183-0.558
			c0.003-1.111,0.005-2.223,0.009-3.334c0-0.017-0.008-0.028-0.009-0.045c0-0.492-0.007-0.981-0.019-1.47
			c0.007-0.053,0.03-0.094,0.031-0.151c0.018-1.037-0.008-1.98-0.1-2.934c0.099-0.15,0.172-0.329,0.171-0.566
			C449.896,32.552,449.849,31.44,449.714,30.333z"/>
		<path fill="#135C8E" d="M405.999,6c1.544,2.167,3.816,3.432,6.134,4.333c2.341,0.892,4.807,1.421,7.292,1.781l-1.518,4.764
			c-2.475-1.231-4.888-2.64-7.047-4.394c-1.075-0.877-2.083-1.847-2.937-2.931C407.072,8.472,406.383,7.266,405.999,6z"/>
		<path fill="#135C8E" d="M412.333,6.485c1.868,2.216,4.305,3.678,6.815,4.857c2.527,1.171,5.183,2.044,7.886,2.819l-2.07,4.551
			c-2.491-1.594-4.955-3.305-7.197-5.287C415.545,11.452,413.485,9.155,412.333,6.485z"/>
		<path fill="#135C8E" d="M402.999,7.942c1.416,0.613,2.754,1.708,3.726,3.182c0.967,1.472,1.57,3.257,1.755,5.139l-4.961-0.621
			c0.552-1.072,0.885-2.334,0.854-3.673C404.336,10.637,403.896,9.211,402.999,7.942z"/>
		<path fill="#135C8E" d="M391.333,7.699c2.183,0.204,4.438,0.902,6.445,2.267c1.998,1.354,3.76,3.376,4.68,6.021l-4.918,0.9
			c0.133-1.613-0.396-3.491-1.501-5.125C394.944,10.113,393.289,8.7,391.333,7.699z"/>
		<path fill="#135C8E" d="M361.666,10c1.36,1.085,2.604,2.011,3.904,2.822c1.291,0.814,2.613,1.521,3.979,2.172
			c1.367,0.648,2.774,1.244,4.232,1.823c1.459,0.59,2.961,1.139,4.551,1.85c-1.662,0.538-3.398,0.618-5.105,0.443
			c-1.706-0.187-3.396-0.656-4.969-1.409c-1.572-0.751-3.034-1.789-4.218-3.094C362.867,13.303,361.956,11.726,361.666,10z"/>
		<path fill="#135C8E" d="M356.999,12.333c1.15-0.545,2.462-0.555,3.662-0.296c1.207,0.267,2.309,0.801,3.271,1.435
			c0.967,0.637,1.803,1.376,2.568,2.169c0.766,0.805,1.461,1.641,2.166,2.692c-1.274,0.062-2.444-0.302-3.501-0.748
			c-1.058-0.46-2.007-1.027-2.886-1.61c-0.882-0.584-1.693-1.182-2.527-1.77C358.915,13.604,358.057,13.033,356.999,12.333z"/>
		<path fill="#135C8E" d="M368.999,11c1.536,0.055,2.794,0.332,4.034,0.688c1.224,0.364,2.38,0.816,3.501,1.365
			c1.12,0.548,2.202,1.197,3.242,1.979c1.033,0.796,2.039,1.696,2.89,2.968c-1.506,0.262-2.857,0.151-4.167-0.094
			c-1.303-0.258-2.55-0.681-3.73-1.266c-1.18-0.582-2.295-1.322-3.295-2.234C370.489,13.487,369.571,12.404,368.999,11z"/>
		<path fill="#135C8E" d="M340.999,17c2.73-0.33,5.514-0.5,8.358-0.229c2.829,0.272,5.774,1.011,8.455,2.65l-2.438,3.17
			c-1.662-1.709-3.943-2.991-6.44-3.865C346.432,17.843,343.728,17.334,340.999,17z"/>
		<path fill="#135C8E" d="M291.332,81.667c3.107-4.713,7.385-8.739,12.248-11.896c4.876-3.162,10.332-5.412,15.906-6.981
			c11.207-3.125,22.769-3.63,33.972-3.517c11.249,0.124,22.535,0.957,33.685,2.915c5.567,1.003,11.103,2.278,16.507,4.004
			c2.699,0.871,5.371,1.828,7.969,2.965c2.601,1.12,5.146,2.369,7.548,3.845c-5.462-1.365-10.896-2.336-16.365-3.056
			c-5.461-0.729-10.935-1.235-16.419-1.604c-10.966-0.756-21.968-1.012-32.989-1.087c-11.031-0.046-21.921-0.019-32.5,1.745
			c-5.279,0.893-10.467,2.247-15.439,4.309c-2.491,1.021-4.912,2.243-7.275,3.627c-1.184,0.691-2.342,1.439-3.473,2.239
			C293.549,79.95,292.452,80.801,291.332,81.667z"/>
		<path fill="#135C8E" d="M296.333,76.667c-0.229-1.356-0.109-2.645,0.046-3.857c0.165-1.215,0.408-2.366,0.629-3.475
			c0.228-1.111,0.437-2.171,0.574-3.257c0.134-1.09,0.171-2.198,0.064-3.57c1.188,0.717,1.95,2.02,2.286,3.372
			c0.329,1.361,0.284,2.768,0.015,4.054c-0.265,1.297-0.74,2.495-1.336,3.611C297.999,74.66,297.289,75.681,296.333,76.667z"/>
		<path fill="#135C8E" d="M297.349,74.085c0.339-1.544,0.868-3.114,1.503-4.537c0.636-1.438,1.381-2.789,2.173-4.084
			c1.586-2.59,3.354-4.965,4.975-7.463c-1.025,2.795-2.233,5.545-3.164,8.312c-0.466,1.383-0.86,2.77-1.127,4.149
			c-0.27,1.394-0.402,2.723-0.391,4.12L297.349,74.085z"/>
		<path fill="#135C8E" d="M301.201,70.458l0.559-0.859l0.622-0.916c0.417-0.582,0.84-1.148,1.272-1.702
			c0.865-1.104,1.759-2.155,2.645-3.195c1.771-2.078,3.518-4.127,4.969-6.448c-0.844,2.603-2.083,5.104-3.3,7.549
			c-0.607,1.224-1.208,2.438-1.749,3.651c-0.27,0.607-0.524,1.215-0.763,1.82l-0.326,0.884l-0.333,0.969L301.201,70.458z"/>
		<path fill="#135C8E" d="M22.668,81.333c7.366-5.868,15.851-10.289,24.731-13.594c8.902-3.272,18.261-5.383,27.736-6.302
			c9.479-0.925,19.086-0.628,28.45,0.961c9.352,1.614,18.517,4.495,26.735,9.104c-9.289-1.444-18.343-2.496-27.404-2.85
			c-9.053-0.372-18.061-0.114-27.015,0.746c-8.958,0.862-17.862,2.318-26.706,4.347C40.34,75.759,31.597,78.393,22.668,81.333z"/>
		<path fill="#135C8E" d="M5.207,95.915c2.261-1.223,4.71-2.118,7.173-2.878c2.466-0.775,4.97-1.409,7.485-1.967
			c5.034-1.107,10.116-1.901,15.204-2.566c10.186-1.273,20.4-1.941,30.647-2.174c10.354-0.303,20.668,0.518,30.76,1.967
			c5.055,0.72,10.072,1.577,15.075,2.542c5.004,0.972,9.994,2.002,15.028,3.248c-5.124,0.829-10.275,1.129-15.401,1.263
			c-5.128,0.125-10.232,0.034-15.305-0.131c-10.156-0.316-20.144-1.007-30.128-1.172c-10.083-0.127-20.201-0.178-30.3-0.082
			c-5.052,0.036-10.102,0.14-15.146,0.362C15.253,94.584,10.207,94.822,5.207,95.915z"/>
		<path fill="#135C8E" d="M63.334,83.331c7.527-2.158,15.496-2.473,23.257-2.007c7.783,0.497,15.416,1.809,22.878,3.337
			c7.471,1.527,14.785,3.291,22.124,4.825c7.347,1.564,14.696,2.843,22.433,3.845c-7.479,2.333-15.459,2.784-23.235,2.395
			c-7.801-0.412-15.457-1.69-22.93-3.23c-7.483-1.543-14.801-3.344-22.135-4.962C78.383,85.888,71.047,84.492,63.334,83.331z"/>
		<path fill="#135C8E" d="M118.667,85.998c2.742-0.441,5.596-0.066,8.302,0.295c1.362,0.167,2.695,0.373,4,0.479
			c0.65,0.051,1.299,0.098,1.919,0.105l2.048,0.042c5.408,0.104,10.82,0.153,16.222,0.146c10.805,0.006,21.623-0.172,32.513-0.081
			c10.884,0.091,21.855,0.468,32.799,1.703c10.923,1.261,21.864,3.349,32.189,7.229c-10.991-0.607-21.755-0.924-32.562-0.949
			c-10.797-0.053-21.61,0.118-32.498,0.015c-10.881-0.1-21.847-0.468-32.787-1.656c-5.469-0.608-10.916-1.411-16.328-2.52
			l-2.007-0.431c-0.731-0.155-1.425-0.334-2.11-0.545c-1.367-0.419-2.671-0.894-3.945-1.4c-1.276-0.499-2.535-0.985-3.815-1.407
			C121.333,86.57,120.028,86.233,118.667,85.998z"/>
		<path fill="#135C8E" d="M303.955,80.562c4.479-3.187,9.367-5.741,14.41-7.926c5.053-2.173,10.299-3.909,15.64-5.264
			c10.688-2.749,21.743-3.773,32.708-3.832c10.977-0.046,21.908,0.979,32.63,2.897c10.722,1.928,21.249,4.731,31.406,8.572
			l-0.107,0.479c-10.807-0.888-21.46-1.888-32.08-2.519c-10.615-0.628-21.186-0.903-31.7-0.589
			c-10.52,0.307-20.945,1.3-31.354,2.679c-5.205,0.709-10.403,1.558-15.628,2.527c-5.232,0.957-10.451,2.102-15.834,3.184
			L303.955,80.562z"/>
		<path fill="#135C8E" d="M252.667,61.333c2.794-1.586,5.785-2.752,8.842-3.672c3.055-0.938,6.192-1.589,9.352-2.028
			c3.161-0.432,6.349-0.647,9.534-0.607c3.184,0.023,6.366,0.262,9.517,0.886c-3.149,0.625-6.268,1.039-9.372,1.451l-9.271,1.242
			l-9.242,1.331C258.938,60.41,255.851,60.927,252.667,61.333z"/>
		<g>
			<path fill="#135C8E" d="M331.319,60.643l-0.067-1.08c-0.262-4.188,5.702-9.86,11.834-15.31l0.149-0.134l0.189-0.064
				c4.193-1.441,8.619-2.204,12.798-2.204c2.733,0,5.342,0.324,7.545,0.936C368.74,44.168,374,52.759,374,59.5v1.087l-1.083-0.091
				c-5.022-0.42-13.903-0.692-22.624-0.692c-8.314,0-14.839,0.25-17.902,0.687L331.319,60.643z M350.293,57.804
				c8.15,0,16.451,0.237,21.655,0.611c-0.52-5.628-4.87-12.634-8.716-13.701c-2.031-0.564-4.455-0.863-7.01-0.863
				c-3.898,0-8.029,0.702-11.959,2.031c-3.396,3.019-9.852,8.798-10.881,12.476C336.868,58.004,342.892,57.804,350.293,57.804z"/>
		</g>
		<path fill="#135C8E" d="M354,58.5c0.216-0.101,0.462-0.174,0.684-0.23c0.237-0.06,0.353-0.118,0.498-0.24
			c0.323-0.215,0.647-0.495,0.969-0.749c0.642-0.523,1.264-1.052,1.849-1.589c0.583-0.54,1.132-1.084,1.6-1.688
			c0.484-0.614,0.836-1.254,1.118-2.221c0.563,0.782,0.627,1.968,0.289,2.923c-0.328,0.979-0.941,1.804-1.654,2.458
			c-0.718,0.655-1.545,1.158-2.448,1.49c-0.456,0.164-0.93,0.274-1.453,0.313c-0.277,0.022-0.611-0.04-0.812-0.148L354,58.5z"/>
		<path fill="#135C8E" d="M360.75,54.5c0.465-1.484,0.263-2.903-0.201-4.151c-0.473-1.276-1.228-2.442-2.101-3.487
			c-0.892-1.029-1.915-1.956-3.104-2.615c-1.189-0.654-2.536-1.072-4.094-0.996c1.306-0.896,3.143-0.964,4.7-0.442
			c1.583,0.51,2.964,1.516,4.021,2.76c1.053,1.251,1.822,2.762,2.085,4.403c0.059,0.415,0.107,0.811,0.086,1.253
			c-0.021,0.406-0.066,0.816-0.174,1.222C361.753,53.242,361.336,53.988,360.75,54.5z"/>
		<g>
			<path fill="#135C8E" d="M402.691,66.247l-0.975-0.288c-5.634-1.664-26.422-5.294-28.787-5.462l-1.995-0.141l1.31-1.512
				c4.061-4.685,16.242-6.2,21.506-6.2l0.197,0.02c2.737,0.551,5.818,2.945,7.668,5.958c1.418,2.31,1.897,4.67,1.349,6.646
				L402.691,66.247z M375.36,58.804c5.779,0.873,19.916,3.399,25.824,4.935c0.04-1.231-0.396-2.641-1.273-4.07
				c-1.53-2.492-4.093-4.543-6.265-5.023C388.969,54.663,379.824,55.904,375.36,58.804z"/>
		</g>
		<path fill="#135C8E" d="M387,61.25c0.884-0.564,1.709-0.986,2.48-1.467c0.768-0.467,1.507-0.913,2.103-1.448
			c0.597-0.532,1.03-1.116,1.204-1.762c0.045-0.155,0.083-0.346,0.101-0.49l0.011-0.295c0.008-0.072,0.001-0.181,0.001-0.271
			c-0.027-0.381-0.101-0.79-0.208-1.222l1.117-0.59c0.671,0.835,1.119,1.962,0.938,3.248c-0.178,1.255-0.963,2.292-1.818,2.979
			c-0.875,0.692-1.85,1.15-2.863,1.37C389.052,61.51,388.01,61.554,387,61.25z"/>
		<g>
			<path fill="#135C8E" d="M89.565,35.299l-1.742-0.313c-6.712-1.21-21.362-3.114-25.699-3.34l-1.891-0.099l1.148-1.507
				c2.309-3.029,4.876-4.979,7.36-6.863l0.901-0.687c1.365-1.047,3.543-1.646,5.976-1.646c3.058,0,5.721,0.924,7.124,2.472
				c2.476,2.733,4.733,6.498,6.193,10.329L89.565,35.299z M64.181,29.795c5.274,0.476,15.834,1.856,22.201,2.912
				c-1.344-3-3.194-5.92-5.123-8.048c-0.999-1.104-3.213-1.815-5.642-1.815c-1.972,0-3.751,0.461-4.759,1.234L69.95,24.77
				C68.009,26.243,66.014,27.757,64.181,29.795z"/>
		</g>
		<path fill="#135C8E" d="M73.999,31.831c0.685-0.946,1.5-1.612,2.16-2.271c0.67-0.648,1.188-1.225,1.495-2.006
			c0.306-0.761,0.466-1.752,0.493-2.659c0.025-0.919-0.156-1.849-0.815-2.725l0.005-0.006c1.077,0.309,1.868,1.41,2.17,2.531
			c0.286,1.143,0.319,2.278-0.027,3.487c-0.341,1.206-1.237,2.281-2.243,2.84c-1.018,0.566-2.071,0.827-3.234,0.814L73.999,31.831z"
			/>
		<g>
			<polygon fill="#052C49" points="451,101 -1,101 -1,16 1,16 1,99 449,99 449,16 451,16 			"/>
		</g>
		<path fill="#3181AD" d="M114.333,4.001c2.374,0.438,4.686,0.984,6.989,1.602c2.306,0.605,4.585,1.326,6.841,2.149
			c2.242,0.857,4.462,1.821,6.557,3.034c2.097,1.198,4.09,2.609,5.792,4.326c-2.181-1.034-4.315-2.02-6.483-2.927
			c-2.171-0.896-4.353-1.752-6.566-2.562c-2.2-0.845-4.431-1.64-6.636-2.548C118.621,6.181,116.422,5.216,114.333,4.001z"/>
		<path fill="#3181AD" d="M144.667,7.001c1.953,0.722,3.814,1.566,5.647,2.485c1.831,0.918,3.632,1.909,5.365,3.03
			c1.735,1.114,3.399,2.364,4.939,3.761c1.537,1.396,2.949,2.951,4.049,4.724c-1.704-1.197-3.345-2.368-5.015-3.497
			c-1.668-1.13-3.364-2.208-5.058-3.308c-1.697-1.095-3.396-2.206-5.075-3.374C147.843,9.654,146.186,8.428,144.667,7.001z"/>
		<path fill="#3181AD" d="M158.667,12.001c1.457,0.872,2.779,1.858,4.071,2.878c1.29,1.019,2.547,2.065,3.769,3.147
			c1.228,1.078,2.417,2.197,3.591,3.345c1.173,1.148,2.324,2.328,3.39,3.648c-1.566-0.654-3.004-1.506-4.378-2.44
			c-1.374-0.937-2.688-1.952-3.927-3.055c-1.243-1.096-2.412-2.273-3.513-3.516C160.57,14.767,159.537,13.456,158.667,12.001z"/>
		<path fill="#3181AD" d="M21.333,12.001c1.376-1.502,3.02-2.725,4.726-3.799c1.711-1.075,3.497-2.011,5.319-2.839
			c1.82-0.835,3.681-1.557,5.555-2.229c1.877-0.673,3.767-1.285,5.733-1.801c-1.597,1.263-3.338,2.285-5.1,3.228
			c-1.765,0.94-3.557,1.806-5.36,2.621L21.333,12.001z"/>
		<path fill="#3181AD" d="M36.333,10.333c1.144-0.651,2.252-1.139,3.358-1.638c1.106-0.486,2.212-0.933,3.315-1.39
			c2.213-0.925,4.35-1.896,6.594-3.043l0.132,0.143c-0.686,1.098-1.634,1.991-2.642,2.778c-1.019,0.775-2.129,1.421-3.288,1.947
			c-1.158,0.528-2.371,0.938-3.625,1.168c-1.255,0.215-2.55,0.308-3.845,0.036V10.333z"/>
		<path fill="#3181AD" d="M43.75,33c1.296-0.562,2.485-1.101,3.639-1.705c1.152-0.604,2.257-1.271,3.376-1.949
			c1.115-0.684,2.248-1.376,3.425-2.042c1.176-0.663,2.401-1.299,3.752-1.721c-0.877,1.106-1.824,2.077-2.842,2.988
			c-1.018,0.909-2.103,1.764-3.296,2.483c-1.188,0.725-2.485,1.317-3.853,1.69C46.588,33.118,45.141,33.264,43.75,33z"/>
		<path fill="#3181AD" d="M37,33c0.879-0.712,1.759-1.255,2.656-1.791c0.896-0.522,1.802-1.003,2.729-1.449
			c0.927-0.446,1.878-0.854,2.864-1.209c0.992-0.346,2.007-0.662,3.125-0.801c-0.713,0.872-1.533,1.559-2.391,2.19
			c-0.863,0.622-1.776,1.165-2.735,1.622c-0.958,0.458-1.962,0.834-3.003,1.099C39.204,32.913,38.117,33.088,37,33z"/>
		<path fill="#3181AD" d="M33.75,33.75c4.688-1.449,9.585-1.884,14.41-2.2c4.841-0.265,9.679-0.245,14.503-0.025
			c4.825,0.222,9.637,0.652,14.427,1.314c2.396,0.326,4.782,0.755,7.162,1.219c2.366,0.535,4.77,1.002,7.046,1.943
			c-2.429-0.064-4.831-0.003-7.242,0.011c-2.404-0.013-4.81,0.008-7.208-0.037c-4.799-0.074-9.588-0.229-14.37-0.456
			c-4.783-0.223-9.559-0.513-14.335-0.834C43.358,34.365,38.607,33.961,33.75,33.75z"/>
		<path fill="#3181AD" d="M19.75,13.25c4.583-1.117,9.207-1.93,13.856-2.569c2.322-0.353,4.658-0.573,6.993-0.832
			c2.337-0.223,4.682-0.378,7.027-0.534c2.349-0.096,4.699-0.191,7.052-0.207c2.353,0.016,4.706,0.017,7.059,0.162
			c4.699,0.235,9.399,0.736,14.013,1.73c-4.712,0.251-9.368,0.407-14.023,0.61l-6.972,0.337c-2.323,0.101-4.646,0.218-6.969,0.361
			l-13.969,0.694C29.148,13.201,24.468,13.366,19.75,13.25z"/>
		<path fill="#3181AD" d="M144.667,16.333c6.468,0.485,12.789,1.559,19.091,2.619c6.294,1.103,12.547,2.32,18.783,3.582L220,30.333
			c-6.445,0.776-12.946,0.527-19.365-0.029c-6.423-0.595-12.791-1.591-19.088-2.871c-6.298-1.28-12.53-2.843-18.687-4.667
			C156.707,20.921,150.632,18.84,144.667,16.333z"/>
		<path fill="#3181AD" d="M51.612,57.456c3.957-1.807,8.126-3.026,12.375-3.905c4.253-0.854,8.603-1.307,12.965-1.313
			c4.36-0.01,8.74,0.437,12.999,1.399c4.251,0.982,8.406,2.436,12.167,4.629c-4.303-0.605-8.471-1.188-12.653-1.521
			c-4.175-0.355-8.334-0.51-12.509-0.509c-4.172,0.003-8.353,0.167-12.562,0.423C60.18,56.89,55.955,57.271,51.612,57.456z"/>
		<path fill="#3181AD" d="M107,60.001c3.288-0.41,6.557-0.51,9.805-0.559c3.249-0.066,6.479-0.036,9.692-0.043
			c3.233,0.005,6.412-0.019,9.642-0.096c3.236-0.116,6.607-0.062,9.849,0.592c-3.271,0.599-6.396,1.184-9.631,1.739
			c-3.248,0.558-6.58,0.768-9.854,0.764c-3.296-0.005-6.571-0.216-9.821-0.627C113.43,61.378,110.207,60.83,107,60.001z"/>
		<path fill="#3181AD" d="M119.5,60c0.457-0.594,0.854-1.011,1.295-1.429c0.435-0.403,0.886-0.768,1.377-1.097
			c0.491-0.329,1.022-0.621,1.609-0.852c0.592-0.22,1.228-0.404,1.968-0.373c-0.292,0.678-0.661,1.186-1.068,1.662
			c-0.413,0.467-0.875,0.879-1.399,1.226c-0.522,0.347-1.104,0.633-1.74,0.811C120.913,60.111,120.199,60.207,119.5,60z"/>
		<path fill="#3181AD" d="M114.5,60.5c0.646-1.104,1.394-2.067,2.215-2.99c0.828-0.912,1.745-1.76,2.779-2.488
			c1.03-0.727,2.187-1.332,3.435-1.686c1.245-0.346,2.586-0.447,3.821-0.086c-1.186,0.48-2.23,0.962-3.223,1.54
			c-0.994,0.567-1.935,1.203-2.884,1.868c-0.948,0.665-1.9,1.361-2.902,2.035C116.733,59.356,115.692,60.026,114.5,60.5z"/>
		<path fill="#3181AD" d="M124.25,60.5c0.731-0.744,1.387-1.342,2.049-1.976l1.976-1.842c0.672-0.609,1.375-1.214,2.144-1.775
			c0.775-0.552,1.603-1.083,2.582-1.407c-0.413,0.941-0.916,1.741-1.47,2.52c-0.561,0.769-1.19,1.494-1.915,2.146
			c-0.722,0.651-1.539,1.231-2.443,1.66C126.273,60.24,125.265,60.543,124.25,60.5z"/>
		<path fill="#3181AD" d="M295,78.667c2.934-3.901,6.708-7.188,10.852-9.852c2.06-1.36,4.253-2.503,6.471-3.577
			c2.233-1.045,4.532-1.935,6.851-2.751c2.335-0.766,4.693-1.447,7.074-2.02c2.39-0.533,4.78-1.043,7.198-1.381
			C338.269,58.354,343.126,57.97,348,58c-4.722,1.209-9.438,2.233-14.099,3.384c-2.324,0.604-4.651,1.154-6.941,1.834
			c-2.3,0.64-4.582,1.323-6.825,2.109c-2.261,0.735-4.478,1.584-6.663,2.5c-2.2,0.888-4.329,1.93-6.445,3.003
			C302.816,73.028,298.819,75.642,295,78.667z"/>
		<path fill="#3181AD" d="M321.334,65c5.018-2.465,10.396-4.205,15.882-5.399c2.741-0.626,5.523-1.041,8.312-1.401
			c2.793-0.328,5.601-0.51,8.41-0.619c2.819-0.056,5.611-0.019,8.427,0.136c2.802,0.198,5.602,0.43,8.374,0.873
			c5.546,0.827,11.022,2.13,16.262,4.078c-5.538-0.735-11.021-1.371-16.515-1.751c-2.749-0.159-5.49-0.334-8.236-0.362
			c-2.733-0.065-5.496-0.079-8.228,0.022c-5.482,0.127-10.95,0.597-16.397,1.32C332.175,62.638,326.768,63.706,321.334,65z"/>
		<path fill="#3181AD" d="M301.667,71.333l2.923-4.543l2.852-4.502c0.956-1.503,1.95-2.997,3.013-4.461
			c1.062-1.462,2.2-2.893,3.546-4.16c-0.651,1.728-1.402,3.361-2.214,4.973c-0.811,1.609-1.676,3.198-2.66,4.727
			c-0.979,1.531-2.073,3.005-3.301,4.368C304.6,69.097,303.233,70.353,301.667,71.333z"/>
		<path fill="#3181AD" d="M304.667,69c1.488-0.758,2.858-1.535,4.182-2.389c1.32-0.853,2.577-1.781,3.813-2.745
			c1.231-0.971,2.446-1.974,3.648-3.02c1.204-1.045,2.396-2.121,3.689-3.18c-0.624,1.554-1.524,2.965-2.562,4.26
			c-1.04,1.296-2.222,2.486-3.544,3.514c-1.316,1.032-2.771,1.904-4.326,2.55C308.018,68.634,306.345,69.051,304.667,69z"/>
		<path fill="#3181AD" d="M295.334,78c0.283-1.499,0.638-2.893,0.97-4.291c0.33-1.396,0.616-2.78,0.888-4.166
			c0.263-1.387,0.494-2.778,0.697-4.194l0.289-2.148c0.117-0.715,0.182-1.451,0.33-2.2c0.293,0.705,0.492,1.426,0.651,2.172
			c0.078,0.378,0.124,0.733,0.188,1.102c0.047,0.392,0.077,0.754,0.102,1.134c0.084,1.505-0.001,3.028-0.294,4.512
			c-0.286,1.484-0.752,2.932-1.381,4.298C297.144,75.579,296.353,76.881,295.334,78z"/>
		<path fill="#3181AD" d="M333.667,28c-0.096-0.003,0.021-0.093,0.044-0.11l0.135-0.1l0.279-0.184l0.572-0.345
			c0.385-0.223,0.771-0.443,1.165-0.646c0.788-0.409,1.579-0.812,2.38-1.193c1.606-0.751,3.223-1.486,4.867-2.146
			c3.277-1.356,6.623-2.543,10.008-3.608c6.768-2.144,13.738-3.681,20.806-4.605c3.54-0.404,7.104-0.688,10.677-0.656l10.612,0.273
			c3.525,0.108,7.05,0.25,10.574,0.424c3.52,0.213,7.056,0.357,10.548,0.897c-1.758-0.133-3.521-0.092-5.28-0.082l-5.282,0.081
			l-10.563,0.243c-3.51,0.109-7.072,0.087-10.524,0.387c-3.468,0.303-6.927,0.702-10.363,1.274c-6.89,1.041-13.7,2.6-20.495,4.273
			c-3.396,0.849-6.778,1.764-10.162,2.704c-1.686,0.489-3.383,0.952-5.064,1.466l-2.527,0.768l-1.26,0.401l-0.625,0.216
			l-0.308,0.119l-0.149,0.068C333.7,27.936,333.587,27.987,333.667,28z"/>
		<path fill="#3181AD" d="M363.667,22.333c3.197-1.76,6.69-2.957,10.212-3.845c3.525-0.917,7.115-1.508,10.709-1.92
			c3.596-0.411,7.204-0.615,10.809-0.66c1.802-0.037,3.604-0.002,5.403,0.041c1.936,0.042,3.729,0.219,5.528,0.39
			c7.166,0.762,14.232,1.782,21.294,2.986l5.289,0.915l5.274,1.016c3.509,0.712,7.023,1.437,10.481,2.411
			c-7.146-0.478-14.281-0.815-21.398-1.343c-7.118-0.447-14.24-1.026-21.303-1.445c-1.757-0.096-3.526-0.22-5.16-0.161l-5.303,0.161
			l-10.581,0.309C377.859,21.418,370.881,21.621,363.667,22.333z"/>
		<path fill="#3181AD" d="M396.334,16.667c0.331-0.993,0.368-1.798,0.098-2.492c-0.24-0.661-0.703-1.313-1.236-1.95
			c-0.54-0.637-1.146-1.271-1.777-1.924c-0.627-0.664-1.279-1.324-1.928-2.121c1.034,0.052,1.983,0.399,2.868,0.86
			c0.879,0.474,1.692,1.097,2.37,1.901c0.662,0.802,1.232,1.819,1.259,3.041c0.009,0.178-0.008,0.311-0.026,0.418
			c-0.014,0.174-0.049,0.3-0.085,0.447c-0.091,0.28-0.192,0.551-0.348,0.787C397.222,16.099,396.806,16.475,396.334,16.667z"/>
		<path fill="#3181AD" d="M404.334,15.667c-0.241-1.001-0.266-1.965-0.29-2.895l-0.001-2.681c-0.013-0.868-0.053-1.688-0.202-2.51
			c-0.14-0.827-0.417-1.641-0.84-2.581c0.986,0.309,1.804,1.091,2.313,2.031c0.511,0.944,0.719,2.02,0.728,3.028
			c0.008,1.027-0.162,2.008-0.448,2.94C405.295,13.934,404.912,14.816,404.334,15.667z"/>
		<path fill="#3181AD" d="M406.001,6.334c1.353,1.006,2.678,1.86,4.068,2.605c1.389,0.744,2.832,1.371,4.3,2.006
			c1.47,0.628,2.965,1.27,4.441,2.007c1.473,0.736,2.938,1.581,4.19,2.715c-1.637-0.394-3.195-0.803-4.762-1.263
			c-1.562-0.46-3.131-0.957-4.662-1.623c-1.53-0.658-3.028-1.483-4.366-2.546C407.877,9.182,406.709,7.867,406.001,6.334z"/>
		<path fill="#3181AD" d="M361.334,10.334c1.327,0.995,2.627,1.853,3.983,2.612c1.354,0.757,2.757,1.404,4.186,2.021
			c1.432,0.609,2.89,1.191,4.371,1.773c1.48,0.584,2.979,1.172,4.46,1.927c-1.66,0.058-3.288-0.112-4.896-0.428
			c-1.606-0.317-3.199-0.774-4.724-1.435c-1.525-0.654-2.986-1.508-4.28-2.579C363.144,13.159,362.017,11.854,361.334,10.334z"/>
		<path fill="#3181AD" d="M369.334,10.667c1.448-0.165,2.927-0.015,4.336,0.304c1.418,0.319,2.799,0.812,4.098,1.463
			c1.303,0.644,2.52,1.45,3.634,2.372c1.113,0.923,2.126,1.968,2.933,3.195c-1.343-0.591-2.575-1.253-3.802-1.898l-3.658-1.881
			c-1.22-0.607-2.444-1.203-3.697-1.776C371.916,11.869,370.658,11.322,369.334,10.667z"/>
		<path fill="#3181AD" d="M328,66.359c2.542-1.237,5.248-2.12,7.963-2.896c2.723-0.758,5.476-1.406,8.254-1.913
			c1.396-0.257,2.768-0.491,4.199-0.71c1.463-0.209,2.906-0.303,4.33-0.361c2.851-0.105,5.671-0.075,8.484,0.041
			c5.625,0.23,11.219,0.715,16.781,1.499l4.167,0.618l4.152,0.747c2.755,0.579,5.528,1.125,8.215,2.056
			c-5.639-0.009-11.225-0.01-16.804-0.222c-5.579-0.149-11.142-0.45-16.687-0.722c-2.771-0.125-5.541-0.276-8.281-0.346
			c-1.371-0.03-2.725-0.057-4.045,0.005c-1.349,0.069-2.753,0.169-4.128,0.282C339.068,64.896,333.539,65.386,328,66.359z"/>
		<path fill="#135C8E" d="M331.242,58.974c1.097-0.833,2.394-1.351,3.672-1.821c1.294-0.432,2.607-0.794,3.932-1.064
			c2.649-0.544,5.324-0.842,7.998-0.98c2.674-0.137,5.351-0.106,8.021,0.09c2.667,0.218,5.341,0.542,7.968,1.29
			c-2.674,0.508-5.309,0.812-7.947,1.068c-2.636,0.244-5.265,0.417-7.89,0.547c-2.624,0.134-5.245,0.222-7.863,0.319
			C336.506,58.533,333.911,58.56,331.242,58.974z"/>
		<path fill="#135C8E" d="M358.148,43.908c-4.148,2.052-14.15,8.789-17.149,12.46c6.038,0,14.168-0.793,16.751,0.003
			C361,55.167,363.676,51.473,358.148,43.908z"/>
		<path fill="#052C49" d="M369.485,49.519c-4.273,3.121-9.237,5.874-14.236,7.818c6.868,0.334,11.938,0.837,17.872,1.637
			C373.121,55.377,369.485,49.519,369.485,49.519z"/>
		<path fill="#052C49" d="M351.168,56.368c1.045,1.073,12.499-6.751,16.18-8.562c-2.141-2.074-4.836-2.676-7.347-2.196
			C356.697,48.49,350.477,55.658,351.168,56.368z"/>
		<g>
			<path fill="#618F8A" d="M390.337,61.666c3,0,5-2.667,7-4.334L390.337,61.666z"/>
		</g>
		<g>
			<path fill="#052C49" d="M390.337,61.332c2.374,0.297,4.749,1.387,7.358,1.387c1.637,0,0.991-4.598-0.691-5.72L390.337,61.332z"/>
		</g>
		<g>
			<path fill="#7F4844" d="M77.669,31.665c2.381-0.952,2.721-3.266,2.721-5.482c0-0.886-0.054-1.756-0.054-2.518L77.669,31.665z"/>
		</g>
		<g>
			<path fill="#052C49" d="M79.89,23.317c10.494,13.491,2.399,8.667-2,8.667L79.89,23.317z"/>
		</g>
	</g>
</g>
</svg>
